<?xml version="1.0" encoding="UTF-8" standalone="no"?>
<!-- Generator: Adobe Illustrator 18.0.0, SVG Export Plug-In . SVG Version: 6.00 Build 0)  -->

<svg
   version="1.1"
   id="Capa_1"
   x="0px"
   y="0px"
   viewBox="0 0 59 59"
   style="enable-background:new 0 0 59 59;"
   xml:space="preserve"
   sodipodi:docname="calendar.svg"
   inkscape:version="1.2.1 (9c6d41e4, 2022-07-14)"
   xmlns:inkscape="http://www.inkscape.org/namespaces/inkscape"
   xmlns:sodipodi="http://sodipodi.sourceforge.net/DTD/sodipodi-0.dtd"
   xmlns="http://www.w3.org/2000/svg"
   xmlns:svg="http://www.w3.org/2000/svg"><defs
   id="defs79" /><sodipodi:namedview
   id="namedview77"
   pagecolor="#ffffff"
   bordercolor="#000000"
   borderopacity="0.25"
   inkscape:showpageshadow="2"
   inkscape:pageopacity="0.0"
   inkscape:pagecheckerboard="0"
   inkscape:deskcolor="#d1d1d1"
   showgrid="false"
   inkscape:zoom="20.491525"
   inkscape:cx="21.740695"
   inkscape:cy="41.21216"
   inkscape:window-width="2557"
   inkscape:window-height="1387"
   inkscape:window-x="0"
   inkscape:window-y="25"
   inkscape:window-maximized="0"
   inkscape:current-layer="Capa_1" />
<g
   id="g74">
	<path
   d="M56,57h-1v-2.36c0-3.534-1.845-6.748-4.827-8.64C53.155,44.108,55,40.895,55,37.36V35h1c0.553,0,1-0.447,1-1s-0.447-1-1-1   h-1h-1H40h-1h-1c-0.553,0-1,0.447-1,1s0.447,1,1,1h1v2.36c0,3.534,1.845,6.748,4.827,8.64C40.845,47.892,39,51.105,39,54.64V57h-1   c-0.553,0-1,0.447-1,1s0.447,1,1,1h1h1h14h1h1c0.553,0,1-0.447,1-1S56.553,57,56,57z M41,37.36V35h12v2.36   c0,3.319-2.033,6.298-5.197,7.64h-1.605C43.033,43.658,41,40.68,41,37.36z M41,54.64c0-3.319,2.033-6.298,5.197-7.64h1.605   C50.967,48.342,53,51.32,53,54.64V57H41V54.64z"
   id="path68" />
	<path
   d="M47,32V21h-9h-2h-7h-2h-7h-2H9v9v2v7v2v9h9h2h9v-9v-2v-7h7h2H47z M20,23h7v7h-7V23z M11,23h7v7h-7V23z M11,32h7v7h-7V32z    M18,48h-7v-7h7V48z M27,48h-7v-7h7V48z M27,39h-7v-7h7V39z M36,30h-7v-7h7V30z M38,23h7v7h-7V23z"
   id="path70" />
	<path
   d="M33,55H4V16h48v12c0,0.553,0.447,1,1,1s1-0.447,1-1V15V5c0-0.553-0.447-1-1-1h-5V1c0-0.553-0.447-1-1-1h-7   c-0.553,0-1,0.447-1,1v3H17V1c0-0.553-0.447-1-1-1H9C8.447,0,8,0.447,8,1v3H3C2.447,4,2,4.447,2,5v10v41c0,0.553,0.447,1,1,1h30   c0.553,0,1-0.447,1-1S33.553,55,33,55z M41,2h5v3v3h-5V5V2z M10,2h5v3v3h-5V5V2z M4,6h4v3c0,0.553,0.447,1,1,1h7   c0.553,0,1-0.447,1-1V6h22v3c0,0.553,0.447,1,1,1h7c0.553,0,1-0.447,1-1V6h4v8H4V6z"
   id="path72" />
</g>

<path
   style="fill:#ff0000;stroke-width:0.0488007"
   d="M 2.8263657,56.953764 C 2.5554633,56.900805 2.3057021,56.719877 2.1589975,56.47032 l -0.13377,-0.227557 V 30.500414 4.7580645 L 2.1607263,4.5275584 c 0.087866,-0.149475 0.21653,-0.2781388 0.366005,-0.366005 L 2.7572374,4.0260546 5.3772979,4.0118681 7.9973583,3.9976817 8.0125338,2.377046 8.0277089,0.75641026 8.1632078,0.52590414 c 0.087866,-0.14947496 0.21653,-0.27813881 0.366005,-0.36600496 l 0.230506,-0.13549885 h 3.7332502 3.733251 l 0.204576,0.10935102 c 0.227604,0.12166053 0.4123,0.3424722 0.496294,0.59334059 0.03689,0.11016662 0.05554,0.68796036 0.05554,1.72022336 v 1.554339 H 28.01158 39.040529 V 2.389665 c 0,-1.2413316 0.01512,-1.64809751 0.06574,-1.76902399 0.10552,-0.25205536 0.422788,-0.50459809 0.711787,-0.56657732 0.3331,-0.07143718 6.953957,-0.07532311 7.328454,-0.0043012 0.320189,0.06072278 0.565712,0.24512575 0.714738,0.53681448 0.107266,0.20995147 0.109801,0.25186421 0.109801,1.81499583 v 1.6000815 h 2.486432 c 1.546221,0 2.576432,0.019301 2.72444,0.051043 0.293555,0.062957 0.578253,0.2891347 0.69924,0.5555126 0.08696,0.1914723 0.09023,0.6212344 0.09023,11.8864141 0,11.200786 -0.0037,11.695909 -0.08887,11.883379 -0.150233,0.330704 -0.554693,0.609046 -0.885,0.609046 -0.330308,0 -0.734768,-0.278342 -0.885,-0.609046 -0.08443,-0.185839 -0.08892,-0.501271 -0.08994,-6.307953 l -0.0011,-6.112332 -24.022125,0.01225 -24.0221261,0.01225 v 19.520264 19.520265 l 14.6966721,0.0244 14.696671,0.0244 0.18753,0.149232 c 0.239144,0.190303 0.407134,0.516379 0.407134,0.790263 0,0.43132 -0.341272,0.840509 -0.779366,0.93446 -0.282248,0.06053 -30.0507043,0.06863 -30.3595293,0.0083 z M 52.021505,9.9797353 V 5.9536807 H 49.996278 47.97105 V 7.56567 c 0,1.3445744 -0.01253,1.6419774 -0.07553,1.7927582 -0.09633,0.2305505 -0.242672,0.3866892 -0.473251,0.5049307 -0.176306,0.090411 -0.317075,0.093266 -3.977253,0.080652 L 39.650538,9.9309347 39.491824,9.8177303 C 39.404531,9.7554685 39.272769,9.6254498 39.19902,9.5288001 l -0.13409,-0.1757258 -0.014,-1.6996968 -0.014,-1.6996968 H 28.009778 16.98263 v 1.5787395 c 0,1.0505035 -0.01858,1.6342429 -0.05554,1.7446237 -0.08343,0.2491947 -0.268996,0.4723972 -0.483868,0.5820167 -0.188234,0.096029 -0.269548,0.09776 -3.990822,0.08495 L 8.6537276,9.9309347 8.4591291,9.7960623 C 8.3520995,9.7218824 8.2112457,9.5681603 8.1461198,9.4544577 8.0281329,9.2484652 8.0276547,9.2418273 8.0125548,7.6001643 L 7.9974012,5.9526027 5.9873275,5.9653421 3.9772539,5.9780811 3.9647702,9.9919355 3.9522864,14.00579 H 27.986896 52.021505 Z M 15.030604,5.0020678 V 2.0008271 H 12.492969 9.955335 v 3.0012407 3.0012407 h 2.537634 2.537635 z m 30.98842,0 V 2.0008271 H 43.50579 40.992556 v 3.0012407 3.0012407 h 2.513234 2.513234 z"
   id="path254" /><path
   style="fill:#ff0000;stroke-width:0.0488007"
   d="M 9.0281224,35.502481 V 21.033085 H 28.01158 46.995037 v 5.465674 5.465674 h -9.003722 -9.003722 v 9.003723 9.003722 H 19.007858 9.0281224 Z m 8.9793216,9.003722 v -3.513647 h -3.513647 -3.513648 v 3.513647 3.513648 h 3.513648 3.513647 z m 9.028123,0 v -3.513647 h -3.538048 -3.538048 v 3.513647 3.513648 h 3.538048 3.538048 z m -9.028123,-9.003722 v -3.538048 h -3.513647 -3.513648 v 3.538048 3.538048 h 3.513648 3.513647 z m 9.028123,0 v -3.538048 h -3.538048 -3.538048 v 3.538048 3.538048 h 3.538048 3.538048 z m -9.028123,-9.003722 v -3.513647 h -3.513647 -3.513648 v 3.513647 3.513648 h 3.513648 3.513647 z m 9.028123,0 v -3.513647 h -3.538048 -3.538048 v 3.513647 3.513648 h 3.538048 3.538048 z m 8.979321,0 v -3.513647 h -3.513647 -3.513648 v 3.513647 3.513648 h 3.513648 3.513647 z m 9.028123,0 v -3.513647 h -3.538048 -3.538048 v 3.513647 3.513648 h 3.538048 3.538048 z"
   id="path256" /><path
   style="fill:#ee4bc8;stroke-width:0.0488007;fill-opacity:1"
   d="m 37.756675,58.930714 c -0.263418,-0.07125 -0.523578,-0.294326 -0.64728,-0.555008 -0.126876,-0.267372 -0.0774,-0.6934 0.106994,-0.92122 0.300415,-0.371173 0.553068,-0.455313 1.367195,-0.455313 h 0.456945 v -1.550701 c 0,-0.852886 0.02309,-1.736788 0.05131,-1.964227 0.222501,-1.79336 0.916086,-3.501502 2.005196,-4.938338 0.601418,-0.793437 1.606673,-1.747978 2.419414,-2.297357 0.166902,-0.112819 0.303696,-0.227086 0.303988,-0.253926 2.93e-4,-0.02684 -0.136264,-0.138692 -0.303458,-0.248558 -0.75378,-0.495325 -1.722864,-1.394815 -2.297666,-2.132662 -1.167696,-1.498918 -1.898329,-3.253127 -2.127663,-5.108402 -0.02811,-0.227439 -0.05112,-1.109186 -0.05112,-1.959438 v -1.545913 l -0.650549,-0.01699 c -0.62375,-0.01629 -0.660283,-0.02302 -0.886823,-0.16339 -0.666688,-0.413099 -0.608091,-1.340747 0.10753,-1.702315 0.142207,-0.07185 0.981946,-0.07891 9.386752,-0.07891 10.214253,0 9.374984,-0.02734 9.708007,0.316252 0.422871,0.436292 0.290832,1.211458 -0.255335,1.49901 -0.175217,0.09225 -0.302645,0.112036 -0.822303,0.12768 l -0.614953,0.01851 -0.02929,1.617908 c -0.01967,1.086303 -0.05466,1.786272 -0.106518,2.130314 -0.424123,2.813991 -1.933122,5.263409 -4.258563,6.912535 -0.248273,0.176067 -0.450949,0.334307 -0.45039,0.351643 5.56e-4,0.01734 0.13781,0.121412 0.305004,0.231279 1.726226,1.134339 3.222959,3.064197 3.912187,5.044301 0.45934,1.319649 0.560761,2.011794 0.598254,4.082758 l 0.02926,1.616312 0.600895,0.02315 c 0.51487,0.01984 0.634287,0.04033 0.834147,0.143184 0.674582,0.347152 0.688898,1.297204 0.02542,1.687216 l -0.230506,0.135499 -9.125724,0.0093 c -7.35985,0.0075 -9.171128,-0.003 -9.360364,-0.05418 z m 15.288221,-3.066157 c -0.0017,-1.368274 -0.05756,-2.198593 -0.192347,-2.860008 -0.501693,-2.461853 -2.163738,-4.599448 -4.478006,-5.759272 l -0.49932,-0.25024 h -0.884988 -0.884988 l -0.567719,0.294483 c -1.347658,0.699049 -2.554042,1.810583 -3.361452,3.097163 -0.424253,0.676034 -0.842702,1.735126 -1.041186,2.635236 -0.09682,0.439068 -0.109775,0.662962 -0.129197,2.23263 l -0.02159,1.744624 h 6.031107 6.031106 z M 48.36763,44.760768 c 2.312474,-1.175927 3.911965,-3.196158 4.453898,-5.625477 0.157118,-0.704312 0.223811,-1.606486 0.224363,-3.035002 l 4.28e-4,-1.110215 h -6.031106 -6.031107 l 0.02159,1.744624 c 0.01933,1.562498 0.03265,1.794488 0.127607,2.222281 0.370648,1.669897 1.087678,3.003516 2.232889,4.152998 0.723308,0.726005 1.384075,1.204596 2.309748,1.67294 l 0.513889,0.260002 0.811385,4.6e-5 0.811384,4.6e-5 z"
   id="path258" /><path
   style="fill:#ee4bc8;fill-opacity:1;stroke-width:0.0488007"
   d="M 2.6352357,56.858344 C 2.4217941,56.759606 2.285594,56.627039 2.128135,56.364764 L 2.0255923,56.193962 2.0254099,30.493728 2.0252275,4.7934952 2.1838296,4.5577583 C 2.2710608,4.428103 2.430273,4.2616485 2.5376344,4.1878594 l 0.1952027,-0.134162 1.8344309,-0.00162 c 1.008937,-8.916e-4 2.2002832,-0.01605 2.647436,-0.033685 L 8.0277089,3.9863268 V 2.3890839 0.79184095 L 8.186311,0.55610409 C 8.2735422,0.42644879 8.4327543,0.25999428 8.5401158,0.18620516 l 0.1952026,-0.13416204 3.7660576,-0.0016212 3.766057,-0.0016212 0.206663,0.15860215 c 0.28574,0.21929023 0.394632,0.38169652 0.439704,0.65579681 0.02124,0.12914842 0.03992,0.88813412 0.04152,1.68663502 l 0.0029,1.4518197 h 11.049886 11.049887 l 0.01566,-1.6470224 c 0.01792,-1.88474345 0.01312,-1.86212083 0.453276,-2.13440831 l 0.237663,-0.14702264 1.614389,-0.03556332 c 1.945308,-0.04285315 5.588699,1.0443e-4 5.859208,0.0690829 0.253237,0.0645744 0.582,0.39137285 0.653757,0.64985073 0.03429,0.12351286 0.05425,0.75158054 0.05442,1.71258844 l 2.93e-4,1.5175467 2.596347,0.035361 c 2.808457,0.03825 2.791528,0.036538 3.081086,0.31158 0.07621,0.072387 0.175029,0.1974939 0.219603,0.278015 0.07489,0.1352886 0.08104,1.0336205 0.08104,11.8341605 0,6.428267 -0.01703,11.748703 -0.03784,11.823191 -0.04632,0.165772 -0.345402,0.504549 -0.529478,0.599737 -0.173218,0.08957 -0.546065,0.0901 -0.716125,0.001 -0.153459,-0.0804 -0.408076,-0.3413 -0.504126,-0.516571 -0.05539,-0.101082 -0.06925,-1.174256 -0.08084,-6.258684 l -0.014,-6.136685 H 28.009801 3.9772539 v 19.537866 19.537864 l 14.7011991,0.03526 14.7012,0.03526 0.207153,0.201059 c 0.506495,0.491584 0.440591,1.165975 -0.146823,1.502431 l -0.206732,0.11841 -15.201407,0.01134 c -14.7018893,0.01097 -15.20782,0.0084 -15.3966083,-0.07896 z M 52.045906,9.9797353 V 5.9536807 h -2.046165 -2.046164 l -0.01566,1.6470224 c -0.01772,1.8636538 -0.02537,1.9050231 -0.397908,2.151584 L 47.343821,9.882134 43.51368,9.895211 39.683539,9.908287 39.532839,9.8035544 C 39.449949,9.7459509 39.310763,9.6114201 39.223532,9.5045965 L 39.06493,9.3103718 V 7.6320263 5.9536807 h -11.049401 -11.0494 l -0.01618,1.6470224 c -0.01398,1.4231083 -0.02719,1.6669256 -0.09719,1.7934243 -0.10705,0.1934424 -0.325153,0.396135 -0.495514,0.4605016 -0.09276,0.035047 -1.367189,0.051905 -3.923847,0.051905 H 8.6469297 L 8.481801,9.7805842 C 8.39098,9.7113117 8.2579879,9.5659569 8.1862632,9.4575731 L 8.0558541,9.2605121 8.0358098,7.6070964 8.0157654,5.9536807 H 6.0033072 3.9908489 L 3.9600753,6.2098842 C 3.9431498,6.3507961 3.9291108,8.1625207 3.9288774,10.235939 L 3.9284533,14.00579 H 27.987179 52.045906 Z M 15.055004,5.0020678 V 2.0008271 H 12.492969 9.9309347 v 3.0012407 3.0012407 h 2.5620343 2.562035 z m 30.98842,0 V 2.0008271 H 43.50579 40.968156 v 3.0012407 3.0012407 h 2.537634 2.537634 z"
   id="path3608" /><path
   style="fill:#ee4bc8;fill-opacity:1;stroke-width:0.0488007"
   d="M 9.0525227,35.502481 V 21.033085 H 28.01158 46.970637 v 5.465674 5.465674 h -9.003722 -9.003722 v 9.003723 9.003722 H 19.007858 9.0525227 Z m 8.9793213,9.003722 v -3.513647 h -3.538047 -3.538048 v 3.513647 3.513648 h 3.538048 3.538047 z m 9.028123,0 V 40.992556 H 23.497519 19.93507 v 3.513647 3.513648 h 3.562449 3.562448 z m -9.028123,-9.003722 v -3.538048 h -3.538047 -3.538048 v 3.538048 3.538048 h 3.538048 3.538047 z m 9.028123,0 V 31.964433 H 23.497519 19.93507 v 3.538048 3.538048 h 3.562449 3.562448 z m -9.028123,-9.003722 v -3.513647 h -3.538047 -3.538048 v 3.513647 3.513648 h 3.538048 3.538047 z m 9.028123,0 V 22.985112 H 23.497519 19.93507 v 3.513647 3.513648 h 3.562449 3.562448 z m 8.979322,0 v -3.513647 h -3.538048 -3.538048 v 3.513647 3.513648 h 3.538048 3.538048 z m 9.028122,0 v -3.513647 h -3.562448 -3.562449 v 3.513647 3.513648 h 3.562449 3.562448 z"
   id="path3610" /><path
   style="fill:#ff00ff;stroke-width:0.0488007"
   d="M 2.7785752,56.85633 C 2.5460205,56.810823 2.4109906,56.709449 2.2141441,56.432579 L 2.0496278,56.201186 V 30.499146 4.7971089 L 2.1876554,4.6067844 C 2.2635706,4.502106 2.4029614,4.3487023 2.4974128,4.2658872 l 0.1717298,-0.1505727 1.4348663,-0.03234 c 0.7891765,-0.017787 1.852112,-0.032536 2.3620789,-0.032777 0.5099669,-2.392e-4 1.0754446,-0.014437 1.2566171,-0.031547 l 0.3294044,-0.03111 V 2.3914977 0.79545456 L 8.1901371,0.60513007 C 8.2660519,0.50045163 8.4060967,0.34647388 8.5013473,0.26295728 L 8.6745296,0.11110893 12.438346,0.0748363 16.202163,0.03856368 16.440131,0.22004091 c 0.130883,0.0998125 0.289868,0.2723081 0.353299,0.38332365 0.113661,0.19892297 0.115584,0.2249939 0.13281,1.80006804 l 0.01748,1.5982217 H 28.0105 39.077281 l 0.02225,-1.622622 c 0.02585,-1.88493555 0.02456,-1.87860698 0.4355,-2.13953232 L 39.79694,0.07320099 h 3.586849 c 1.972767,0 3.67051,0.01771112 3.772763,0.03935805 0.104156,0.0220497 0.271867,0.11701089 0.381364,0.21593556 0.364889,0.32965461 0.357718,0.29022612 0.375964,2.0673605 l 0.01633,1.5906442 0.911033,0.03184 c 0.501068,0.017512 1.4271,0.032718 2.057848,0.033791 1.441684,0.00245 2.326435,0.059911 2.52807,0.1641821 0.202781,0.1048613 0.380181,0.3525912 0.422901,0.5905529 0.01927,0.1073614 0.03412,5.4299007 0.033,11.8278647 l -0.002,11.632661 -0.134788,0.194498 c -0.210262,0.303412 -0.429104,0.428103 -0.751349,0.428103 -0.297143,0 -0.51148,-0.11993 -0.738955,-0.413478 -0.109445,-0.141236 -0.113246,-0.181921 -0.143605,-1.537221 -0.01715,-0.765681 -0.03362,-3.549745 -0.0366,-6.186811 l -0.0054,-4.794665 H 28.01158 3.9528537 v 19.544665 19.544666 l 1.5738214,0.0037 c 0.8656017,0.002 7.4861809,0.01975 14.7123979,0.03935 l 13.138577,0.03564 0.127647,0.11925 c 0.172676,0.161315 0.348176,0.471785 0.387079,0.684766 0.05584,0.305677 -0.126768,0.634652 -0.475153,0.856032 l -0.182032,0.115672 -15.141376,-0.0056 C 9.7660589,56.892881 2.8742009,56.875035 2.7785752,56.856325 Z M 52.070307,9.9797355 V 5.9536809 h -2.074028 -2.074028 l -0.0017,1.256617 c -0.0019,1.3545239 -0.05108,2.1378551 -0.143601,2.2859983 -0.03197,0.051196 -0.139013,0.151223 -0.237869,0.2222811 l -0.179737,0.1291973 -3.854382,0.01718 -3.854382,0.01718 L 39.369935,9.6051104 39.089331,9.3280871 V 7.6408837 5.9536809 H 28.018165 16.946999 l -0.02263,1.6521469 c -0.02177,1.5887939 -0.02669,1.6587077 -0.128374,1.8232406 -0.05816,0.094101 -0.188189,0.2279806 -0.288957,0.2975093 L 16.323822,9.8529943 12.49297,9.8845142 8.6621176,9.9160341 8.5055939,9.7643514 C 8.4195061,9.6809261 8.2877443,9.5323042 8.2127899,9.4340812 L 8.0765097,9.2554937 8.0608461,7.6045873 8.0451826,5.9536809 H 6.0062511 3.9673199 l -0.031341,0.4026054 c -0.017237,0.221433 -0.031473,2.0331576 -0.031633,4.0260547 L 3.904053,14.00579 H 27.98718 52.070307 Z M 15.079405,5.0020679 V 2.0008272 H 12.49297 9.9065345 v 3.0012407 3.0012408 h 2.5864355 2.586435 z m 30.988421,0 V 2.0008272 h -2.562035 -2.562035 v 3.0012407 3.0012408 h 2.562035 2.562035 z"
   id="path584" /><path
   style="fill:#ff00ff;stroke-width:0.0488007"
   d="M 9.0769233,35.502482 V 21.033086 H 28.01158 46.946238 v 5.465674 5.465674 h -9.003723 -9.003722 v 9.003722 9.003723 H 19.007858 9.0769233 Z m 8.9793217,9.003722 v -3.513647 h -3.562448 -3.562449 v 3.513647 3.513648 h 3.562449 3.562448 z m 9.028123,0 V 40.992557 H 23.497519 19.91067 v 3.513647 3.513648 h 3.586849 3.586849 z m -9.028123,-9.003722 v -3.538048 h -3.562448 -3.562449 v 3.538048 3.538048 h 3.562449 3.562448 z m 9.028123,0 V 31.964434 H 23.497519 19.91067 v 3.538048 3.538048 h 3.586849 3.586849 z M 18.056245,26.49876 v -3.513648 h -3.562448 -3.562449 v 3.513648 3.513648 h 3.562449 3.562448 z m 9.028123,0 V 22.985112 H 23.497519 19.91067 v 3.513648 3.513648 h 3.586849 3.586849 z m 8.979322,0 v -3.513648 h -3.562449 -3.562448 v 3.513648 3.513648 h 3.562448 3.562449 z m 9.028122,0 v -3.513648 h -3.586848 -3.586849 v 3.513648 3.513648 h 3.586849 3.586848 z"
   id="path586" /><path
   style="fill:#ff00ff;stroke-width:0.0488007"
   d="m 37.811462,58.904982 c -0.215194,-0.04187 -0.499666,-0.248725 -0.63211,-0.459641 -0.07643,-0.121715 -0.09273,-0.219656 -0.07981,-0.479603 0.0138,-0.277502 0.03844,-0.354087 0.163801,-0.508972 0.241957,-0.298945 0.444916,-0.373904 1.152867,-0.425786 l 0.624317,-0.04575 0.0029,-0.590834 c 0.0016,-0.324959 0.02112,-1.161803 0.04339,-1.859652 0.03472,-1.08793 0.05881,-1.353516 0.168933,-1.862924 0.548684,-2.538043 1.918926,-4.648751 4.042347,-6.226798 0.288695,-0.214547 0.5249,-0.4182 0.5249,-0.452562 0,-0.03436 -0.236073,-0.234337 -0.524607,-0.44439 -0.579408,-0.421811 -1.531197,-1.317781 -1.962147,-1.847074 -1.003519,-1.232525 -1.71778,-2.72769 -2.074833,-4.343259 -0.120168,-0.543723 -0.133154,-0.719986 -0.181567,-2.464433 -0.02868,-1.033354 -0.05662,-1.884362 -0.0621,-1.891129 -0.0055,-0.0068 -0.309635,-0.03006 -0.675913,-0.05175 -0.640185,-0.03793 -0.672954,-0.04511 -0.846684,-0.185725 -0.367416,-0.297374 -0.480731,-0.576592 -0.395733,-0.97512 0.05838,-0.273708 0.375719,-0.621447 0.60986,-0.668276 0.08317,-0.01663 3.26608,-0.04377 7.073126,-0.0603 7.077344,-0.03073 11.389896,0.01268 11.648278,0.117268 0.445164,0.180191 0.625145,0.832422 0.356296,1.291177 -0.210243,0.358753 -0.375967,0.429645 -1.117405,0.477996 -0.350695,0.02287 -0.644711,0.04866 -0.653368,0.05732 -0.0087,0.0087 -0.03824,0.772017 -0.06573,1.696354 -0.0275,0.924337 -0.07199,1.83015 -0.09887,2.012917 -0.213717,1.452985 -0.804922,2.997075 -1.60376,4.188646 -0.706657,1.054072 -1.434299,1.813802 -2.505061,2.615529 -0.314115,0.235193 -0.572149,0.453003 -0.573407,0.484023 -0.0013,0.03102 0.211824,0.209725 0.473518,0.397122 1.918158,1.373582 3.277715,3.308852 3.932717,5.59805 0.25367,0.886563 0.323605,1.505303 0.37743,3.339222 0.02635,0.897945 0.05346,1.63817 0.06023,1.644945 0.0068,0.0068 0.287224,0.0326 0.623222,0.0574 0.674057,0.04974 0.823858,0.10227 1.060581,0.371882 0.385236,0.43876 0.296108,0.980815 -0.226857,1.379694 l -0.210639,0.160661 -9.134131,-0.0056 C 42.101672,58.94251 37.910379,58.92425 37.811459,58.905 Z m 15.234858,-3.21495 c 0,-1.416217 -0.05095,-2.128278 -0.201375,-2.814514 -0.520073,-2.37252 -2.123274,-4.434286 -4.343597,-5.585997 l -0.567719,-0.294483 h -0.933877 -0.933876 l -0.430693,0.216307 c -1.590998,0.799047 -3.011789,2.191245 -3.764924,3.689158 -0.292613,0.581979 -0.514749,1.178202 -0.686238,1.841902 -0.159312,0.61657 -0.162932,0.670055 -0.212954,3.146554 l -0.02242,1.110215 h 6.048839 6.048839 z M 48.213792,44.872845 c 0.949853,-0.478338 1.742503,-1.046993 2.426906,-1.741088 0.537962,-0.54558 0.665289,-0.702194 1.072147,-1.318751 0.577297,-0.874843 0.998795,-1.92692 1.191096,-2.973026 0.08593,-0.467437 0.106272,-0.81786 0.127903,-2.202882 l 0.02572,-1.647023 H 47.003102 40.94864 l 0.02242,1.110215 c 0.0471,2.331609 0.06023,2.545157 0.188358,3.062242 0.455175,1.836959 1.284239,3.202959 2.69353,4.43797 0.48827,0.427888 0.948766,0.739667 1.678063,1.136136 l 0.561208,0.305089 0.89183,6.44e-4 0.891831,6.45e-4 0.337905,-0.170167 z"
   id="path588" /></svg>
