<?xml version="1.0" encoding="UTF-8" standalone="no"?>
<svg
   version="1.1"
   width="256"
   height="256"
   viewBox="0 0 256 256"
   xml:space="preserve"
   id="svg4764"
   sodipodi:docname="facebook.svg"
   inkscape:version="1.2.1 (9c6d41e4, 2022-07-14)"
   xmlns:inkscape="http://www.inkscape.org/namespaces/inkscape"
   xmlns:sodipodi="http://sodipodi.sourceforge.net/DTD/sodipodi-0.dtd"
   xmlns="http://www.w3.org/2000/svg"
   xmlns:svg="http://www.w3.org/2000/svg"><sodipodi:namedview
   id="namedview4766"
   pagecolor="#ffffff"
   bordercolor="#000000"
   borderopacity="0.25"
   inkscape:showpageshadow="2"
   inkscape:pageopacity="0.0"
   inkscape:pagecheckerboard="0"
   inkscape:deskcolor="#d1d1d1"
   showgrid="false"
   inkscape:zoom="4.7226562"
   inkscape:cx="142.50455"
   inkscape:cy="64.899918"
   inkscape:window-width="1440"
   inkscape:window-height="847"
   inkscape:window-x="0"
   inkscape:window-y="25"
   inkscape:window-maximized="0"
   inkscape:current-layer="svg4764" />

<defs
   id="defs4758">
</defs>
<g
   style="stroke: none; stroke-width: 0; stroke-dasharray: none; stroke-linecap: butt; stroke-linejoin: miter; stroke-miterlimit: 10; fill: none; fill-rule: nonzero; opacity: 1;"
   transform="translate(1.4065934065934016 1.4065934065934016) scale(2.81 2.81)"
   id="g4762">
	<path
   d="M 51.214 90 c -0.478 0 -0.942 -0.171 -1.309 -0.487 c -0.439 -0.38 -0.691 -0.932 -0.691 -1.513 V 58.396 c 0 -1.104 0.896 -2 2 -2 h 8.612 l 1.04 -8.106 h -9.652 c -1.104 0 -2 -0.896 -2 -2 v -7.729 c 0 -3.389 0.826 -7.894 7.968 -7.894 l 4.377 -0.001 v -7.02 c -1.735 -0.14 -4.385 -0.287 -7.292 -0.287 c -8.446 0 -13.488 5.234 -13.488 14.002 v 8.928 c 0 1.104 -0.896 2 -2 2 H 30.38 v 8.106 h 8.398 c 1.104 0 2 0.896 2 2 v 29.603 c 0 0.581 -0.252 1.133 -0.692 1.513 c -0.439 0.38 -1.021 0.549 -1.597 0.467 C 16.547 86.78 0 67.542 0 45.228 C 0 20.289 20.187 0 45 0 c 24.813 0 45 20.289 45 45.228 c 0 22.317 -16.551 41.557 -38.498 44.752 C 51.406 89.993 51.31 90 51.214 90 z M 53.214 60.396 V 85.62 C 72.061 81.755 86 64.789 86 45.228 C 86 22.495 67.607 4 45 4 S 4 22.495 4 45.228 c 0 19.559 13.936 36.523 32.778 40.392 V 60.396 H 28.38 c -1.104 0 -2 -0.896 -2 -2 V 46.29 c 0 -1.104 0.896 -2 2 -2 h 8.398 v -6.928 c 0 -11.104 6.701 -18.002 17.488 -18.002 c 4.782 0 8.598 0.366 9.557 0.495 c 0.994 0.133 1.735 0.98 1.735 1.982 v 10.828 c 0 1.104 -0.895 2 -1.999 2 l -6.377 0.002 c -3.594 0 -3.969 1.187 -3.969 3.894 v 5.729 h 9.925 c 0.575 0 1.122 0.247 1.502 0.679 c 0.379 0.432 0.555 1.005 0.481 1.576 l -1.553 12.106 c -0.128 0.998 -0.978 1.745 -1.983 1.745 H 53.214 z"
   style="stroke: none; stroke-width: 1; stroke-dasharray: none; stroke-linecap: butt; stroke-linejoin: miter; stroke-miterlimit: 10; fill: rgb(0,0,0); fill-rule: nonzero; opacity: 1;"
   transform=" matrix(1 0 0 1 0 0) "
   stroke-linecap="round"
   id="path4760" />
</g>
<path
   style="fill:#0000ff;stroke-width:0.211745"
   d="M 10.834717,176.01324 C 9.0530825,171.73329 7.114055,165.94164 5.7482395,160.82051 0.71894605,141.96318 0.1884502,121.44412 4.2361966,102.33617 13.431478,58.928554 44.401977,23.507549 86.14121,8.6612845 c 17.56047,-6.2460984 37.1095,-8.44861573 56.04572,-6.3144651 36.93323,4.1624497 70.46071,24.9378156 91.20986,56.5183586 10.90831,16.602653 17.83681,35.881909 20.05132,55.794872 0.67884,6.10421 0.87807,16.5758 0.43156,22.68442 -0.92859,12.70413 -3.74726,25.18964 -8.37116,37.08068 l -1.21448,3.12324 h -6.0076 -6.00757 l 0.29663,-0.68817 c 0.16318,-0.3785 0.78077,-1.80915 1.37245,-3.17923 4.82508,-11.17267 7.99563,-24.29042 8.91712,-36.89356 0.31114,-4.25518 0.26352,-13.35938 -0.0925,-17.68073 C 241.496,103.60957 237.57004,89.706037 230.57524,75.910671 224.86073,64.640289 218.17345,55.433607 209.10862,46.356586 199.8872,37.122753 190.60474,30.430591 178.92473,24.595597 165.3533,17.815702 151.13821,13.929797 135.83458,12.816264 c -3.80822,-0.277095 -12.07268,-0.277095 -15.8809,0 C 95.37718,14.604515 73.122513,23.605309 53.98329,39.497675 50.450649,42.431024 42.135978,50.79537 39.36154,54.206783 29.387339,66.470924 22.56675,78.91668 18.020112,93.149192 9.5288342,119.72976 11.023744,149.34428 22.128181,174.53102 l 1.33031,3.01737 h -5.992364 -5.992365 z"
   id="path923" /><path
   style="fill:#0000ff;stroke-width:0.211745"
   d="m 104.8139,174.27272 v -3.27567 l -12.651782,-0.0593 -12.651778,-0.0593 -0.990201,-0.58209 c -1.273245,-0.74847 -2.148776,-1.82091 -2.5822,-3.16293 -0.307297,-0.95149 -0.344886,-2.97654 -0.344886,-18.57998 0,-19.73844 -0.05824,-18.95979 1.549328,-20.71218 0.487158,-0.53104 1.314526,-1.16517 1.838596,-1.40917 0.928156,-0.43214 1.275288,-0.44522 13.392887,-0.50457 l 12.440036,-0.0609 0.002,-10.6322 c 0.001,-5.84771 0.0979,-12.01384 0.21502,-13.7025 1.4956,-21.564276 12.48227,-36.869882 30.7806,-42.880673 3.31911,-1.090288 7.06224,-1.886481 11.05911,-2.352359 6.02444,-0.702213 29.87416,0.07962 34.38319,1.127131 1.57862,0.366737 3.0727,1.642018 3.79478,3.239064 0.42108,0.931308 0.43093,1.319466 0.43548,17.166581 0.005,17.760802 0.0363,17.289279 -1.24938,18.84909 -0.33384,0.405003 -1.11729,1.019019 -1.74099,1.364484 l -1.13402,0.628117 -11.9636,0.122825 c -12.63001,0.129666 -12.77701,0.141109 -14.92808,1.161854 -1.19256,0.565906 -2.35162,1.855756 -2.83962,3.160046 -0.67745,1.81064 -0.86588,4.87883 -0.86588,14.09851 v 8.65222 l 14.66335,0.0598 14.66336,0.0598 0.99958,0.49683 c 1.9509,0.96966 3.15983,2.83925 3.17023,4.90268 0.008,1.62298 -4.20396,34.38045 -4.58781,35.67907 -0.38901,1.31602 -1.32362,2.47021 -2.61496,3.22932 l -0.9902,0.58209 -12.65178,0.0593 -12.65177,0.0593 v 3.27567 3.27567 h -5.51883 -5.51882 l 0.0664,-6.72291 0.0664,-6.72291 0.65305,-1.1646 c 0.70968,-1.2656 2.09656,-2.37311 3.43843,-2.74581 0.489,-0.13581 5.39758,-0.2167 13.19512,-0.21744 l 12.41647,-0.001 0.12223,-0.68817 c 0.0672,-0.37849 0.69579,-5.21422 1.39682,-10.74607 0.70102,-5.53184 1.32723,-10.36376 1.39156,-10.73759 l 0.11696,-0.67968 -14.142,-0.0699 c -11.61058,-0.0574 -14.2936,-0.12424 -14.98898,-0.3734 -0.46584,-0.16693 -1.34093,-0.79377 -1.94464,-1.39299 -1.86093,-1.84707 -1.80932,-1.33795 -1.69969,-16.76668 0.0991,-13.94531 0.13771,-14.55701 1.1394,-18.04592 1.38617,-4.82806 4.83367,-8.780207 9.29171,-10.651834 4.18322,-1.756251 6.52428,-2.050077 16.34639,-2.051631 l 7.88751,-0.0012 V 77.742684 67.716963 l -2.17039,-0.132312 c -11.35025,-0.691938 -22.62769,-0.71606 -26.41522,-0.0565 -5.74953,1.001223 -10.67726,2.847568 -14.61042,5.474309 -8.40785,5.61514 -13.16258,13.909362 -14.96195,26.099851 -0.28162,1.907899 -0.3661,5.165169 -0.47215,18.204559 l -0.12917,15.88089 -0.58702,0.99861 c -0.64165,1.09155 -1.52048,1.85269 -2.81231,2.4357 -0.76525,0.34537 -1.88255,0.38248 -13.275611,0.44096 l -12.440033,0.0639 v 11.41695 11.41694 l 12.651778,0.0593 c 12.510066,0.0587 12.661266,0.0644 13.498756,0.51719 1.12562,0.60849 2.10281,1.65777 2.63019,2.82418 0.40338,0.89216 0.43111,1.37431 0.43547,7.56989 l 0.005,6.61704 h -5.50538 -5.50537 z"
   id="path925" /><path
   style="fill:#0000ff;stroke-width:0.211745"
   d="m 143.49529,253.88745 c -1.23763,-0.47537 -2.32385,-1.44477 -3.01313,-2.68908 l -0.62442,-1.12723 -0.0559,-36.26138 -0.0559,-36.26137 h 5.50834 5.50835 v 32.29115 c 0,17.76013 0.0408,32.29115 0.0906,32.29115 0.40194,0 6.27854,-1.4659 8.86644,-2.21171 6.86233,-1.97766 12.42812,-4.16769 19.20504,-7.55683 11.46104,-5.73164 20.73084,-12.43113 29.97758,-21.66544 8.91445,-8.90246 15.61476,-18.08346 21.52605,-29.49572 l 1.89196,-3.6526 h 5.92525 5.92524 l -0.14765,0.47643 c -0.67581,2.18074 -5.3011,11.2349 -8.14412,15.94238 -18.72721,31.0086 -49.61812,52.65474 -84.59636,59.27908 -4.84105,0.91682 -6.67633,1.06792 -7.78739,0.64117 z"
   id="path927" /><path
   style="fill:#0000ff;stroke-width:0.211745"
   d="M 106.50786,253.65822 C 94.37618,251.42254 83.753562,247.99866 73.4756,243.01127 49.235699,231.24884 29.301363,212.0207 16.474782,188.02978 c -1.288053,-2.40919 -3.981099,-7.97097 -4.690664,-9.68735 l -0.328265,-0.79404 h 6.013749 6.013749 l 0.823746,1.7469 c 1.182016,2.50667 3.922963,7.43469 5.9481,10.69425 7.397864,11.9072 17.914818,23.3123 29.345881,31.8241 13.410398,9.98566 27.471777,16.34054 44.736392,20.21811 l 0.47643,0.10701 v -32.29519 -32.29518 h 5.50537 5.50538 l -0.005,36.1555 c -0.005,35.90214 -0.008,36.16218 -0.43547,37.10835 -0.53273,1.17826 -1.51856,2.23 -2.62396,2.79938 -1.24094,0.6392 -2.96722,0.65207 -6.25271,0.0466 z"
   id="path929" /></svg>
