<?xml version="1.0" encoding="UTF-8" standalone="no"?>
<svg
   version="1.1"
   width="256"
   height="256"
   viewBox="0 0 256 256"
   xml:space="preserve"
   id="svg4764"
   sodipodi:docname="facebook.svg"
   inkscape:version="1.2.1 (9c6d41e4, 2022-07-14)"
   xmlns:inkscape="http://www.inkscape.org/namespaces/inkscape"
   xmlns:sodipodi="http://sodipodi.sourceforge.net/DTD/sodipodi-0.dtd"
   xmlns="http://www.w3.org/2000/svg"
   xmlns:svg="http://www.w3.org/2000/svg"><sodipodi:namedview
   id="namedview4766"
   pagecolor="#ffffff"
   bordercolor="#000000"
   borderopacity="0.25"
   inkscape:showpageshadow="2"
   inkscape:pageopacity="0.0"
   inkscape:pagecheckerboard="0"
   inkscape:deskcolor="#d1d1d1"
   showgrid="false"
   inkscape:zoom="4.7226562"
   inkscape:cx="128"
   inkscape:cy="128"
   inkscape:window-width="2557"
   inkscape:window-height="1387"
   inkscape:window-x="0"
   inkscape:window-y="25"
   inkscape:window-maximized="0"
   inkscape:current-layer="svg4764" />

<defs
   id="defs4758">
</defs>
<g
   style="stroke: none; stroke-width: 0; stroke-dasharray: none; stroke-linecap: butt; stroke-linejoin: miter; stroke-miterlimit: 10; fill: none; fill-rule: nonzero; opacity: 1;"
   transform="translate(1.4065934065934016 1.4065934065934016) scale(2.81 2.81)"
   id="g4762">
	<path
   d="M 51.214 90 c -0.478 0 -0.942 -0.171 -1.309 -0.487 c -0.439 -0.38 -0.691 -0.932 -0.691 -1.513 V 58.396 c 0 -1.104 0.896 -2 2 -2 h 8.612 l 1.04 -8.106 h -9.652 c -1.104 0 -2 -0.896 -2 -2 v -7.729 c 0 -3.389 0.826 -7.894 7.968 -7.894 l 4.377 -0.001 v -7.02 c -1.735 -0.14 -4.385 -0.287 -7.292 -0.287 c -8.446 0 -13.488 5.234 -13.488 14.002 v 8.928 c 0 1.104 -0.896 2 -2 2 H 30.38 v 8.106 h 8.398 c 1.104 0 2 0.896 2 2 v 29.603 c 0 0.581 -0.252 1.133 -0.692 1.513 c -0.439 0.38 -1.021 0.549 -1.597 0.467 C 16.547 86.78 0 67.542 0 45.228 C 0 20.289 20.187 0 45 0 c 24.813 0 45 20.289 45 45.228 c 0 22.317 -16.551 41.557 -38.498 44.752 C 51.406 89.993 51.31 90 51.214 90 z M 53.214 60.396 V 85.62 C 72.061 81.755 86 64.789 86 45.228 C 86 22.495 67.607 4 45 4 S 4 22.495 4 45.228 c 0 19.559 13.936 36.523 32.778 40.392 V 60.396 H 28.38 c -1.104 0 -2 -0.896 -2 -2 V 46.29 c 0 -1.104 0.896 -2 2 -2 h 8.398 v -6.928 c 0 -11.104 6.701 -18.002 17.488 -18.002 c 4.782 0 8.598 0.366 9.557 0.495 c 0.994 0.133 1.735 0.98 1.735 1.982 v 10.828 c 0 1.104 -0.895 2 -1.999 2 l -6.377 0.002 c -3.594 0 -3.969 1.187 -3.969 3.894 v 5.729 h 9.925 c 0.575 0 1.122 0.247 1.502 0.679 c 0.379 0.432 0.555 1.005 0.481 1.576 l -1.553 12.106 c -0.128 0.998 -0.978 1.745 -1.983 1.745 H 53.214 z"
   style="stroke: none; stroke-width: 1; stroke-dasharray: none; stroke-linecap: butt; stroke-linejoin: miter; stroke-miterlimit: 10; fill: rgb(0,0,0); fill-rule: nonzero; opacity: 1;"
   transform=" matrix(1 0 0 1 0 0) "
   stroke-linecap="round"
   id="path4760" />
</g>
<path
   style="fill:#ee4bc8;fill-opacity:1;stroke-width:0.211745"
   d="m 144.33546,254.05694 c -1.86099,-0.32257 -3.54289,-1.73593 -4.17562,-3.50896 -0.42104,-1.17982 -0.42104,-85.74244 0,-86.92227 0.41797,-1.17122 1.27691,-2.19039 2.40482,-2.85341 l 0.99862,-0.58702 13.02233,-0.10588 13.02233,-0.10587 1.41732,-10.90488 c 0.77952,-5.99768 1.4227,-11.16435 1.42928,-11.48148 l 0.012,-0.57661 -14.34574,-0.0586 c -14.27582,-0.0583 -14.34994,-0.0609 -15.20716,-0.51972 -1.13162,-0.60572 -2.27297,-1.89079 -2.72079,-3.06339 -0.32883,-0.86103 -0.35315,-2.1619 -0.28065,-15.0135 l 0.0794,-14.07079 0.5679,-2.32338 c 0.36137,-1.47845 0.95971,-3.125568 1.64529,-4.529208 0.9296,-1.903242 1.32905,-2.455919 2.91194,-4.028976 2.61004,-2.593827 4.75697,-3.762086 8.79435,-4.785468 2.94925,-0.747565 5.90647,-0.954967 13.61625,-0.954967 h 7.05669 v -9.927358 -9.92736 l -1.3234,-0.130071 c -3.6967,-0.363334 -10.32597,-0.614699 -16.78081,-0.636286 -5.95694,-0.01993 -7.63396,0.04186 -9.71782,0.358019 -15.77829,2.393837 -26.00103,11.67462 -29.55,26.827159 -1.11619,4.76565 -1.12841,4.982067 -1.26189,22.339126 l -0.12538,16.30438 -0.63524,1.14778 c -0.72867,1.31661 -2.10419,2.42268 -3.42875,2.7571 -0.57317,0.14471 -5.16952,0.22415 -12.969396,0.22415 H 86.709677 v 11.54012 11.54011 h 12.309594 c 9.045819,0 12.540679,0.0683 13.181139,0.25751 0.55054,0.16266 1.27455,0.65807 1.96571,1.34504 1.92754,1.91585 1.7644,-2.28234 1.7644,45.4049 0,36.71262 -0.0403,42.196 -0.31664,43.12666 -0.40183,1.35314 -1.69551,2.83781 -3.01403,3.45901 -0.89132,0.41993 -1.23421,0.46213 -2.91581,0.35884 -3.47596,-0.21348 -11.867713,-2.04505 -18.299597,-3.99406 C 63.602639,241.61879 38.953616,223.109 22.672707,198.43935 10.456852,179.92927 3.3809524,159.07835 1.8090973,136.95949 1.5278705,133.00212 1.5254349,123.80665 1.8045931,119.95368 3.3157387,99.0967 9.2388659,80.378236 19.962416,62.57072 32.007693,42.568349 50.135135,25.740775 71.040529,15.15528 85.89521,7.6335778 100.84039,3.4120311 118.04797,1.877149 c 3.94803,-0.3521557 15.46053,-0.3521567 19.58644,-1.7e-6 30.88213,2.6358564 58.57423,15.6213747 80.04398,37.5346247 8.39978,8.573315 14.76258,17.054212 20.47282,27.28798 17.23611,30.890169 20.76456,68.139588 9.61277,101.480588 -13.88744,41.51991 -48.03301,73.33237 -89.69616,83.56741 -6.85246,1.68338 -12.17708,2.57876 -13.73236,2.30919 z m -39.41569,-47.49152 v -35.45939 l -12.545907,-0.0609 -12.545906,-0.0609 -1.084081,-0.57189 c -1.213675,-0.64025 -2.075044,-1.55574 -2.649551,-2.81603 -0.364077,-0.79867 -0.3861,-1.88565 -0.3861,-19.05707 0,-17.85999 0.0083,-18.22841 0.430821,-19.16295 0.578339,-1.27912 1.561083,-2.27587 2.84193,-2.88242 l 1.058726,-0.50136 12.440033,-0.002 12.440035,-0.002 1.8e-4,-11.69892 c 2.1e-4,-14.390192 0.2273,-17.32259 1.84063,-23.768406 3.46685,-13.851232 11.73153,-24.196438 23.85064,-29.854711 5.31014,-2.479245 11.45285,-3.992304 18.5633,-4.572474 6.18949,-0.505025 27.13483,0.351896 31.90512,1.305308 2.04051,0.407826 3.87013,2.23786 4.29802,4.298981 0.15688,0.755698 0.21114,6.15467 0.1706,16.977071 l -0.0594,15.869082 -0.62811,1.134013 c -0.34547,0.623708 -0.95948,1.407153 -1.36449,1.74099 -1.49891,1.235527 -1.68449,1.253867 -12.70847,1.255766 -12.77224,0.0022 -14.83284,0.214549 -17.0885,1.76099 -1.26688,0.86854 -2.29955,2.76488 -2.61463,4.80138 -0.11939,0.77167 -0.21365,5.62987 -0.21454,11.05814 l -0.002,9.6818 14.76923,0.0585 c 14.68188,0.0581 14.77424,0.0612 15.61621,0.51635 1.6709,0.90328 2.7973,2.50947 2.99087,4.26485 0.0694,0.6295 -0.71546,7.39904 -2.13885,18.44755 -2.44615,18.98726 -2.42047,18.85548 -3.94292,20.23093 -1.72298,1.5566 -1.00695,1.4819 -14.85451,1.54973 l -12.44003,0.0609 v 35.45933 c 1e-4,33.69681 0.0186,35.45933 0.3725,35.45933 0.8813,0 8.53083,-2.04524 12.22644,-3.26898 15.49902,-5.13218 28.88115,-12.90712 41.07858,-23.86644 17.92948,-16.10954 30.64106,-37.85553 35.87614,-61.37409 3.54201,-15.9125 3.61688,-33.15783 0.21372,-49.22095 C 232.06021,63.817247 202.42713,30.858604 163.14971,18.11245 141.28921,11.018366 117.46457,10.71661 95.308548,17.253194 80.22885,21.702084 66.329553,29.201223 53.808496,39.643872 50.47764,42.421828 42.511131,50.406332 39.712666,53.771544 25.241695,71.173171 16.177094,91.947698 13.468401,113.91894 c -1.184,9.60387 -1.185289,19.53478 -0.0038,29.0091 3.102064,24.8746 14.46642,48.43461 32.06059,66.4664 13.335288,13.66698 28.64174,23.34166 46.266336,29.2434 3.307533,1.10754 11.767823,3.36798 12.651773,3.38033 l 0.47643,0.007 z"
   id="path5131" /><path
   style="fill:#ff00ff;stroke-width:0.211745"
   d="m 143.76854,253.75823 c -1.18736,-0.35261 -2.60877,-1.5426 -3.22994,-2.70405 l -0.46912,-0.87717 v -43.09016 -43.09016 l 0.45787,-0.84698 c 0.25183,-0.46584 0.7759,-1.1395 1.1646,-1.49702 1.52048,-1.39851 0.53647,-1.30136 14.92363,-1.47331 l 13.13623,-0.15699 0.21685,-1.82426 c 0.11927,-1.00335 0.76806,-6.13765 1.44176,-11.40956 0.67369,-5.27191 1.16064,-9.64955 1.08211,-9.72808 -0.0785,-0.0785 -6.59593,-0.19634 -14.48309,-0.26179 -15.96378,-0.13246 -14.85673,-0.0227 -16.41605,-1.62806 -1.62199,-1.66992 -1.52555,-0.6034 -1.50996,-16.69917 l 0.0139,-14.39868 0.57737,-2.11745 c 0.90514,-3.319568 2.38158,-6.192693 4.0998,-7.978158 2.63384,-2.736918 5.08988,-4.168629 8.80856,-5.134822 2.85177,-0.740954 5.22738,-0.931239 13.6427,-1.092777 l 7.46402,-0.143278 v -9.914319 -9.914317 l -0.68817,-0.115318 c -3.13261,-0.524934 -21.48114,-0.940552 -25.28194,-0.572667 -9.00393,0.871499 -16.9053,4.352609 -22.39802,9.867904 -2.70191,2.713007 -4.47037,5.208353 -6.16102,8.693364 -1.56358,3.223057 -2.62571,6.410263 -3.39783,10.196093 -0.70675,3.465291 -0.91251,9.057595 -0.92984,25.271235 l -0.0123,11.54012 -0.6208,1.08236 c -0.70924,1.23657 -1.64672,2.10007 -2.86902,2.64263 -0.76608,0.34005 -2.03518,0.39054 -13.287016,0.52862 l -12.440033,0.15265 v 11.47331 11.47331 l 12.401258,0.14806 c 6.820691,0.0814 12.675291,0.20287 13.010221,0.26986 0.80565,0.16113 2.78221,1.84972 3.14114,2.68349 0.59471,1.38148 0.68632,8.31276 0.62468,47.26041 -0.0696,43.94651 0.0783,39.99135 -1.56246,41.80744 -1.36401,1.50979 -2.13505,1.77697 -4.73948,1.6423 -4.20646,-0.21751 -13.417106,-2.36477 -21.07554,-4.91332 C 64.273758,240.87966 42.926764,225.4613 27.370589,204.82699 7.560486,178.55011 -1.3409708,145.7897 2.5545506,113.49545 5.5428022,88.72256 15.378482,66.010613 31.419952,46.841237 49.046772,25.777388 73.739319,10.670587 100.21746,4.7512019 c 8.79626,-1.9664694 15.93683,-2.8266829 24.81811,-2.9897976 9.8964,-0.1817586 16.37871,0.3174248 25.30355,1.9485522 30.06881,5.4954517 56.73556,21.5626435 76.25385,45.9443035 10.64469,13.29703 18.93009,29.879188 23.27597,46.583954 8.49082,32.636986 3.98788,66.101046 -12.84146,95.432446 -14.80709,25.80689 -38.84133,46.10172 -66.52433,56.17402 -6.24095,2.27073 -13.98266,4.34461 -20.48164,5.48668 -3.92299,0.68938 -5.09875,0.76965 -6.25297,0.42687 z m -38.7429,-47.16749 v -35.43408 l -3.52761,-0.13912 c -1.94019,-0.0765 -7.622245,-0.13913 -12.626788,-0.13913 -8.942053,0 -9.1124,-0.008 -9.865273,-0.45674 -1.127943,-0.67247 -2.118994,-1.65456 -2.637427,-2.61356 l -0.457871,-0.84698 v -18.42184 c 0,-17.42818 0.0209,-18.46386 0.387591,-19.20094 0.54662,-1.09877 1.686578,-2.20849 2.900671,-2.82371 l 1.038436,-0.52622 h 12.394138 12.394133 l 0.004,-10.42845 c 0.006,-15.40381 0.31036,-19.169534 2.09358,-25.903132 3.30457,-12.478349 10.91459,-22.282649 21.66899,-27.917042 5.33381,-2.794468 11.16973,-4.485177 18.37067,-5.322124 5.14968,-0.598534 21.07387,-0.249302 30.38544,0.666377 3.88124,0.381675 4.89121,0.716697 6.20445,2.058116 1.73032,1.767437 1.62193,0.565071 1.69606,18.815983 0.0656,16.150341 0.0636,16.238933 -0.37973,17.10797 -0.56536,1.108204 -1.8,2.480928 -2.60646,2.89796 -0.83949,0.434122 -1.96653,0.490067 -14.23111,0.706448 -11.60836,0.204804 -12.43244,0.291181 -14.31732,1.500704 -1.13319,0.72717 -1.94625,1.85291 -2.56934,3.55744 -0.4121,1.12735 -0.44054,1.75488 -0.53126,11.72543 l -0.0959,10.53432 0.49883,0.0262 c 0.27435,0.0144 6.97823,0.0859 14.8975,0.15881 l 14.39867,0.13263 1.02223,0.60085 c 1.07866,0.63403 2.11304,2.00993 2.46249,3.27552 0.21599,0.78228 -0.0639,3.65737 -1.36594,14.03263 -2.14222,17.06967 -2.92024,22.29709 -3.53181,23.72974 -0.42763,1.00175 -1.56364,2.09349 -2.65187,2.54854 -0.41302,0.1727 -4.1349,0.29467 -12.23948,0.40109 -6.40529,0.0841 -12.05095,0.16256 -12.54591,0.17434 l -0.89991,0.0214 0.001,33.72043 c 6.3e-4,18.54624 0.0625,34.50653 0.13725,35.46733 0.16347,2.09983 -0.0261,2.04414 3.73821,1.09813 9.51348,-2.3909 17.09283,-5.21753 25.44998,-9.49127 22.42718,-11.46893 40.27435,-29.82625 51.57373,-53.04797 9.62027,-19.77088 13.30256,-41.5805 10.78224,-63.86144 C 239.90025,92.475876 230.798,71.36244 215.97111,53.566338 213.14759,50.177387 205.63031,42.638871 202.21671,39.773071 194.83144,33.572963 188.1169,29.148937 179.4541,24.775403 168.014,18.999717 156.7848,15.446019 144.36527,13.670869 138.78914,12.873861 136.34116,12.682222 130.11745,12.555488 117.99429,12.308623 107.31133,13.704265 95.708851,17.050693 80.708056,21.377275 66.259678,29.094851 54.10091,39.275506 48.982134,43.561507 41.28158,51.465874 37.534242,56.28065 20.448271,78.233592 11.905145,103.82362 12.566015,131.07031 c 0.19389,7.99378 0.750361,13.05229 2.259461,20.53929 3.796298,18.83431 12.322949,36.46362 24.991388,51.67105 2.814029,3.37801 10.53944,11.12706 13.966429,14.00917 10.962957,9.21987 22.477422,15.8886 35.573201,20.60253 4.460538,1.60563 13.453556,4.09611 14.875106,4.11942 l 0.79404,0.013 z"
   id="path655" /></svg>
