<?xml version="1.0" ?><svg viewBox="0 0 64 64" xmlns="http://www.w3.org/2000/svg"><g id="workhome-virus-covid19-coronavirus-home"><path d="M24,32a2,2,0,0,1,2,2v2h6V26H16V36h6V34A2,2,0,0,1,24,32Z" style="fill:#9bc9ff"/><polygon points="22 39 14 39 14 43 17 43 20 43 44 43 47 43 50 43 50 39 48 39 36 39 26 39 22 39" style="fill:#9bc9ff"/><polygon points="17 43 17 57 20 57 20 55 20 43 17 43" style="fill:#9bc9ff"/><polygon points="44 55 44 57 47 57 47 43 44 43 44 55" style="fill:#9bc9ff"/><path d="M48,36a4,4,0,0,0-4-4H40a4,4,0,0,0-4,4v3H48Z" style="fill:#9bc9ff"/><rect height="12" style="fill:#9bc9ff" width="24" x="20" y="43"/><polygon points="3 22 3 28 8 24.724 8 24.72 8 24.724 32 9 56 24.724 56 24.72 56 24.724 61 28 61 22 32 3 3 22" style="fill:#9bc9ff"/><path d="M46,27a4,4,0,1,0-4,4A4,4,0,0,0,46,27Zm-4,2a2,2,0,1,1,2-2A2,2,0,0,1,42,29Z" style="fill:#1e81ce"/><path d="M61.55,21.16l-29-19a1.039,1.039,0,0,0-1.1,0l-29,19A1.013,1.013,0,0,0,2,22v6a.994.994,0,0,0,.52.88,1.025,1.025,0,0,0,1.03-.04L7,26.57V61a1,1,0,0,0,1,1H56a1,1,0,0,0,1-1V26.57l3.45,2.27A1,1,0,0,0,61,29a1.034,1.034,0,0,0,.48-.12A.994.994,0,0,0,62,28V22A1.013,1.013,0,0,0,61.55,21.16ZM55,60H9V25.26L32,10.2,55,25.26Zm5-33.85L32.55,8.16a1.025,1.025,0,0,0-1.1,0L4,26.15V22.54L32,4.2,60,22.54Z" style="fill:#1e81ce"/><path d="M50,38H49V36a5,5,0,0,0-5-5H40a5,5,0,0,0-5,5v2H27V37h5a1,1,0,0,0,1-1V26a1,1,0,0,0-1-1H16a1,1,0,0,0-1,1V36a1,1,0,0,0,1,1h5v1H14a1,1,0,0,0-1,1v4a1,1,0,0,0,1,1h2V57a1,1,0,0,0,1,1h3a1,1,0,0,0,1-1V56H43v1a1,1,0,0,0,1,1h3a1,1,0,0,0,1-1V44h2a1,1,0,0,0,1-1V39A1,1,0,0,0,50,38ZM37,36a3.009,3.009,0,0,1,3-3h4a3.009,3.009,0,0,1,3,3v2H37ZM17,35V27H31v8H27V34a3,3,0,0,0-6,0v1Zm8-1v4H23V34a1,1,0,0,1,2,0ZM19,56H18V44h1Zm24-2H21V44H43Zm3,2H45V44h1Zm3-14H15V40H49Z" style="fill:#1e81ce"/></g></svg>