<?xml version="1.0" encoding="utf-8"?>
<!-- Generator: Adobe Illustrator 24.1.1, SVG Export Plug-In . SVG Version: 6.00 Build 0)  -->
<svg version="1.1" id="Layer_1" xmlns="http://www.w3.org/2000/svg" xmlns:xlink="http://www.w3.org/1999/xlink" x="0px" y="0px"
	 viewBox="0 0 512 512" style="enable-background:new 0 0 512 512;" xml:space="preserve">
<style type="text/css">
	.st0{fill:#D34A47;}
	.st1{fill:#FFFFFF;}
</style>
<g>
	<path class="st0" d="M318.6,496.6l4.9-81.9l13.6-23.2c0,0-30.9,12.6-82.6,12.6c-51.7,0-82.1-12.4-82.1-12.4l15.2,25.3l5.4,79.5
		c0,8.5,28.1,15.4,62.8,15.4C290.5,512,318.6,505.1,318.6,496.6"/>
	<path class="st0" d="M303.1,114.3l10.3-40.8l57.1-60.1l-15-12.8l-60.5,64l-12,48.7c-8.7-0.3-17.7-0.4-27-0.4
		c-63.7,0-115.3,7.3-115.3,16.2c0,8.9,51.6,16.2,115.3,16.2c63.7,0,115.3-7.3,115.3-16.2C371.3,122.5,343.3,116.9,303.1,114.3"/>
	<path class="st1" d="M297.1,137.1c0,0-2.2,0.5-8.8,0.5c-6.6,0-11.2,0-13.1-1.7c-0.5-0.5-0.8-1.4-0.8-2c0-1.2,0.8-1.8,1.9-2.3l1,1.6
		c-0.4,0.1-0.7,0.3-0.7,0.5c0,0.9,6.7,1.5,11.9,1.4c5.1-0.1,11.4-0.5,11.4-1.4c0-0.3-0.5-0.5-1.3-0.7l1-1.5c1.3,0.4,2.5,1.2,2.5,2.6
		C302,136.5,299,136.9,297.1,137.1"/>
	<path class="st0" d="M370.4,13.6c1.4-1.7-0.7-5.9-4.9-9.5c-4.1-3.6-8.6-5.1-10.1-3.5c-1.4,1.7,0.7,5.9,4.9,9.5
		C364.5,13.7,369,15.3,370.4,13.6"/>
	<path class="st0" d="M315.9,296.6c-1.4-13,28.5-31.9,20.8-32.5c-16.5,0.9-24.7,19.3-33,38.6c-3,7.1-13.4,37.1-20.3,33.4
		c-6.8-3.7,8.8-28.4,13.2-43.1c-5.1,3.7-23.6,18.1-28.4,4.6c-7.7,6.5-24.1,10.1-22.3-7.1c-4.1,7.3-13.3,17.4-24.3,13.2
		c-14.5-5.5,8.4-51.7,14.1-49.3c5.7,2.3-1.1,12.8-2.9,16.9c-3.9,9-8.5,20.3-5.4,22.6c5.2,4,19.4-15,19.7-15.4
		c2.6-3.5,10.2-26.4,16.3-23.8c6.1,2.6-15.2,32.9-7.2,38.9c1.6,1.2,8.2-0.7,12.2-5.1c2.6-2.8,1.7-9,10.3-29.5
		c8.6-20.5,16.3-46.1,22.2-44.1c5.9,1.9,1,15.1-1.1,20c-9.9,22.9-27.1,60.9-19,58c8.1-2.9,12.3-3,20.3-12.3
		c7.9-9.3,7.6-24.6,12.9-24.3c5.3,0.3,4.4,5.2,3.1,9c5.2-6,24.7-18.5,29.4-6.1c5.6,14.7-27.9,36-19.5,34.9c8.1-1.1,21.3-9.4,26.9-17
		L369.1,138c0,0-15.6,12.9-114.6,12.9c-99,0-113-12.6-113-12.6l13.2,126.9c7-19.9,23.6-60,49.8-58.7c11.9,0.6,27.8,23.5,14.2,24.3
		c-5.8,0.3-6.3-11.4-13.2-13.2c-4.9-1.2-11.8,2.8-16.2,7.1c-8.8,8.6-27.8,42.8-25.3,59.8c3.2,21.7,29.9-7.5,34.4-16.2
		c3.2-6.1,5.3-24.2,12.3-22.3c7,1.9-0.6,20.6-5.7,37.1c-5.7,18.5-8.7,38.1-15.8,35.9c-7.1-2.2,4.5-26.2,4.1-30.4
		c-6.7,6.2-19,21.8-34.7,14l8.2,78.8c0,0,21.7,17.2,87.2,17.2c65.5,0,88-16.9,88-16.9l10.2-91.3
		C343.8,298.5,317.5,312.8,315.9,296.6"/>
</g>
</svg>
