<?xml version="1.0" encoding="utf-8"?>
<!-- Generator: Adobe Illustrator 24.1.1, SVG Export Plug-In . SVG Version: 6.00 Build 0)  -->
<svg version="1.1" id="Layer_1" xmlns="http://www.w3.org/2000/svg" xmlns:xlink="http://www.w3.org/1999/xlink" x="0px" y="0px"
	 viewBox="0 0 512 512" style="enable-background:new 0 0 512 512;" xml:space="preserve">
<style type="text/css">
	.st0{fill:#444444;}
</style>
<g>
	<path class="st0" d="M261.3,432.5c-3.4-0.8-6.7-1.8-10-2.8l-2.5-0.8c-3.3-1-6.5-2-9.7-3.2l-1.3-0.5c-2.9-1-5.7-2.1-8.5-3.2
		l-2.4-0.9c-3.1-1.2-6.2-2.5-9.2-3.8l-1.8-0.8c-2.6-1.2-5.2-2.4-7.8-3.6l-2.2-1.1l-6-3l-4-2.1c-2.4-1.3-4.8-2.7-7.2-4l-2.4-1.3
		c-3.2-1.8-6.3-3.8-9.4-5.7l-2.5-1.7c-2.3-1.4-4.5-2.9-6.7-4.4l-2.1-1.5c-2.1-1.5-4.2-3-6.3-4.6l-2.8-2.1l-5.7-4.5l-2.5-2
		c-2.4-2-4.8-3.9-7.1-6l-0.8-0.6c-2.5-2.2-5-4.5-7.5-6.8l-2.1-2l-5.3-5.3l-2.1-2.1c-2.2-2.3-4.4-4.6-6.6-7l-0.3-0.3
		c-2.3-2.5-4.5-5-6.7-7.6l-1.8-2.1l-4.8-5.9l-1.8-2.2c-1.9-2.5-3.7-4.9-5.5-7.4c-50-68.1-67.9-162.1-28-239.3l-35.4,44.9
		c-45.3,65.2-39.7,150-5.1,219.2l2.5,4.9l1.6,3.1l1,1.8l1.8,3.2l3.3,5.7l1.9,3.1l3.8,6l1.6,2.5c1.8,2.7,3.7,5.4,5.6,8l0.2,0.2
		l0.9,1.3c1.6,2.3,3.3,4.5,5.1,6.7l1.9,2.4l4.7,5.8l1.8,2.1c2.1,2.5,4.3,5,6.5,7.5l0.1,0.1l0.2,0.3c2.2,2.4,4.4,4.7,6.6,7l2.1,2.1
		l5.3,5.2l2.2,2.1c2.4,2.3,4.8,4.5,7.3,6.6l0.1,0.1l1.3,1.1c2.2,1.9,4.4,3.7,6.6,5.6l2.7,2.2l5.5,4.3l2.9,2.2c2,1.5,4.1,3,6.2,4.4
		l2.3,1.6l0.6,0.4l6,4l2.6,1.7c3.1,2,6.2,3.9,9.4,5.8l2.6,1.5c2.3,1.3,4.7,2.7,7,4l3.9,2l5,2.6l1.2,0.6l2.1,1c2.6,1.2,5.3,2.5,8,3.7
		l1.7,0.7c3.1,1.3,6.2,2.6,9.3,3.9l2.3,0.9c2.9,1.1,5.8,2.2,8.8,3.3l1.1,0.4c3.2,1.1,6.5,2.2,9.8,3.2l2.4,0.7
		c3.3,1,6.7,2.2,10.1,2.8c219.3,40,283-131.8,283-131.8C446.3,434.6,351.3,453,261.3,432.5L261.3,432.5z M182.3,254.7
		c4.9,7.1,10.4,15.4,16.9,21.1c2.4,2.6,4.9,5.1,7.4,7.6l1.9,1.9c2.5,2.4,4.9,4.7,7.5,7l0.3,0.3l0.1,0.1c2.8,2.5,5.8,4.9,8.8,7.3
		l2,1.6c3,2.3,6,4.6,9.2,6.7l0.3,0.2l4.2,2.8l2,1.3c2.2,1.4,4.5,2.8,6.8,4.2l1,0.5l6,3.4l2.1,1.1l4.2,2.2l0.6,0.3
		c2.9,1.4,5.8,2.8,8.8,4.1l1.9,0.8c2.4,1,4.8,2,7.2,2.9l3.1,1.1c2.2,0.8,4.4,1.6,6.6,2.3l3,1c3.2,1,6.3,2.2,9.5,2.8
		C472.9,367.2,512,236.8,512,236.8c-35.2,50.8-103.5,74.9-176.3,56c-3.2-0.9-6.4-1.8-9.6-2.8l-2.9-0.9c-2.2-0.7-4.5-1.5-6.7-2.3
		l-3-1.1c-2.4-0.9-4.8-1.9-7.2-2.9l-2-0.8c-3-1.3-5.9-2.7-8.8-4.1l-4.4-2.2l-2.6-1.3l-5.6-3.2l-1.3-0.7c-2.3-1.3-4.6-2.7-6.8-4.1
		l-2-1.4l-4.4-2.9c-3.1-2.2-6.2-4.4-9.1-6.7l-2.1-1.6c-31.9-25.2-57.1-59.5-69.1-98.6c-12.6-40.4-9.9-85.8,11.9-122.7l-26.8,37.8
		c-32.8,47.2-31,110.4-5.4,160.3C172,238.9,176.8,247,182.3,254.7L182.3,254.7z M360.7,196.3l4.2,1.5l1.9,0.6l6,1.7
		c93.5,18.1,118.8-48,125.6-57.7c-22.2,32-59.5,39.7-105.3,28.5c-3.6-0.9-7.6-2.2-11.1-3.4c-4.5-1.6-8.9-3.4-13.2-5.5
		c-8.1-3.9-15.9-8.6-23.1-14.1c-41-31.1-66.4-90.4-39.7-138.7l-14.5,19.9c-19.3,28.4-21.2,63.8-7.8,95.2
		C297.9,157.8,326.9,183.9,360.7,196.3L360.7,196.3z"/>
</g>
</svg>
