<?xml version="1.0" encoding="UTF-8" standalone="no"?>
<svg
   version="1.1"
   width="256"
   height="256"
   viewBox="0 0 256 256"
   xml:space="preserve"
   id="svg6293"
   sodipodi:docname="location.svg"
   inkscape:version="1.2.1 (9c6d41e4, 2022-07-14)"
   xmlns:inkscape="http://www.inkscape.org/namespaces/inkscape"
   xmlns:sodipodi="http://sodipodi.sourceforge.net/DTD/sodipodi-0.dtd"
   xmlns="http://www.w3.org/2000/svg"
   xmlns:svg="http://www.w3.org/2000/svg"><sodipodi:namedview
   id="namedview6295"
   pagecolor="#ffffff"
   bordercolor="#000000"
   borderopacity="0.25"
   inkscape:showpageshadow="2"
   inkscape:pageopacity="0.0"
   inkscape:pagecheckerboard="0"
   inkscape:deskcolor="#d1d1d1"
   showgrid="false"
   inkscape:zoom="4.7226562"
   inkscape:cx="128"
   inkscape:cy="128"
   inkscape:window-width="2557"
   inkscape:window-height="1387"
   inkscape:window-x="0"
   inkscape:window-y="25"
   inkscape:window-maximized="0"
   inkscape:current-layer="svg6293" />

<defs
   id="defs6287">
</defs>
<g
   style="stroke: none; stroke-width: 0; stroke-dasharray: none; stroke-linecap: butt; stroke-linejoin: miter; stroke-miterlimit: 10; fill: none; fill-rule: nonzero; opacity: 1;"
   transform="translate(1.4065934065934016 1.4065934065934016) scale(2.81 2.81)"
   id="g6291">
	<path
   d="M 45.229 90.18 l -26.97 -31.765 c -5.419 -6.387 -8.404 -14.506 -8.404 -22.861 c 0 -19.506 15.869 -35.374 35.374 -35.374 s 35.375 15.869 35.375 35.374 c 0 8.355 -2.985 16.474 -8.405 22.861 L 45.229 90.18 z M 45.229 3.121 c -17.884 0 -32.433 14.549 -32.433 32.433 c 0 7.659 2.737 15.102 7.705 20.958 l 24.728 29.125 l 24.728 -29.125 c 4.969 -5.855 7.706 -13.299 7.706 -20.958 C 77.662 17.67 63.113 3.121 45.229 3.121 z M 45.229 49.801 c -8.499 0 -15.413 -6.915 -15.413 -15.414 s 6.915 -15.414 15.413 -15.414 c 8.499 0 15.413 6.915 15.413 15.414 S 53.728 49.801 45.229 49.801 z M 45.229 21.914 c -6.878 0 -12.473 5.596 -12.473 12.473 s 5.595 12.473 12.473 12.473 s 12.473 -5.596 12.473 -12.473 S 52.106 21.914 45.229 21.914 z"
   style="stroke: none; stroke-width: 1; stroke-dasharray: none; stroke-linecap: butt; stroke-linejoin: miter; stroke-miterlimit: 10; fill: rgb(0,0,0); fill-rule: nonzero; opacity: 1;"
   transform=" matrix(1 0 0 1 0 0) "
   stroke-linecap="round"
   id="path6289" />
</g>
<path
   style="fill:#ee4bc8;fill-opacity:1;stroke-width:0.211745"
   d="m 123.97684,141.01487 c -8.59554,-1.05175 -16.62763,-4.46599 -22.97436,-9.76582 C 87.203343,119.72608 81.918518,101.32809 87.555029,84.43461 91.204882,73.495439 99.075033,64.492229 109.55104,59.27185 c 17.52494,-8.732985 39.06438,-4.202604 51.89995,10.91609 8.74819,10.304285 12.16722,24.474927 9.08514,37.65467 -2.10438,8.99885 -7.22938,17.30939 -14.32885,23.23521 -6.08843,5.08191 -13.16956,8.32849 -21.00794,9.63179 -2.39919,0.39892 -8.99159,0.57823 -11.2225,0.30526 z m 9.13856,-8.16552 c 10.88209,-1.40919 20.41668,-7.83509 25.94944,-17.4888 4.56417,-7.96371 5.7661,-17.919903 3.2464,-26.89171 -3.62266,-12.899075 -14.44603,-22.689458 -27.69171,-25.048814 -2.69272,-0.479633 -6.96632,-0.628506 -9.68984,-0.33755 -4.41709,0.471882 -7.95697,1.506657 -12.06947,3.528142 -6.94878,3.415639 -12.57108,9.068977 -15.959933,16.04804 -7.023864,14.46507 -3.293692,32.027012 8.972333,42.242462 7.74405,6.44943 17.29606,9.23628 27.24278,7.94823 z"
   id="path6660" /><path
   style="fill:#ee4bc8;fill-opacity:1;stroke-width:0.211745"
   d="M 127.23354,253.10781 C 119.93713,244.60476 52.021201,164.4954 50.548877,162.65543 44.953256,155.66252 39.672343,146.49809 36.252775,137.84615 31.520641,125.87326 29.290617,114.2179 29.284493,101.42597 29.280064,92.173943 30.203676,84.912113 32.514657,76.029053 38.588711,52.6813 53.671272,31.760444 74.125882,18.31057 87.179612,9.7271249 101.37924,4.5988914 117.62448,2.6009335 c 4.41949,-0.543541 17.40292,-0.5388959 21.80976,0.0078 15.04391,1.8662981 28.11814,6.3278455 40.44207,13.8007485 19.85575,12.039996 34.92237,30.770413 42.65312,53.025204 4.70016,13.530526 6.32262,29.662989 4.45713,44.318094 -1.37004,10.76294 -4.81368,22.10812 -9.62208,31.70027 -2.90371,5.79254 -7.22424,12.60208 -10.9595,17.27317 -1.77863,2.22425 -76.47054,90.30382 -77.45309,91.33568 l -0.47323,0.49696 z m 36.36007,-52.16157 c 19.02629,-22.41853 35.42071,-41.79188 36.43205,-43.0519 6.22831,-7.75981 11.39233,-17.2435 14.77637,-27.13675 2.11816,-6.19243 3.4904,-12.24 4.39738,-19.37959 0.5274,-4.15155 0.52104,-16.03184 -0.0109,-20.327545 -1.36427,-11.017806 -4.13666,-20.429327 -8.826,-29.961952 -12.75914,-25.937154 -37.02437,-44.306286 -65.42291,-49.526104 -5.90885,-1.086082 -8.46072,-1.286653 -16.41026,-1.289811 -7.94495,-0.0032 -10.41048,0.190195 -16.41025,1.286919 -14.893899,2.722521 -28.835017,9.101803 -40.743049,18.643511 -10.178456,8.155825 -18.426789,18.371743 -24.34143,30.147915 -7.153994,14.243745 -10.29983,28.893708 -9.638619,44.886457 0.726093,17.56204 6.645384,34.77642 16.869113,49.05846 2.428773,3.39288 1.672937,2.49262 39.31154,46.8229 27.620155,32.53067 34.975565,41.07531 35.173465,40.86031 0.13762,-0.14954 15.81719,-18.6143 34.84348,-41.03282 z"
   id="path6662" /><path
   style="fill:#ff00ff;stroke-width:0.211745"
   d="m 121.85939,140.59666 c -14.49685,-2.63124 -25.973359,-11.25625 -32.172587,-24.17885 -2.946831,-6.14282 -4.131646,-11.4072 -4.136596,-18.379761 -0.0045,-6.361973 1.052059,-11.471892 3.546379,-17.151365 4.080489,-9.291116 11.177344,-16.76143 20.259954,-21.326096 6.21085,-3.121403 12.02726,-4.506824 18.92098,-4.506824 5.14595,0 9.07393,0.618245 13.69767,2.155944 17.65511,5.871497 29.54967,22.373826 29.53672,40.978805 -0.0127,18.303907 -12.03772,34.872557 -29.53672,40.697257 -4.57299,1.52216 -7.12523,1.92813 -12.81059,2.03773 -4.33095,0.0835 -5.27796,0.0411 -7.30521,-0.32684 z m 11.64599,-7.72016 c 14.49497,-2.07761 25.99454,-12.67216 29.31062,-27.00388 1.36995,-5.920771 1.05311,-13.027181 -0.84305,-18.908735 -0.86032,-2.668587 -3.08139,-7.042865 -4.80412,-9.461453 -1.8311,-2.570751 -5.5331,-6.272745 -8.10385,-8.103849 -3.74414,-2.666893 -8.76724,-4.871639 -13.47594,-5.914879 -1.81092,-0.401219 -2.73501,-0.4622 -7.05968,-0.465869 -4.36425,-0.0037 -5.23218,0.05305 -7.05967,0.461647 -10.26066,2.294099 -18.77284,8.524665 -23.721992,17.363513 -2.97025,5.304669 -4.37859,10.819917 -4.380734,17.155542 -0.0015,4.427933 0.474004,7.411453 1.824377,11.446993 3.701419,11.06152 13.120629,19.79221 24.482929,22.69326 4.09573,1.04573 9.62468,1.34063 13.83111,0.73771 z"
   id="path737" /><path
   style="fill:#ff00ff;stroke-width:0.211745"
   d="M 123.24318,248.21805 C 114.50235,237.94675 91.749399,211.12925 75.051684,191.4177 47.893271,159.35737 49.089964,160.81309 45.892543,155.94692 36.313449,141.36846 30.880244,125.45514 29.627317,108.30769 29.31673,104.05702 29.493863,94.119136 29.950008,90.203475 33.893051,56.35543 54.982264,26.741635 85.699236,11.919558 96.28407,6.8119837 109.0488,3.3431888 120.30141,2.5164722 c 4.38822,-0.3223977 17.04169,-0.1169232 20.19156,0.3278826 20.60492,2.909698 37.65509,10.5061852 52.79062,23.5202002 15.8241,13.606064 27.59216,33.239295 31.98634,53.364357 1.4475,6.629492 2.1026,12.214164 2.28431,19.473736 0.29567,11.813022 -1.37891,22.550752 -5.33312,34.196862 -3.21317,9.46358 -8.05093,18.66616 -14.1288,26.87635 -1.85265,2.50263 -17.83891,21.44429 -60.05859,71.16169 -6.57664,7.74459 -13.63175,16.05258 -15.67801,18.46224 -2.04627,2.40964 -3.76813,4.38666 -3.82636,4.39338 -0.0582,0.007 -2.43701,-2.72707 -5.28618,-6.07512 z m 18.00233,-20.75072 c 37.58092,-44.24488 58.18915,-68.61109 60.03923,-70.98759 7.59048,-9.75028 13.72981,-23.19036 16.48284,-36.08382 1.66053,-7.77692 2.09581,-13.61455 1.78548,-23.94596 C 219.0071,78.273417 211.96503,59.599136 199.94837,44.46185 185.17245,25.84875 163.97504,13.902482 139.96361,10.656124 135.7979,10.092917 121.27246,10.092006 117.09512,10.654689 92.613248,13.952371 71.071756,26.308678 56.118652,45.631101 48.685628,55.236064 42.72982,67.596413 39.822695,79.450812 c -1.660414,6.770677 -2.319225,11.892314 -2.488301,19.34419 -0.275524,12.143488 1.354567,22.523638 5.23551,33.338858 2.619868,7.30092 5.610089,13.22273 10.048123,19.89923 3.213621,4.83451 2.674512,4.18419 36.511192,44.04301 30.219771,35.59819 39.140491,45.94872 39.601411,45.94872 0.0825,0 5.71419,-6.55087 12.51488,-14.55749 z"
   id="path739" /></svg>
