<?xml version="1.0" encoding="UTF-8" standalone="no"?>
<svg
   version="1.1"
   width="256"
   height="256"
   viewBox="0 0 256 256"
   xml:space="preserve"
   id="svg6293"
   sodipodi:docname="location.svg"
   inkscape:version="1.2.1 (9c6d41e4, 2022-07-14)"
   xmlns:inkscape="http://www.inkscape.org/namespaces/inkscape"
   xmlns:sodipodi="http://sodipodi.sourceforge.net/DTD/sodipodi-0.dtd"
   xmlns="http://www.w3.org/2000/svg"
   xmlns:svg="http://www.w3.org/2000/svg"><sodipodi:namedview
   id="namedview6295"
   pagecolor="#ffffff"
   bordercolor="#000000"
   borderopacity="0.25"
   inkscape:showpageshadow="2"
   inkscape:pageopacity="0.0"
   inkscape:pagecheckerboard="0"
   inkscape:deskcolor="#d1d1d1"
   showgrid="false"
   inkscape:zoom="4.7226562"
   inkscape:cx="138.90488"
   inkscape:cy="25.091812"
   inkscape:window-width="1440"
   inkscape:window-height="847"
   inkscape:window-x="0"
   inkscape:window-y="25"
   inkscape:window-maximized="0"
   inkscape:current-layer="svg6293" />

<defs
   id="defs6287">
</defs>
<g
   style="stroke: none; stroke-width: 0; stroke-dasharray: none; stroke-linecap: butt; stroke-linejoin: miter; stroke-miterlimit: 10; fill: none; fill-rule: nonzero; opacity: 1;"
   transform="translate(1.4065934065934016 1.4065934065934016) scale(2.81 2.81)"
   id="g6291">
	<path
   d="M 45.229 90.18 l -26.97 -31.765 c -5.419 -6.387 -8.404 -14.506 -8.404 -22.861 c 0 -19.506 15.869 -35.374 35.374 -35.374 s 35.375 15.869 35.375 35.374 c 0 8.355 -2.985 16.474 -8.405 22.861 L 45.229 90.18 z M 45.229 3.121 c -17.884 0 -32.433 14.549 -32.433 32.433 c 0 7.659 2.737 15.102 7.705 20.958 l 24.728 29.125 l 24.728 -29.125 c 4.969 -5.855 7.706 -13.299 7.706 -20.958 C 77.662 17.67 63.113 3.121 45.229 3.121 z M 45.229 49.801 c -8.499 0 -15.413 -6.915 -15.413 -15.414 s 6.915 -15.414 15.413 -15.414 c 8.499 0 15.413 6.915 15.413 15.414 S 53.728 49.801 45.229 49.801 z M 45.229 21.914 c -6.878 0 -12.473 5.596 -12.473 12.473 s 5.595 12.473 12.473 12.473 s 12.473 -5.596 12.473 -12.473 S 52.106 21.914 45.229 21.914 z"
   style="stroke: none; stroke-width: 1; stroke-dasharray: none; stroke-linecap: butt; stroke-linejoin: miter; stroke-miterlimit: 10; fill: rgb(0,0,0); fill-rule: nonzero; opacity: 1;"
   transform=" matrix(1 0 0 1 0 0) "
   stroke-linecap="round"
   id="path6289" />
</g>
<path
   style="fill:#0000ff;stroke-width:0.211745"
   d="M 45.718131,156.01033 C 34.305736,138.3933 28.774009,119.19441 29.289266,98.990903 29.673817,83.912454 33.023925,70.407206 39.689307,57.065344 53.079591,30.262482 77.877323,10.891818 107.17236,4.3511855 c 10.66135,-2.3803338 22.66025,-2.9434559 33.53236,-1.5737121 28.49443,3.5899262 53.88026,19.2058166 70.0589,43.0961686 17.10843,25.263338 21.57987,56.780158 12.18509,85.886258 -2.65062,8.21191 -6.59824,16.43346 -11.56915,24.09457 l -1.43415,2.2103 -5.01399,10e-4 -5.014,0.001 1.71722,-2.27626 C 214.21591,139.11346 220.82441,117.27315 219.59037,96.449 218.83558,83.712102 215.89421,72.358459 210.50807,61.391453 208.30731,56.910386 207.2838,55.131198 204.42543,50.817899 193.36476,34.128229 177.10647,21.557492 158.14547,15.035693 134.85713,7.0254699 109.22814,8.787432 87.344914,19.903145 65.687117,30.904348 49.397007,49.866255 41.77577,72.946237 c -4.835983,14.645185 -5.795775,31.189793 -2.694517,46.447313 2.659676,13.08503 8.512388,26.1452 16.373876,36.53787 0.668603,0.88387 1.286221,1.72615 1.372488,1.87172 0.123662,0.20869 -0.894011,0.26469 -4.80989,0.26469 h -4.966739 z"
   id="path656" /><path
   style="fill:#0000ff;stroke-width:0.211745"
   d="M 125.77668,141.10282 C 103.25775,139.794 85.333334,120.70777 85.333334,98.038049 c 0,-16.432052 9.474348,-31.576697 24.244826,-38.755109 7.05258,-3.427529 14.14217,-4.830328 21.82698,-4.318847 24.08836,1.60326 42.45363,23.184844 40.09196,47.113277 -1.58383,16.04745 -11.99395,29.96815 -26.91632,35.99326 -6.05221,2.44366 -12.11348,3.42105 -18.8041,3.03219 z m 9.81236,-8.62658 c 10.74543,-2.32768 19.51238,-9.09865 24.3688,-18.82075 4.89424,-9.7978 4.90259,-21.458336 0.0224,-31.221882 -4.65542,-9.313787 -12.94638,-15.984308 -22.98104,-18.489473 -2.95538,-0.737817 -5.00955,-0.966 -8.68155,-0.964376 -16.8225,0.0074 -30.984087,11.734051 -34.345559,28.440108 -0.695039,3.454249 -0.693643,9.788723 0.0029,13.251633 2.955149,14.69128 14.332799,25.66186 29.154879,28.11176 2.6708,0.44145 9.81687,0.26535 12.45918,-0.30702 z"
   id="path658" /><path
   style="fill:#0000ff;stroke-width:0.211745"
   d="M 89.84156,209.07862 C 68.670224,184.1453 50.403462,162.4917 49.248754,160.95951 l -2.099469,-2.78581 4.95803,-0.0589 c 4.937556,-0.0586 4.959641,-0.0569 5.348412,0.42349 2.777927,3.4323 70.988343,83.58368 71.096603,83.54282 0.1241,-0.0468 63.06898,-74.10648 69.38012,-81.6312 l 1.99794,-2.38213 h 4.9681 4.9681 l -0.8911,1.27034 c -0.4901,0.69869 -1.75872,2.35408 -2.81915,3.67864 -3.035,3.79097 -77.46884,91.3951 -77.65487,91.3951 -0.0916,0 -17.48857,-20.39998 -38.65991,-45.33329 z"
   id="path660" /></svg>
