<?xml version="1.0" encoding="UTF-8" standalone="no"?>
<svg
   version="1.1"
   width="256"
   height="256"
   viewBox="0 0 256 256"
   xml:space="preserve"
   id="svg7120"
   sodipodi:docname="mail.svg"
   inkscape:version="1.2.1 (9c6d41e4, 2022-07-14)"
   xmlns:inkscape="http://www.inkscape.org/namespaces/inkscape"
   xmlns:sodipodi="http://sodipodi.sourceforge.net/DTD/sodipodi-0.dtd"
   xmlns="http://www.w3.org/2000/svg"
   xmlns:svg="http://www.w3.org/2000/svg"><sodipodi:namedview
   id="namedview7122"
   pagecolor="#ffffff"
   bordercolor="#000000"
   borderopacity="0.25"
   inkscape:showpageshadow="2"
   inkscape:pageopacity="0.0"
   inkscape:pagecheckerboard="0"
   inkscape:deskcolor="#d1d1d1"
   showgrid="false"
   inkscape:zoom="4.7226562"
   inkscape:cx="128"
   inkscape:cy="128"
   inkscape:window-width="2557"
   inkscape:window-height="1387"
   inkscape:window-x="0"
   inkscape:window-y="25"
   inkscape:window-maximized="0"
   inkscape:current-layer="svg7120" />

<defs
   id="defs7108">
</defs>
<g
   style="stroke: none; stroke-width: 0; stroke-dasharray: none; stroke-linecap: butt; stroke-linejoin: miter; stroke-miterlimit: 10; fill: none; fill-rule: nonzero; opacity: 1;"
   transform="translate(1.4065934065934016 1.4065934065934016) scale(2.81 2.81)"
   id="g7118">
	<path
   d="M 82.599 78.237 H 7.401 C 3.32 78.237 0 74.918 0 70.837 V 19.164 c 0 -4.081 3.32 -7.401 7.401 -7.401 h 75.198 c 4.081 0 7.401 3.32 7.401 7.401 v 51.673 C 90 74.918 86.68 78.237 82.599 78.237 z M 7.401 13.762 C 4.423 13.762 2 16.185 2 19.164 v 51.673 c 0 2.978 2.423 5.4 5.401 5.4 h 75.198 c 2.979 0 5.401 -2.423 5.401 -5.4 V 19.164 c 0 -2.979 -2.423 -5.401 -5.401 -5.401 H 7.401 z"
   style="stroke: none; stroke-width: 1; stroke-dasharray: none; stroke-linecap: butt; stroke-linejoin: miter; stroke-miterlimit: 10; fill: rgb(0,0,0); fill-rule: nonzero; opacity: 1;"
   transform=" matrix(1 0 0 1 0 0) "
   stroke-linecap="round"
   id="path7110" />
	<path
   d="M 45 53.78 c -5.064 0 -9.925 -2.146 -13.336 -5.889 L 2.052 15.402 l 1.479 -1.348 l 29.612 32.49 C 36.175 49.872 40.497 51.78 45 51.78 s 8.824 -1.908 11.857 -5.236 l 29.611 -32.489 l 1.479 1.348 L 58.336 47.892 C 54.925 51.634 50.064 53.78 45 53.78 z"
   style="stroke: none; stroke-width: 1; stroke-dasharray: none; stroke-linecap: butt; stroke-linejoin: miter; stroke-miterlimit: 10; fill: rgb(0,0,0); fill-rule: nonzero; opacity: 1;"
   transform=" matrix(1 0 0 1 0 0) "
   stroke-linecap="round"
   id="path7112" />
	<rect
   x="-3.15"
   y="59.88"
   rx="0"
   ry="0"
   width="40.83"
   height="2"
   style="stroke: none; stroke-width: 1; stroke-dasharray: none; stroke-linecap: butt; stroke-linejoin: miter; stroke-miterlimit: 10; fill: rgb(0,0,0); fill-rule: nonzero; opacity: 1;"
   transform=" matrix(0.7052 -0.7091 0.7091 0.7052 -38.0785 30.1959) "
   id="rect7114" />
	<rect
   x="71.73"
   y="40.47"
   rx="0"
   ry="0"
   width="2"
   height="40.83"
   style="stroke: none; stroke-width: 1; stroke-dasharray: none; stroke-linecap: butt; stroke-linejoin: miter; stroke-miterlimit: 10; fill: rgb(0,0,0); fill-rule: nonzero; opacity: 1;"
   transform=" matrix(0.7089 -0.7053 0.7053 0.7089 -21.7703 69.0153) "
   id="rect7116" />
</g>
<path
   style="fill:#ee4bc8;fill-opacity:1;stroke-width:0.211745"
   d="M 18.104218,220.73323 C 13.470134,219.73952 9.0056667,217.00099 6.1264336,213.38598 4.4686589,211.30456 2.8344232,208.0878 2.1732143,205.60463 L 1.693962,203.8048 V 127.68238 51.559967 L 2.2875381,49.665083 C 4.6277757,42.194299 10.073597,37.018056 17.615726,35.095669 l 1.864836,-0.475322 H 127.78825 c 104.84492,0 108.36186,0.01259 110.00166,0.393876 7.87345,1.830715 13.73083,7.545585 15.84445,15.458966 l 0.45993,1.722014 v 75.593047 75.59306 l -0.48201,1.89299 c -0.57381,2.25354 -2.01072,5.37726 -3.30304,7.18061 -0.51314,0.71605 -1.63421,1.97579 -2.49127,2.79941 -3.12925,3.00724 -6.3936,4.71627 -10.52312,5.50932 -2.31829,0.44522 -217.111557,0.41542 -219.190632,-0.0304 z m 219.262202,-5.44336 c 1.62425,-0.47643 4.76427,-2.00858 4.76427,-2.32469 0,-0.13297 -9.55162,-9.82364 -21.22579,-21.53482 -11.67419,-11.71118 -28.94177,-29.03289 -38.3724,-38.49269 l -17.14661,-17.19964 -2.33562,2.28738 c -2.70674,2.65082 -4.51875,4.11979 -7.44084,6.0322 -6.5547,4.28981 -13.54683,6.87086 -21.68056,8.0031 -2.92533,0.40721 -9.8999,0.35101 -12.91646,-0.10409 -5.62857,-0.84916 -10.26432,-2.29327 -15.35153,-4.78225 -5.17998,-2.53436 -9.133027,-5.32023 -13.39783,-9.44198 l -2.017399,-1.94973 -22.560915,22.6827 c -12.408502,12.47548 -29.701811,29.8433 -38.429573,38.59515 l -15.868656,15.91245 0.851248,0.53737 c 1.200634,0.75792 3.135417,1.5354 4.501699,1.80897 0.640529,0.12826 1.35517,0.27104 1.588089,0.31731 0.23292,0.0463 48.876096,0.071 108.095947,0.055 102.10519,-0.0276 107.73814,-0.0484 108.94293,-0.40176 z M 68.561926,150.00573 86.73792,131.77986 48.158489,89.446586 C 26.939803,66.163289 9.5026063,47.083681 9.4091618,47.047459 c -0.2471185,-0.09579 -1.5854336,2.801376 -2.0355987,4.406635 -0.3701444,1.319911 -0.38597,4.449788 -0.38597,76.334156 0,62.97312 0.04665,75.14402 0.2917692,76.12242 0.3633964,1.4505 1.1635747,3.3978 1.8300303,4.45354 l 0.5069656,0.80308 20.3847878,-20.46785 c 11.211633,-11.25731 28.563985,-28.66948 38.56078,-38.69371 z m 178.219934,58.04658 c 0.36251,-0.63359 0.91739,-1.84848 1.23308,-2.69975 l 0.57398,-1.54776 0.0583,-75.27544 c 0.0523,-67.567493 0.0245,-75.42941 -0.27213,-76.779181 -0.31838,-1.448844 -1.55053,-4.353204 -1.9521,-4.601383 -0.18753,-0.115891 -77.23855,84.249104 -77.23855,84.570314 0,0.12418 76.75771,77.45983 76.90092,77.47994 0.0205,0.003 0.33398,-0.51314 0.69649,-1.14674 z M 133.30168,146.64803 c 5.15653,-0.64411 9.99271,-2.09428 14.58634,-4.37384 5.05897,-2.51048 8.82386,-5.27979 12.75777,-9.38414 2.86421,-2.9883 81.90839,-89.756768 81.90839,-89.91257 0,-0.289048 -2.76576,-1.738497 -4.34078,-2.274875 l -1.69396,-0.576881 H 127.89413 19.268817 L 17.7866,40.601901 c -1.923998,0.618105 -4.454343,2.009148 -4.421626,2.430766 0.03944,0.5083 82.40474,90.761863 84.513427,92.607413 7.228599,6.32659 16.198379,10.22885 25.674949,11.16976 2.01429,0.2 7.59322,0.1074 9.74833,-0.16181 z"
   id="path7487" /><path
   style="fill:#ff00ff;stroke-width:0.211745"
   d="m 53.253929,220.84697 -35.14971,-0.12708 -1.482217,-0.48761 C 9.3082778,217.82625 4.3827946,212.71841 2.2374009,205.3151 L 1.693962,203.43981 V 127.72256 52.005312 l 0.5318178,-1.743558 c 1.5790055,-5.17675 4.5343653,-9.290005 8.6354422,-12.018768 2.030125,-1.350799 3.905845,-2.19261 6.629201,-2.975147 l 1.927148,-0.553751 108.815619,0.05926 108.81561,0.05926 1.89267,0.592677 c 7.43257,2.327484 12.35137,7.467706 14.61247,15.270288 l 0.54036,1.864631 v 75.198816 75.19881 l -0.53839,2.01158 c -0.63532,2.3737 -2.3062,5.98196 -3.50595,7.57102 -2.74159,3.6312 -6.7638,6.44859 -10.98852,7.69699 l -1.58809,0.46927 -36.63193,0.15404 c -41.83916,0.17592 -96.52972,0.17083 -147.586432,-0.0137 z m 184.747731,-5.63302 c 1.77023,-0.6769 4.2349,-1.96432 4.2349,-2.21212 0,-0.26829 -30.79411,-31.34753 -57.35339,-57.88442 l -19.48297,-19.46655 -2.60746,2.42722 c -3.93319,3.66132 -5.74083,5.03682 -9.56249,7.27648 -5.35319,3.1372 -11.02318,5.16363 -17.81917,6.36849 -2.60244,0.46139 -8.90577,0.63269 -12.17535,0.33088 -5.4671,-0.50466 -10.95005,-1.99579 -16.25227,-4.41993 -5.3137,-2.42939 -9.526476,-5.27744 -14.129093,-9.55198 -1.395277,-1.29582 -2.607446,-2.3316 -2.693711,-2.30174 -0.26688,0.0924 -76.820705,77.08488 -76.820705,77.2609 0,0.30692 3.479693,1.88011 5.081885,2.29755 1.566778,0.40821 3.042984,0.41313 110.001654,0.36715 l 108.41357,-0.0466 z M 42.064072,176.75434 C 80.688147,138.0283 86.709678,131.9555 86.709678,131.7286 c 0,-0.0949 -6.717618,-7.54518 -14.92804,-16.55608 C 57.637291,99.649161 24.437904,63.245095 14.311482,52.154864 11.739092,49.33764 9.4940661,47.051598 9.3225363,47.074771 8.841979,47.139693 7.389766,50.667898 7.1825332,52.273988 6.9117593,54.372532 6.9353043,202.27957 7.2066457,203.74739 c 0.255971,1.38467 1.0625393,3.45356 1.8047799,4.62934 0.2873326,0.45517 0.5597068,0.82757 0.6052757,0.82757 0.045569,0 14.6468857,-14.60248 32.4473707,-32.44996 z m 204.743708,31.48431 c 0.31125,-0.53111 0.86316,-1.69836 1.22645,-2.59388 l 0.66056,-1.62823 V 128.10587 52.195203 l -0.50586,-1.482217 c -0.55657,-1.630865 -1.38983,-3.397183 -1.69017,-3.582802 -0.18644,-0.115227 -7.32262,7.580663 -28.9453,31.215557 -15.71873,17.181518 -42.07317,46.128089 -47.56508,52.243409 -0.44216,0.49235 -0.80393,1.00748 -0.80393,1.14473 0,0.13725 4.5048,4.78454 10.01067,10.32731 5.50587,5.54277 22.76342,22.91747 38.3501,38.61044 15.5867,15.69297 28.41982,28.53267 28.51804,28.53267 0.0982,0 0.43328,-0.43454 0.74452,-0.96565 z M 135.94045,146.35421 c 5.12657,-1.07477 8.11104,-2.07858 12.08262,-4.06391 5.93216,-2.96538 9.30022,-5.59509 14.76201,-11.52584 8.52066,-9.25226 73.90583,-81.035137 78.46369,-86.141078 0.79599,-0.89172 1.38443,-1.722969 1.30765,-1.84722 -0.18517,-0.299608 -2.84119,-1.62938 -4.50665,-2.256317 l -1.32826,-0.499993 H 127.90036 19.079208 L 17.2551,40.679891 c -2.084464,0.754247 -3.809277,1.817874 -3.809277,2.349037 0,0.568615 26.988986,30.36182 66.800234,73.740932 15.534214,16.92639 17.201375,18.69843 18.889156,20.07748 6.128147,5.00716 13.925027,8.45057 22.168717,9.79058 2.80433,0.45584 11.955,0.27847 14.63652,-0.28371 z"
   id="path829" /></svg>
