<?xml version="1.0" encoding="UTF-8" standalone="no"?>
<svg
   version="1.1"
   width="256"
   height="256"
   viewBox="0 0 256 256"
   xml:space="preserve"
   id="svg7120"
   sodipodi:docname="mail.svg"
   inkscape:version="1.2.1 (9c6d41e4, 2022-07-14)"
   xmlns:inkscape="http://www.inkscape.org/namespaces/inkscape"
   xmlns:sodipodi="http://sodipodi.sourceforge.net/DTD/sodipodi-0.dtd"
   xmlns="http://www.w3.org/2000/svg"
   xmlns:svg="http://www.w3.org/2000/svg"><sodipodi:namedview
   id="namedview7122"
   pagecolor="#ffffff"
   bordercolor="#000000"
   borderopacity="0.25"
   inkscape:showpageshadow="2"
   inkscape:pageopacity="0.0"
   inkscape:pagecheckerboard="0"
   inkscape:deskcolor="#d1d1d1"
   showgrid="false"
   inkscape:zoom="4.7226562"
   inkscape:cx="128.31762"
   inkscape:cy="128"
   inkscape:window-width="1440"
   inkscape:window-height="847"
   inkscape:window-x="0"
   inkscape:window-y="25"
   inkscape:window-maximized="0"
   inkscape:current-layer="svg7120" />

<defs
   id="defs7108">
</defs>
<g
   style="stroke: none; stroke-width: 0; stroke-dasharray: none; stroke-linecap: butt; stroke-linejoin: miter; stroke-miterlimit: 10; fill: none; fill-rule: nonzero; opacity: 1;"
   transform="translate(1.4065934065934016 1.4065934065934016) scale(2.81 2.81)"
   id="g7118">
	<path
   d="M 82.599 78.237 H 7.401 C 3.32 78.237 0 74.918 0 70.837 V 19.164 c 0 -4.081 3.32 -7.401 7.401 -7.401 h 75.198 c 4.081 0 7.401 3.32 7.401 7.401 v 51.673 C 90 74.918 86.68 78.237 82.599 78.237 z M 7.401 13.762 C 4.423 13.762 2 16.185 2 19.164 v 51.673 c 0 2.978 2.423 5.4 5.401 5.4 h 75.198 c 2.979 0 5.401 -2.423 5.401 -5.4 V 19.164 c 0 -2.979 -2.423 -5.401 -5.401 -5.401 H 7.401 z"
   style="stroke: none; stroke-width: 1; stroke-dasharray: none; stroke-linecap: butt; stroke-linejoin: miter; stroke-miterlimit: 10; fill: rgb(0,0,0); fill-rule: nonzero; opacity: 1;"
   transform=" matrix(1 0 0 1 0 0) "
   stroke-linecap="round"
   id="path7110" />
	<path
   d="M 45 53.78 c -5.064 0 -9.925 -2.146 -13.336 -5.889 L 2.052 15.402 l 1.479 -1.348 l 29.612 32.49 C 36.175 49.872 40.497 51.78 45 51.78 s 8.824 -1.908 11.857 -5.236 l 29.611 -32.489 l 1.479 1.348 L 58.336 47.892 C 54.925 51.634 50.064 53.78 45 53.78 z"
   style="stroke: none; stroke-width: 1; stroke-dasharray: none; stroke-linecap: butt; stroke-linejoin: miter; stroke-miterlimit: 10; fill: rgb(0,0,0); fill-rule: nonzero; opacity: 1;"
   transform=" matrix(1 0 0 1 0 0) "
   stroke-linecap="round"
   id="path7112" />
	<rect
   x="-3.15"
   y="59.88"
   rx="0"
   ry="0"
   width="40.83"
   height="2"
   style="stroke: none; stroke-width: 1; stroke-dasharray: none; stroke-linecap: butt; stroke-linejoin: miter; stroke-miterlimit: 10; fill: rgb(0,0,0); fill-rule: nonzero; opacity: 1;"
   transform=" matrix(0.7052 -0.7091 0.7091 0.7052 -38.0785 30.1959) "
   id="rect7114" />
	<rect
   x="71.73"
   y="40.47"
   rx="0"
   ry="0"
   width="2"
   height="40.83"
   style="stroke: none; stroke-width: 1; stroke-dasharray: none; stroke-linecap: butt; stroke-linejoin: miter; stroke-miterlimit: 10; fill: rgb(0,0,0); fill-rule: nonzero; opacity: 1;"
   transform=" matrix(0.7089 -0.7053 0.7053 0.7089 -21.7703 69.0153) "
   id="rect7116" />
</g>
<path
   style="fill:#0000ff;stroke-width:0.211745"
   d="M 19.798181,221.01906 C 11.111273,219.8289 4.2391862,213.67388 2.0617684,205.13336 L 1.5880893,203.27544 V 127.78826 52.301076 L 2.0480288,50.579062 C 3.3532615,45.692269 6.0015732,41.638763 9.7402813,38.805299 11.57289,37.416416 14.931781,35.781927 17.151365,35.19895 L 18.9512,34.72622 h 108.94293 108.94293 l 1.79983,0.483805 c 0.98991,0.266092 2.75269,0.953571 3.91729,1.527729 6.62555,3.266464 10.87742,9.538157 11.53995,17.021967 0.28314,3.198353 0.28395,145.066469 0,148.245239 -0.45604,5.12041 -2.25875,9.08708 -5.80839,12.78077 -0.82362,0.85704 -2.08336,1.97811 -2.79942,2.49125 -1.73819,1.24565 -4.87071,2.7074 -7.07123,3.29969 l -1.78978,0.48197 -108.09595,0.0237 c -59.452767,0.013 -108.3818,-0.0154 -108.731179,-0.0633 z m 217.469139,-5.78175 c 1.60817,-0.4113 4.63674,-1.74901 4.89094,-2.16032 0.0685,-0.11081 -9.43742,-9.79376 -21.12424,-21.51765 -11.6868,-11.72389 -28.98582,-29.07675 -38.44226,-38.56191 l -17.19353,-17.24576 -2.5006,2.42472 c -7.38695,7.16278 -16.36095,11.70303 -26.77262,13.54518 -3.34279,0.59145 -9.93009,0.79956 -13.36878,0.42236 -8.33734,-0.91454 -15.93322,-3.65308 -22.829822,-8.23081 -2.9082,-1.93037 -6.697202,-5.04273 -8.524449,-7.00216 -0.563661,-0.60444 -1.097575,-1.07007 -1.186474,-1.03474 -0.333516,0.13253 -76.557917,76.89322 -76.557917,77.09655 0,0.51828 3.890546,2.21728 5.822995,2.54289 0.291149,0.0491 49.038191,0.10218 108.326757,0.11804 107.29847,0.0287 107.80509,0.0269 109.46,-0.39639 z M 48.172044,170.48326 C 69.251283,149.30314 86.52572,131.90167 86.559684,131.81331 86.601807,131.70372 19.292074,57.63236 9.519473,47.033986 9.2594532,46.751995 7.8573505,49.709208 7.3962282,51.512179 6.9963407,53.075724 6.9875931,54.707245 6.9875931,127.72739 c 0,68.21733 0.029614,74.74819 0.3452585,76.14148 0.4777303,2.10877 1.9745085,5.37348 2.3778559,5.18648 0.074496,-0.0345 17.3820965,-17.39198 38.4613365,-38.57209 z m 198.781676,37.18589 c 0.41053,-0.7861 0.97023,-2.09628 1.24375,-2.9115 l 0.49732,-1.48221 0.0581,-74.6402 c 0.0526,-67.592171 0.0263,-74.798939 -0.27923,-76.321259 -0.35317,-1.759792 -1.01051,-3.562917 -1.72058,-4.719602 l -0.41962,-0.683537 -38.52158,42.267521 c -21.18687,23.247137 -38.52159,42.388287 -38.52159,42.535887 0,0.25924 76.51605,77.36753 76.78436,77.37867 0.0729,0.003 0.46848,-0.63767 0.87904,-1.42377 z M 131.59967,146.83373 c 10.20341,-0.87933 19.85188,-5.18662 27.36196,-12.215 0.84098,-0.78703 20.01867,-21.72675 42.61709,-46.532708 37.38748,-41.039672 41.05436,-45.127698 40.71412,-45.389989 -0.73429,-0.566089 -3.7856,-1.932641 -5.13816,-2.301171 -1.30863,-0.356561 -6.68912,-0.37501 -109.36642,-0.37501 -103.846272,0 -108.042893,0.01481 -109.366424,0.38597 -1.485018,0.416445 -4.032825,1.585856 -4.839907,2.221456 l -0.49913,0.393078 40.493777,44.448467 c 22.271579,24.446657 41.172119,45.147207 42.001199,46.001217 9.170875,9.44665 22.800555,14.50309 36.021895,13.36369 z"
   id="path587" /></svg>
