<?xml version="1.0" encoding="utf-8"?>
<!-- Generator: Adobe Illustrator 19.0.0, SVG Export Plug-In . SVG Version: 6.00 Build 0)  -->
<svg version="1.1" id="Layer_1" xmlns="http://www.w3.org/2000/svg" xmlns:xlink="http://www.w3.org/1999/xlink" x="0px" y="0px"
	 viewBox="0 0 512 512" style="enable-background:new 0 0 512 512;" xml:space="preserve">
<style type="text/css">
	.st0{fill:#2980B9;}
	.st1{fill:#3498DB;}
	.st2{fill:#ECF0F1;}
</style>
<g id="XMLID_1_">
	<path id="XMLID_3_" class="st0" d="M100.3,22c-24.4,0-44.8,19.7-44.8,44.8v177.7v88.9v133.7c0,24.4,19.7,44.8,44.8,44.8h311.4
		c24.4,0,44.8-19.7,44.8-44.8V333.5v-88.9v-88.9L322.9,22H100.3z"/>
	<path id="XMLID_4_" class="st1" d="M100.3,0C75.9,0,55.4,19.7,55.4,44.8v177.7v88.9v133.7c0,24.4,19.7,44.8,44.8,44.8h311.4
		c24.4,0,44.8-19.7,44.8-44.8V311.4v-88.9v-88.9L322.9,0H100.3z"/>
	<path id="XMLID_5_" class="st0" d="M455.8,133.7L322.1,0v88.9c0,24.4,19.7,44.8,44.8,44.8H455.8z"/>
	<path id="XMLID_8_" class="st2" d="M211.2,266.6v155.7h22v-44.8h21.2h1.6c30.7,0,55.8-25.2,55.8-55.8s-25.2-55.8-55.8-55.8h-1.6
		h-21.2h-11h-11V266.6z M234,288.6h21.2h0.8h0.8c18.1,0,33,14.9,33,33c0,18.1-14.2,33-33,33H256h-1.6h-21.2v-66.1H234z"/>
	<path id="XMLID_9_" class="st2" d="M355.9,311.4c-18.1,0-33,14.9-33,33s14.9,33,33,33h11h11c6.3,0,11,4.7,11,11s-4.7,11-11,11h-11
		h-33c-6.3,0-11,4.7-11,11c0,6.3,4.7,11,11,11h33h11c18.1,0,33-14.9,33-33c0-18.1-14.9-33-33-33h-11h-11c-6.3,0-11-4.7-11-11
		c0-6.3,4.7-11,11-11h11h22.8h11c6.3,0,11-4.7,11-11c0-6.3-4.7-11-11-11h-11h-22C367.7,311.4,355.9,311.4,355.9,311.4z"/>
</g>
</svg>
