<?xml version="1.0" encoding="UTF-8" standalone="no"?>
<!-- Generator: Adobe Illustrator 19.0.0, SVG Export Plug-In . SVG Version: 6.00 Build 0)  -->

<svg
   version="1.1"
   id="Layer_1"
   x="0px"
   y="0px"
   viewBox="0 0 512 512"
   style="enable-background:new 0 0 512 512;"
   xml:space="preserve"
   sodipodi:docname="skype.svg"
   inkscape:version="1.2.1 (9c6d41e4, 2022-07-14)"
   xmlns:inkscape="http://www.inkscape.org/namespaces/inkscape"
   xmlns:sodipodi="http://sodipodi.sourceforge.net/DTD/sodipodi-0.dtd"
   xmlns="http://www.w3.org/2000/svg"
   xmlns:svg="http://www.w3.org/2000/svg"><defs
   id="defs7924" /><sodipodi:namedview
   id="namedview7922"
   pagecolor="#ffffff"
   bordercolor="#000000"
   borderopacity="0.25"
   inkscape:showpageshadow="2"
   inkscape:pageopacity="0.0"
   inkscape:pagecheckerboard="0"
   inkscape:deskcolor="#d1d1d1"
   showgrid="false"
   inkscape:zoom="2.3613281"
   inkscape:cx="301.10174"
   inkscape:cy="507.55336"
   inkscape:window-width="1440"
   inkscape:window-height="847"
   inkscape:window-x="0"
   inkscape:window-y="25"
   inkscape:window-maximized="0"
   inkscape:current-layer="Layer_1" />
<g
   id="g7919">
	<g
   id="g7917">
		<g
   id="g7915">
			<path
   d="M496.64,300.373c2.56-14.507,4.267-29.013,4.267-43.52c0-133.973-109.227-243.2-243.2-243.2     c-14.507,0-29.013,1.707-43.52,4.267C192.853,5.973,168.96,0,144.213,0C64.853,0,0,64.853,0,144.213     c0,23.893,5.973,48.64,17.92,69.973c-2.56,14.507-4.267,29.013-4.267,43.52c0,133.973,109.227,243.2,243.2,243.2     c14.507,0,29.013-1.707,43.52-4.267c18.773,10.24,41.813,15.36,69.973,15.36C449.707,512,512,449.707,512,370.347     C512,342.187,506.88,319.147,496.64,300.373z M370.347,494.933c-26.453,0-46.933-5.12-64-14.507l-2.56-1.707l-3.413,0.853     c-14.507,2.56-29.013,4.267-43.52,4.267c-124.587,0-226.133-101.547-226.133-226.133c0-14.507,1.707-29.013,4.267-43.52     l0.853-3.413l-1.707-2.56c-11.093-19.627-17.067-41.813-17.067-64c0-69.973,57.173-127.147,127.147-127.147     c22.187,0,44.373,5.973,64,17.067l2.56,1.707l3.413-0.853c14.507-2.56,29.013-4.267,43.52-4.267     c124.587,0,226.133,101.547,226.133,226.133c0,14.507-1.707,29.013-4.267,43.52l-0.853,3.413l1.707,2.56     c9.387,17.067,14.507,37.547,14.507,64C494.933,440.32,440.32,494.933,370.347,494.933z"
   id="path7911" />
			<path
   d="M278.187,215.04c-64-12.8-73.387-29.013-74.24-33.28c-1.707-5.973,2.56-11.093,6.827-14.507     c11.093-9.387,37.547-17.067,60.587-12.8c8.533,1.707,20.48,5.973,26.453,16.213c14.507,28.16,29.867,50.347,61.44,42.667     c10.24-2.56,17.92-9.387,23.04-19.627c5.973-13.653,5.973-32.427-1.707-46.933c-8.533-16.213-45.227-58.027-116.907-58.027     c-68.267,0-146.773,24.747-146.773,94.72c0,55.467,48.64,94.72,133.12,106.667c42.667,5.973,56.32,19.627,60.587,27.307     c2.56,5.12,2.56,10.24,0.853,15.36c-6.827,16.213-29.867,31.573-65.707,28.16c-40.96-4.267-54.613-40.96-57.173-48.64     c-6.827-21.333-29.867-24.747-41.813-23.893c-5.973,0.853-19.627,5.12-28.16,17.92c-5.12,7.68-10.24,22.187-2.56,44.373     c9.387,29.013,40.96,76.8,145.92,76.8c87.893,0,140.8-55.467,141.653-106.667C403.627,264.533,365.227,232.107,278.187,215.04z      M261.12,410.453c-69.973,0-116.053-23.04-129.707-64.853c-4.267-12.8-4.267-23.04,0.853-29.867s12.8-10.24,16.213-10.24     c0,0,0.853,0,2.56,0c5.12,0,17.92,0.853,19.627,11.093c3.413,9.387,20.48,55.467,71.68,60.587     c45.227,4.267,74.24-17.067,83.627-39.253c4.267-10.24,3.413-21.333-1.707-30.72c-6.827-12.8-25.6-29.013-72.533-35.84     c-44.373-6.827-118.613-26.453-118.613-89.6c0-57.173,69.973-77.653,129.707-77.653c63.147,0,94.72,34.987,101.547,48.64     c4.267,9.387,5.12,23.04,0.853,32.427c-2.56,5.973-6.827,9.387-11.947,10.24c-15.36,3.413-24.747,0-42.667-34.133     c-6.827-12.8-20.48-21.333-38.4-24.747c-26.453-4.267-58.88,2.56-75.093,17.067c-10.24,9.387-14.507,20.48-11.947,31.573     c5.973,20.48,34.133,34.987,87.893,45.227c98.133,19.627,111.787,55.467,111.787,88.747     C384.853,363.52,338.773,410.453,261.12,410.453z"
   id="path7913" />
		</g>
	</g>
</g>
<path
   style="fill:#0000ff;stroke-width:0.42349"
   d="M 142.92804,472.15315 C 81.795694,439.13754 37.708367,382.79919 21.168649,316.55914 c -4.614108,-18.47908 -6.680918,-34.0926 -7.067412,-53.3901 -0.315893,-15.77245 0.570465,-27.81586 3.2629,-44.33469 l 0.777248,-4.76864 -2.062608,-3.91796 C 8.3133953,195.39724 3.0753312,177.66837 1.0527566,159.29032 0.30018192,152.45209 0.19503465,137.20552 0.85521788,130.64682 4.2337535,97.082172 18.337687,67.234474 42.329166,42.876847 l 5.737005,-5.824559 13.530521,0.0016 c 7.441787,8.61e-4 13.349479,0.16111 13.128205,0.35611 -0.221273,0.195 -2.117452,1.574047 -4.21373,3.064548 -24.20357,17.209287 -42.319889,43.438779 -49.547663,71.736974 -6.047673,23.67786 -5.301997,48.21135 2.171954,71.45954 2.638168,8.20618 7.358085,18.90432 11.029446,24.99929 0.805201,1.33674 1.358716,2.60079 1.230034,2.80901 -0.372944,0.60343 -2.696834,15.38687 -3.40363,21.65219 -3.582488,31.75665 -0.340751,63.71789 9.56611,94.31514 10.175893,31.42814 27.336269,60.49265 49.830484,84.39784 19.653128,20.8859 39.744568,35.88767 64.885388,48.44827 10.58073,5.28624 19.36119,8.91234 30.48602,12.58984 l 7.41108,2.44985 -22.65674,0.0114 -22.65674,0.0114 -5.92887,-3.20197 z"
   id="path785" /><path
   style="fill:#0000ff;stroke-width:0.42349"
   d="m 250.07114,427.05273 c -53.09355,-1.85053 -92.97786,-17.38905 -116.50419,-45.38883 -5.40596,-6.43389 -10.66938,-14.8253 -13.7408,-21.90683 -8.60214,-19.83321 -9.70519,-35.80132 -3.37898,-48.91505 5.09417,-10.55979 15.66168,-18.77135 27.86259,-21.65082 2.15411,-0.50839 4.1502,-0.61903 8.14682,-0.45157 7.91729,0.33174 13.63332,1.76753 19.90405,4.99966 8.19407,4.22349 12.74609,9.74137 16.50117,20.00243 6.93581,18.95268 18.98881,33.2407 34.68982,41.12246 4.0663,2.04124 11.969,4.65589 16.77923,5.55151 4.98548,0.92824 19.89142,1.30349 25.50806,0.64215 12.10659,-1.42551 21.69113,-4.73507 30.2888,-10.45877 11.76462,-7.83202 18.02226,-18.29431 16.48627,-27.56373 -1.84978,-11.16309 -14.74917,-21.02573 -35.88747,-27.43892 -7.40402,-2.24631 -14.6262,-3.77033 -27.9385,-5.89556 -22.53434,-3.59747 -37.98174,-7.38241 -53.1354,-13.01931 -46.76345,-17.39517 -73.39976,-45.76643 -77.94412,-83.02099 -0.67738,-5.55313 -0.30977,-19.62131 0.65065,-24.8996 1.86256,-10.23634 6.85899,-22.12523 12.81321,-30.48878 3.16767,-4.44943 11.81731,-13.41868 16.41409,-17.02061 21.22019,-16.62761 51.02374,-26.940025 89.77998,-31.065042 9.80569,-1.043668 33.39994,-1.304247 42.13731,-0.465371 25.42185,2.440756 47.84009,10.073777 66.91149,22.782213 8.33602,5.55479 12.28799,8.78888 19.29683,15.79151 15.45272,15.43904 21.02508,28.00427 20.38203,45.95985 -0.45278,12.64279 -3.65725,21.28675 -10.87227,29.32763 -6.15891,6.86388 -16.46524,10.91557 -27.76608,10.91557 -18.65679,0 -31.54072,-10.73577 -46.75695,-38.96112 -1.69515,-3.14442 -3.80857,-6.69096 -4.69649,-7.88122 -5.57265,-7.47011 -16.52739,-12.63739 -30.05026,-14.17451 -5.35337,-0.60851 -16.17658,-0.29182 -22.23325,0.65055 -12.33838,1.91976 -24.41184,6.46379 -31.79174,11.9653 -5.84856,4.35994 -8.40775,8.2636 -8.40972,12.8278 -0.002,3.7879 1.17634,6.19957 4.73518,9.69427 10.77197,10.57784 33.37802,19.12092 71.25123,26.92662 41.32645,8.51744 68.68224,19.01797 89.28411,34.27177 5.75582,4.26166 15.51343,14.06574 19.21929,19.31082 9.36564,13.25564 14.07225,27.33146 15.1425,45.2859 2.7397,45.96125 -34.72364,90.02894 -89.97841,105.84056 -19.72583,5.6447 -38.41678,7.65837 -63.10008,6.79806 z m 31.55004,-17.52087 c 20.3085,-2.51173 36.85461,-7.54111 52.65885,-16.00627 22.95454,-12.29505 39.98694,-31.30548 47.0837,-52.55169 2.32923,-6.97324 3.17566,-11.82384 3.45588,-19.80449 0.7597,-21.63628 -5.13893,-37.83437 -18.72377,-51.41695 -17.65731,-17.65437 -47.07482,-30.15358 -93.15622,-39.58115 -29.78845,-6.09427 -46.29328,-11.10509 -60.77088,-18.44986 -12.99914,-6.5947 -20.86884,-13.65958 -25.13743,-22.56662 -6.20499,-12.94766 0.53772,-29.56797 16.12862,-39.75595 11.83536,-7.73388 28.50933,-12.6254 46.45803,-13.62906 16.11836,-0.90131 29.41423,1.37901 40.5263,6.95048 5.27195,2.64329 8.47066,4.87729 12.37916,8.64565 4.14977,4.00097 5.93394,6.52728 10.64008,15.06581 13.28529,24.10405 22.20676,31.632 35.49802,29.95328 6.35649,-0.80284 9.18836,-1.86765 12.07525,-4.5404 4.147,-3.8394 6.59155,-9.66055 7.21001,-17.16905 0.62934,-7.64058 -0.631,-15.97567 -3.28978,-21.75645 -2.78392,-6.05288 -11.8001,-16.43078 -19.72399,-22.70294 -14.29683,-11.31664 -33.0178,-19.72085 -52.30828,-23.48219 -10.8302,-2.11171 -15.64145,-2.50578 -30.90761,-2.53147 -26.68444,-0.0449 -47.99636,3.12403 -69.45244,10.32714 -38.98998,13.08948 -59.32962,36.21978 -59.2804,67.41384 0.0474,30.0646 17.02778,53.69721 50.17536,69.83219 18.71917,9.11178 37.86843,14.6468 68.18197,19.70774 14.73508,2.46006 22.74929,4.31421 32.18285,7.44575 21.41018,7.10727 35.24056,17.28477 41.53048,30.56143 2.32072,4.89854 3.24687,9.07207 3.26013,14.69134 0.0179,7.5932 -1.73909,13.33444 -6.30795,20.61178 -12.29499,19.58365 -35.74659,31.43828 -64.5249,32.6169 -29.06151,1.19023 -52.86659,-9.26591 -69.99495,-30.74456 -6.88227,-8.63023 -13.2489,-20.32341 -16.65237,-30.58433 -2.45327,-7.39622 -8.05409,-10.51625 -19.16239,-10.67474 -5.91651,-0.0844 -7.93386,0.49226 -12.57022,3.59325 -5.28025,3.53164 -8.79354,8.13867 -10.1355,13.2908 -0.84914,3.26006 -0.8391,10.53392 0.0208,15.0782 1.54467,8.163 5.93807,18.80651 10.86666,26.32573 17.86106,27.24944 52.56504,42.92554 102.80579,46.43829 8.46872,0.59212 32.28303,0.2245 38.96113,-0.60143 z"
   id="path787" /><path
   style="fill:#0000ff;stroke-width:0.42349"
   d="m 444.09885,471.71132 c 25.02501,-18.2554 41.84207,-44.12669 48.14773,-74.07027 2.26337,-10.74798 2.58723,-14.30273 2.58362,-28.35734 -0.003,-13.69182 -0.44721,-19.22815 -2.35876,-29.43259 -2.21172,-11.80691 -7.20038,-25.83998 -12.05539,-33.91178 -1.24623,-2.07195 -1.37196,-2.5396 -1.02475,-3.81141 1.22185,-4.47542 3.57498,-22.74602 4.22194,-32.78075 2.01158,-31.20042 -3.30348,-64.67439 -15.02986,-94.65735 C 442.70806,108.52972 386.55112,57.743474 318.27848,38.759698 l -5.95424,-1.655628 24.5266,-0.02433 24.5266,-0.02433 6.81925,3.540822 c 46.36166,24.072829 83.32353,61.339118 106.51029,107.387538 23.11741,45.91069 30.83272,95.59116 22.70611,146.20916 l -0.99852,6.21941 1.8681,3.72222 c 5.98829,11.9318 10.25162,27.08538 12.3123,43.76287 1.09306,8.84636 1.09149,33.87777 -0.003,41.50207 -4.57479,31.87974 -17.49073,58.35994 -39.40153,80.78081 l -5.06974,5.18776 H 452.60363 439.0861 l 5.01282,-3.65676 z"
   id="path789" /><path
   style="fill:#0000ff;stroke-width:0.42349"
   d="M 50.395369,35.286404 C 53.331947,32.61399 59.476921,27.9265 64.15881,24.787418 83.669254,11.706183 105.18766,3.8009987 128.95285,0.98413012 c 6.02362,-0.71397457 24.79378,-0.70841295 30.91481,0.00916 17.95411,2.10477318 33.293,6.62061528 48.70141,14.33792288 l 5.50537,2.757372 7.41109,-1.121441 c 30.86485,-4.670449 56.17762,-4.04762 86.18031,2.120494 15.66041,3.219548 37.24771,10.301919 49.54839,16.255854 l 3.38792,1.639867 -24.41902,0.03603 -24.41903,0.03603 -4.43049,-1.046857 c -14.90753,-3.522429 -31.55227,-5.308341 -49.40668,-5.301131 -15.62579,0.0063 -28.02062,1.221163 -46.18212,4.526448 -0.71635,0.130371 -1.88145,-0.308236 -3.59967,-1.355108 -1.39728,-0.851328 -4.63678,-2.558578 -7.1989,-3.793889 -29.9444,-14.437521 -62.7469,-17.087614 -94.10034,-7.602306 -9.036328,2.733746 -19.74349,7.479372 -27.535875,12.204446 l -3.905856,2.368397 -13.457254,-0.01737 -13.457254,-0.01737 z"
   id="path791" /><path
   style="fill:#0000ff;stroke-width:0.42349"
   d="m 355.94376,511.3373 c -19.87855,-1.51961 -37.72244,-6.00942 -51.66584,-12.99996 l -3.81142,-1.91085 -5.78731,0.93021 c -25.07833,4.03094 -46.01317,4.34847 -70.47977,1.069 -23.47049,-3.14595 -46.6559,-9.9165 -68.96736,-20.1397 l -5.90606,-2.70618 22.495,-0.10956 22.49501,-0.10957 6.70304,1.67312 c 21.10631,5.26827 36.85508,7.04191 59.21586,6.66896 15.98626,-0.26663 25.57507,-1.21334 40.07799,-3.95695 3.56854,-0.67508 3.68742,-0.67105 4.87015,0.16505 1.9064,1.34768 7.97794,4.29346 13.06231,6.33755 22.35344,8.98683 54.179,11.40151 79.33673,6.01946 12.99495,-2.78004 26.7759,-8.13511 37.30041,-14.49439 l 3.98092,-2.40541 h 13.4786 13.4786 l -1.79037,1.63488 c -6.59887,6.02578 -18.49053,14.09905 -27.69299,18.8008 -15.84263,8.09438 -30.5202,12.61805 -48.50695,14.94998 -6.23753,0.80867 -24.55618,1.14393 -31.88655,0.58356 z"
   id="path793" /></svg>
