<?xml version="1.0" encoding="UTF-8" standalone="no"?>
<!-- Generator: Adobe Illustrator 19.0.0, SVG Export Plug-In . SVG Version: 6.00 Build 0)  -->

<svg
   version="1.1"
   id="Layer_1"
   x="0px"
   y="0px"
   viewBox="0 0 512 512"
   style="enable-background:new 0 0 512 512;"
   xml:space="preserve"
   sodipodi:docname="skype.svg"
   inkscape:version="1.2.1 (9c6d41e4, 2022-07-14)"
   xmlns:inkscape="http://www.inkscape.org/namespaces/inkscape"
   xmlns:sodipodi="http://sodipodi.sourceforge.net/DTD/sodipodi-0.dtd"
   xmlns="http://www.w3.org/2000/svg"
   xmlns:svg="http://www.w3.org/2000/svg"><defs
   id="defs7924" /><sodipodi:namedview
   id="namedview7922"
   pagecolor="#ffffff"
   bordercolor="#000000"
   borderopacity="0.25"
   inkscape:showpageshadow="2"
   inkscape:pageopacity="0.0"
   inkscape:pagecheckerboard="0"
   inkscape:deskcolor="#d1d1d1"
   showgrid="false"
   inkscape:zoom="2.3613281"
   inkscape:cx="256"
   inkscape:cy="256"
   inkscape:window-width="2557"
   inkscape:window-height="1387"
   inkscape:window-x="0"
   inkscape:window-y="25"
   inkscape:window-maximized="0"
   inkscape:current-layer="Layer_1" />
<g
   id="g7919">
	<g
   id="g7917">
		<g
   id="g7915">
			<path
   d="M496.64,300.373c2.56-14.507,4.267-29.013,4.267-43.52c0-133.973-109.227-243.2-243.2-243.2     c-14.507,0-29.013,1.707-43.52,4.267C192.853,5.973,168.96,0,144.213,0C64.853,0,0,64.853,0,144.213     c0,23.893,5.973,48.64,17.92,69.973c-2.56,14.507-4.267,29.013-4.267,43.52c0,133.973,109.227,243.2,243.2,243.2     c14.507,0,29.013-1.707,43.52-4.267c18.773,10.24,41.813,15.36,69.973,15.36C449.707,512,512,449.707,512,370.347     C512,342.187,506.88,319.147,496.64,300.373z M370.347,494.933c-26.453,0-46.933-5.12-64-14.507l-2.56-1.707l-3.413,0.853     c-14.507,2.56-29.013,4.267-43.52,4.267c-124.587,0-226.133-101.547-226.133-226.133c0-14.507,1.707-29.013,4.267-43.52     l0.853-3.413l-1.707-2.56c-11.093-19.627-17.067-41.813-17.067-64c0-69.973,57.173-127.147,127.147-127.147     c22.187,0,44.373,5.973,64,17.067l2.56,1.707l3.413-0.853c14.507-2.56,29.013-4.267,43.52-4.267     c124.587,0,226.133,101.547,226.133,226.133c0,14.507-1.707,29.013-4.267,43.52l-0.853,3.413l1.707,2.56     c9.387,17.067,14.507,37.547,14.507,64C494.933,440.32,440.32,494.933,370.347,494.933z"
   id="path7911" />
			<path
   d="M278.187,215.04c-64-12.8-73.387-29.013-74.24-33.28c-1.707-5.973,2.56-11.093,6.827-14.507     c11.093-9.387,37.547-17.067,60.587-12.8c8.533,1.707,20.48,5.973,26.453,16.213c14.507,28.16,29.867,50.347,61.44,42.667     c10.24-2.56,17.92-9.387,23.04-19.627c5.973-13.653,5.973-32.427-1.707-46.933c-8.533-16.213-45.227-58.027-116.907-58.027     c-68.267,0-146.773,24.747-146.773,94.72c0,55.467,48.64,94.72,133.12,106.667c42.667,5.973,56.32,19.627,60.587,27.307     c2.56,5.12,2.56,10.24,0.853,15.36c-6.827,16.213-29.867,31.573-65.707,28.16c-40.96-4.267-54.613-40.96-57.173-48.64     c-6.827-21.333-29.867-24.747-41.813-23.893c-5.973,0.853-19.627,5.12-28.16,17.92c-5.12,7.68-10.24,22.187-2.56,44.373     c9.387,29.013,40.96,76.8,145.92,76.8c87.893,0,140.8-55.467,141.653-106.667C403.627,264.533,365.227,232.107,278.187,215.04z      M261.12,410.453c-69.973,0-116.053-23.04-129.707-64.853c-4.267-12.8-4.267-23.04,0.853-29.867s12.8-10.24,16.213-10.24     c0,0,0.853,0,2.56,0c5.12,0,17.92,0.853,19.627,11.093c3.413,9.387,20.48,55.467,71.68,60.587     c45.227,4.267,74.24-17.067,83.627-39.253c4.267-10.24,3.413-21.333-1.707-30.72c-6.827-12.8-25.6-29.013-72.533-35.84     c-44.373-6.827-118.613-26.453-118.613-89.6c0-57.173,69.973-77.653,129.707-77.653c63.147,0,94.72,34.987,101.547,48.64     c4.267,9.387,5.12,23.04,0.853,32.427c-2.56,5.973-6.827,9.387-11.947,10.24c-15.36,3.413-24.747,0-42.667-34.133     c-6.827-12.8-20.48-21.333-38.4-24.747c-26.453-4.267-58.88,2.56-75.093,17.067c-10.24,9.387-14.507,20.48-11.947,31.573     c5.973,20.48,34.133,34.987,87.893,45.227c98.133,19.627,111.787,55.467,111.787,88.747     C384.853,363.52,338.773,410.453,261.12,410.453z"
   id="path7913" />
		</g>
	</g>
</g>
<path
   style="fill:#ee4bc8;fill-opacity:1;stroke-width:0.42349"
   d="m 361.66088,511.53916 c -22.08354,-0.84266 -40.60925,-5.0868 -57.17122,-13.09763 l -4.2349,-2.04838 -3.38793,0.60915 c -5.29879,0.95272 -18.90233,2.64097 -25.17646,3.12451 -11.85783,0.91381 -29.37454,0.47342 -42.79376,-1.07588 C 165.3375,491.71269 106.92487,459.0952 66.65761,408.45699 38.147648,372.60421 20.642785,330.37427 15.446192,284.91102 c -2.456646,-21.49237 -2.004343,-40.24545 1.52984,-63.4292 l 1.130328,-7.4148 -2.962236,-5.92515 C -4.3331648,169.18277 -4.6941746,122.23303 14.17988,82.740818 34.812233,39.569533 75.174533,9.3851963 122.24149,1.9285747 c 14.59079,-2.31155836 33.10292,-2.07032879 48.25293,0.6287785 13.07421,2.3292866 27.70916,7.294464 39.24306,13.3139408 l 4.34461,2.26742 4.76044,-0.775913 c 16.51013,-2.691012 28.55671,-3.577405 44.3265,-3.261564 19.29751,0.386494 34.91103,2.453303 53.39011,7.067412 79.98162,19.970899 145.38606,80.527561 171.52851,158.814811 12.62984,37.82178 15.68245,75.73165 9.24556,114.81844 l -0.90377,5.48799 2.55106,5.38194 c 6.14735,12.969 9.90113,27.01442 11.81662,44.21395 0.92274,8.28532 1.04543,29.28708 0.21102,36.1258 -2.27562,18.65141 -6.89163,34.03109 -14.96234,49.85203 -15.34958,30.08963 -41.42961,53.63266 -73.25882,66.13249 -13.42787,5.2733 -29.73504,8.80474 -43.3395,9.38548 -2.79504,0.11929 -6.13003,0.27264 -7.41109,0.34078 -1.28106,0.0681 -5.95004,-0.0144 -10.37551,-0.1832 z m 27.11673,-17.68268 c 7.23131,-1.11039 14.296,-2.71212 20.19861,-4.57937 42.64848,-13.49186 73.92837,-47.9276 83.29166,-91.69503 4.62134,-21.60202 3.58633,-48.0272 -2.73426,-69.80819 -2.22392,-7.66378 -7.00475,-18.8875 -9.62276,-22.59085 -0.83695,-1.18393 -0.84068,-1.29797 -0.15953,-4.87014 0.98186,-5.14898 2.22696,-13.57779 3.10524,-21.02092 0.5934,-5.02918 0.75161,-9.79264 0.75957,-22.86849 0.011,-18.05085 -0.36822,-23.1724 -2.7623,-37.31372 C 472.19465,167.96159 446.16396,121.40038 406.9019,86.831503 359.20395,44.835112 296.02451,24.896309 233.13151,31.991308 c -6.26533,0.706796 -21.04875,3.030685 -21.65218,3.40363 -0.20822,0.128682 -1.47227,-0.424834 -2.80902,-1.230035 C 205.05368,31.986387 198.9206,28.99257 193.59833,26.807622 167.28447,16.00502 139.45021,14.006335 112.21148,20.963503 88.781016,26.947988 65.654641,41.05816 49.437767,59.263839 14.566054,98.412143 7.0919568,153.15505 30.093744,200.94624 c 1.233142,2.56211 2.942427,5.80182 3.798413,7.19933 l 1.556337,2.54095 -0.680048,3.59967 c -1.258865,6.66349 -2.758242,17.94224 -3.462334,26.04466 -0.852938,9.81528 -0.639357,31.80385 0.39695,40.86683 2.025887,17.71733 5.103274,31.83548 10.431015,47.85443 6.432896,19.34183 14.561055,35.99699 26.040989,53.3598 30.3973,45.97434 77.027454,79.67478 129.806734,93.81365 30.88513,8.27373 59.7994,9.8384 93.16791,5.04174 4.0761,-0.58595 8.55375,-1.32837 9.95034,-1.64984 l 2.53925,-0.58446 2.33089,1.4018 c 3.58919,2.15853 6.06123,3.31707 12.49466,5.85577 9.99881,3.94566 20.1143,6.39128 31.76178,7.67911 9.15075,1.01176 9.03006,1.00685 21.38627,0.8665 9.00024,-0.10223 12.89974,-0.32477 17.16471,-0.9797 z"
   id="path8289" /><path
   style="fill:#ee4bc8;fill-opacity:1;stroke-width:0.42349"
   d="m 247.95368,427.05233 c -10.25899,-0.6637 -16.38651,-1.19212 -22.0215,-1.89908 -57.71268,-7.24056 -96.01836,-33.38426 -109.69118,-74.86442 -2.98911,-9.06826 -3.96686,-15.11396 -3.67425,-22.71894 0.27629,-7.18088 1.47325,-12.02515 4.34526,-17.58589 4.75643,-9.20932 13.76745,-16.54516 24.74556,-20.14528 3.1766,-1.04172 4.22183,-1.17881 8.8933,-1.16646 16.16408,0.0428 29.47982,6.92105 35.5256,18.35089 0.67979,1.28516 1.83089,4.05179 2.55802,6.14807 5.03932,14.5281 15.11174,28.5509 26.07519,36.30179 11.23941,7.946 21.92846,11.39859 37.26716,12.03741 26.97874,1.12359 50.50154,-9.62965 58.7872,-26.87403 1.53058,-3.18551 1.70997,-3.91139 1.88382,-7.62283 0.16157,-3.44929 0.0438,-4.54011 -0.74038,-6.85475 -3.46008,-10.21365 -16.97196,-19.35418 -37.22918,-25.18482 -6.69523,-1.92708 -13.85049,-3.40815 -23.76019,-4.91809 -21.86846,-3.33211 -37.26841,-6.9762 -52.80117,-12.49432 -40.628,-14.43339 -66.96223,-37.53496 -76.74223,-67.32173 -6.57829,-20.03539 -5.42584,-42.64357 3.08584,-60.53596 15.70729,-33.01832 57.21106,-54.48703 115.43252,-59.709936 43.27293,-3.88191 77.40489,3.324787 106.61353,22.510616 15.09946,9.91816 28.4036,23.68836 34.30691,35.50872 8.48611,16.99199 7.05745,39.31647 -3.38747,52.93295 -5.89772,7.68854 -13.88963,11.95283 -25.02917,13.35498 -7.67787,0.96641 -14.88315,-0.23037 -21.6508,-3.59617 -11.04029,-5.49072 -19.96187,-16.13809 -31.15815,-37.18536 -3.19591,-6.00781 -5.973,-9.20363 -10.77318,-12.39756 -8.23864,-5.4818 -17.93291,-7.93388 -31.33252,-7.92529 -18.11866,0.0117 -36.00464,5.29309 -46.75675,13.80657 -2.98302,2.36194 -6.04905,6.21316 -6.8298,8.57887 -0.67506,2.04541 -0.3362,6.34367 0.66369,8.41886 1.19473,2.47955 5.82532,6.97082 9.93857,9.63956 13.23217,8.5852 33.33011,15.3567 65.00579,21.90207 30.81969,6.36849 52.03299,13.21618 70.72291,22.82949 24.49481,12.59908 39.99176,28.6936 47.75967,49.60127 4.42942,11.92198 6.40089,28.82893 4.79005,41.07858 -5.42739,41.27278 -40.8593,77.21742 -90.02613,91.3289 -9.67355,2.77643 -20.32208,4.80154 -31.97603,6.08113 -4.14571,0.45519 -28.21646,0.88804 -32.82051,0.59019 z m 22.86849,-16.69317 c 36.81893,-2.03911 67.87875,-14.49579 89.15473,-35.75591 18.02054,-18.00711 26.53401,-39.29835 24.81919,-62.07006 -1.36553,-18.1335 -6.89219,-30.86158 -18.47682,-42.55269 -17.91992,-18.08465 -46.71182,-30.22805 -95.364,-40.22114 -13.4026,-2.75287 -24.02102,-5.33328 -32.98056,-8.0147 -28.63988,-8.57134 -45.53923,-19.66893 -51.55557,-33.85588 -1.10496,-2.60559 -1.31275,-3.69451 -1.46806,-7.69358 -0.27452,-7.06867 1.26603,-12.32267 5.39676,-18.40544 7.69676,-11.33398 21.25759,-19.10545 41.30146,-23.66913 8.18568,-1.86376 13.43924,-2.36496 24.56245,-2.34335 12.06384,0.0235 16.81842,0.65417 24.90852,3.30429 9.83322,3.22113 15.8983,6.81862 22.09892,13.10797 4.31691,4.37869 4.81735,5.1136 10.99575,16.14793 9.07149,16.20125 16.96461,24.93298 24.69739,27.32139 4.90739,1.51574 14.25528,0.77871 18.69348,-1.47387 9.16284,-4.65053 13.07463,-20.59223 8.88257,-36.19907 -1.20273,-4.47773 -3.68415,-8.9736 -7.76261,-14.06444 -14.71056,-18.36206 -39.05965,-31.95352 -66.94082,-37.36579 -26.30188,-5.1057 -66.28931,-2.41158 -94.65013,6.37697 -9.3261,2.89 -13.51778,4.53252 -21.38627,8.38026 -21.11214,10.32396 -34.15446,23.77891 -39.80425,41.06356 -3.89064,11.90281 -3.96118,26.9519 -0.18589,39.65999 5.93955,19.9933 20.9266,36.21025 44.65216,48.31654 19.24358,9.81929 40.42308,16.13552 70.90976,21.14697 28.73173,4.72298 46.00593,10.83918 59.64928,21.11975 16.51118,12.44155 21.84555,31.1769 13.56506,47.64324 -6.16829,12.26609 -16.31546,21.77339 -30.51075,28.58677 -8.81755,4.2322 -18.39515,6.9042 -28.79631,8.03371 -5.14779,0.55902 -17.89691,0.56701 -23.14239,0.0145 -20.78925,-2.18974 -39.3298,-12.00884 -52.60908,-27.86183 -8.01877,-9.57293 -16.33369,-24.48495 -18.997,-34.06932 -0.70191,-2.52593 -3.29368,-5.52984 -5.91894,-6.86016 -3.94563,-1.9994 -6.61712,-2.52165 -12.99588,-2.54055 l -5.97414,-0.0177 -3.75537,1.9014 c -4.65941,2.35913 -9.5004,6.94585 -11.327,10.73205 -3.54369,7.3454 -2.96441,17.84553 1.66875,30.24793 12.41853,33.24294 45.10066,53.85813 95.44958,60.20757 14.27509,1.80021 30.26906,2.43775 43.19603,1.72182 z"
   id="path8291" /><path
   style="fill:#ff00ff;stroke-width:0.42349"
   d="m 360.60215,511.29794 c -22.99464,-1.36715 -37.58083,-4.72848 -55.16554,-12.71272 l -5.19367,-2.35812 -5.81709,0.90144 c -18.17021,2.81575 -31.14909,3.66159 -46.36554,3.02174 -11.49113,-0.48321 -16.35551,-0.89924 -25.30431,-2.16421 -37.9963,-5.37088 -74.61084,-20.06375 -106.29611,-42.65506 -48.985671,-34.9263 -83.668979,-87.10322 -96.531056,-145.2195 -4.497383,-20.32106 -6.504753,-42.09942 -5.569342,-60.42287 0.552213,-10.81713 0.827122,-13.57797 2.621476,-26.32684 l 1.315445,-9.34622 -1.683938,-3.35849 C 2.5350452,182.58065 -2.3154311,153.4389 2.0913245,123.41376 7.9119043,83.755608 30.394525,48.106864 63.963407,25.308552 90.07838,7.5725618 120.5687,-0.92379522 151.85492,0.81691663 173.40769,2.0160761 190.68343,6.5859149 209.65541,16.1065 l 4.40818,2.212128 7.59241,-1.158407 c 12.95637,-1.976815 17.81092,-2.379877 31.64904,-2.627748 30.12793,-0.539657 53.36826,2.953001 80.91257,12.15989 78.94305,26.387296 139.24006,91.742107 159.13996,172.488847 4.90127,19.8875 6.90603,36.29349 6.89142,56.3953 -0.0106,14.53096 -0.58171,21.86153 -2.9134,37.39489 l -1.09989,7.32707 2.35651,5.1659 c 5.8623,12.85126 8.8349,23.10691 11.31728,39.04515 0.78257,5.02463 0.95484,8.30073 1.12949,21.48081 0.13967,10.54111 0.0444,16.95419 -0.29564,19.90405 -2.06968,17.95294 -7.0684,34.52607 -15.14902,50.22591 -12.50588,24.29777 -32.15123,44.41162 -56.64642,57.99736 -22.69847,12.58923 -51.0386,18.80387 -78.34575,17.18029 z m 29.85608,-17.48795 c 26.51932,-4.46232 49.12448,-15.63125 67.27765,-33.24104 26.32802,-25.53995 39.44611,-60.45884 37.33298,-99.37634 -1.12208,-20.66498 -4.82987,-35.90549 -12.50716,-51.40931 l -3.14565,-6.35236 1.02947,-5.96185 c 2.75019,-15.92727 2.89798,-17.73175 3.0847,-37.65767 0.19392,-20.69988 -0.0998,-26.118 -2.06642,-38.11415 -3.96438,-24.18229 -10.6142,-44.85171 -21.28802,-66.16875 C 432.90892,101.07293 384.51834,59.56769 326.80637,41.135769 304.4148,33.984401 281.9663,30.495788 258.3292,30.494066 c -14.02199,-0.001 -24.64466,0.908878 -39.93146,3.420387 l -7.53444,1.237853 -3.40001,-1.961125 c -4.02745,-2.323029 -12.50336,-6.198199 -18.24366,-8.34096 -24.20258,-9.034441 -51.71489,-10.512462 -76.73767,-4.122516 -8.65923,2.211269 -15.951177,4.968462 -24.810082,9.38107 C 62.130197,42.831045 41.986842,63.031969 29.648712,88.297768 17.512015,113.15107 13.862468,140.82665 19.079278,168.44886 c 2.40794,12.74967 8.01058,28.24719 13.993022,38.70624 l 2.098001,3.66792 -0.855192,4.80189 c -1.386636,7.78595 -2.961805,21.14365 -3.460636,29.34678 -0.501882,8.2533 -0.222446,27.38359 0.506164,34.65218 6.875602,68.59079 44.035027,129.78509 101.827123,167.68936 29.92408,19.62637 62.90678,31.42571 99.94376,35.75424 7.86011,0.9186 34.71284,1.0614 42.77254,0.22746 8.16026,-0.8444 15.23499,-1.77841 21.72377,-2.86809 l 6.05462,-1.0168 3.68566,2.07218 c 10.26032,5.76866 26.57104,10.68628 41.37631,12.47476 3.02796,0.36577 6.17237,0.74632 6.98759,0.84567 0.81522,0.0993 7.77105,0.11705 15.45741,0.0394 11.78778,-0.11917 14.80374,-0.28069 19.26881,-1.032 z"
   id="path899" /><path
   style="fill:#ff00ff;stroke-width:0.42349"
   d="m 240.96609,426.44148 c -15.59863,-1.33712 -27.9875,-3.22031 -38.84366,-5.90451 -34.46407,-8.52127 -58.8324,-24.10687 -74.83815,-47.86534 -5.56364,-8.2585 -11.66991,-22.96019 -13.63554,-32.82945 -0.98236,-4.93235 -1.00176,-15.56923 -0.0364,-19.95597 1.59444,-7.2454 5.52062,-14.2133 10.95955,-19.45026 4.81779,-4.6389 9.52609,-7.54993 16.45044,-10.17094 2.98941,-1.13155 3.54973,-1.20091 9.52854,-1.17948 13.043,0.0468 22.26447,3.48233 29.87702,11.13108 4.02548,4.04462 5.60679,6.69705 8.35438,14.01334 9.18312,24.45278 27.41683,41.38126 49.46508,45.92424 8.93837,1.84172 24.11089,1.9603 33.18018,0.25933 18.97933,-3.55963 33.0777,-12.75779 39.53832,-25.79587 1.75201,-3.53569 1.7554,-3.552 1.76863,-8.49143 0.013,-4.86797 -0.0125,-5.00104 -1.55935,-8.13271 -3.53803,-7.16284 -11.47426,-13.49588 -23.2016,-18.51466 -10.05609,-4.30356 -19.09158,-6.62668 -38.11414,-9.79955 -7.10405,-1.18491 -15.77502,-2.73546 -19.26882,-3.44566 -36.0615,-7.33035 -66.18173,-21.41455 -85.87471,-40.15498 -24.43357,-23.25171 -33.41873,-57.41437 -23.18673,-88.15875 12.86481,-38.65526 57.95423,-63.367753 124.37732,-68.168411 9.11173,-0.658541 30.23521,-0.301269 37.83218,0.639874 32.86014,4.070848 61.10495,17.222677 81.94885,38.158417 13.06183,13.11938 18.60689,23.8079 20.17988,38.89822 1.15762,11.10556 -1.97975,23.96785 -7.84483,32.16149 -6.55487,9.1573 -16.00331,13.95241 -28.65623,14.54313 -8.70468,0.40639 -15.53355,-1.45494 -22.68257,-6.18253 -8.64329,-5.71575 -15.79693,-14.66616 -25.18452,-31.51009 -2.18345,-3.91772 -4.83823,-8.20094 -5.89949,-9.51828 -5.17546,-6.42421 -14.31172,-11.14763 -25.20104,-13.02885 -5.1776,-0.89447 -18.40474,-1.03324 -24.3507,-0.25546 -20.08828,2.6277 -37.04822,11.04214 -41.79351,20.73525 -0.96896,1.97929 -1.06947,2.58938 -0.85266,5.17555 0.33078,3.94558 1.18577,5.59515 4.7233,9.11292 3.74198,3.72108 8.18749,6.6715 15.26612,10.1319 13.2805,6.49218 28.35424,10.95408 61.40613,18.17652 27.62121,6.03573 44.47524,11.47735 61.82961,19.96276 19.81715,9.68959 33.05142,20.43253 42.50691,34.50509 7.01285,10.43717 10.8854,20.75972 13.02769,34.72622 1.02919,6.70969 1.03973,19.83897 0.0204,25.40943 -2.95298,16.13762 -9.50708,30.45832 -20.19355,44.12287 -3.88181,4.96359 -14.2171,15.16981 -19.48056,19.2373 -21.7636,16.81842 -45.97569,26.50559 -76.65178,30.66811 -5.51828,0.74879 -9.26302,0.91544 -23.50373,1.046 -9.31679,0.0854 -18.94061,-0.0162 -21.38627,-0.22586 z m 40.01985,-16.70339 c 41.04335,-4.84312 72.9463,-22.26729 91.38281,-49.90979 11.0395,-16.5519 15.07367,-36.08254 11.56331,-55.98137 -3.60728,-20.44817 -14.69544,-35.40082 -35.70968,-48.15536 -17.15396,-10.41155 -40.22996,-18.25649 -76.34148,-25.95313 -20.49365,-4.36792 -31.18683,-7.15609 -42.42871,-11.063 -23.73449,-8.24848 -38.01028,-18.78397 -43.19751,-31.87963 -0.7994,-2.01817 -0.9361,-3.17446 -0.93051,-7.87108 0.006,-4.89422 0.13596,-5.88147 1.17226,-8.8933 4.6841,-13.61353 18.88572,-24.54243 39.08909,-30.08113 12.13487,-3.32674 20.29776,-4.25844 34.01415,-3.88232 10.00198,0.27426 14.06874,0.89625 21.35154,3.2656 10.07468,3.27765 16.47037,7.21882 23.11496,14.24399 3.05148,3.22625 4.33465,5.09138 8.42586,12.2473 6.98009,12.20886 10.90084,17.84703 15.90774,22.87589 3.44801,3.46312 4.88832,4.5842 7.61714,5.92887 3.26631,1.60952 3.515,1.66233 8.4698,1.7984 5.59469,0.15364 10.03508,-0.5375 13.15418,-2.04743 2.791,-1.3511 5.57346,-4.45479 7.40196,-8.25653 2.41069,-5.01219 3.18627,-8.99018 3.13753,-16.09264 -0.0924,-13.47008 -3.85329,-21.3901 -15.79182,-33.256 -14.04738,-13.96194 -31.94807,-23.50545 -54.45749,-29.0333 -19.1369,-4.69962 -44.83629,-5.20791 -71.36366,-1.41146 -32.35578,4.63059 -59.02622,15.68783 -74.89923,31.05228 -9.32381,9.0251 -14.93358,19.04726 -17.69437,31.61202 -0.647,2.94455 -0.78184,5.33796 -0.76224,13.52943 0.0207,8.65134 0.14584,10.5007 0.95747,14.15012 5.2799,23.74045 21.09894,41.58592 48.9906,55.26633 17.79223,8.7268 37.02816,14.35007 66.9115,19.56036 27.12806,4.72989 42.30861,9.48185 54.40027,17.02891 12.46862,7.78233 19.37338,16.13256 22.55076,27.27161 1.33413,4.67709 1.33413,12.50689 0,17.18397 -2.23895,7.84916 -6.78334,15.12097 -13.81946,22.11351 -11.24963,11.17993 -26.84776,18.50919 -45.08235,21.18331 -7.2871,1.06866 -26.39097,0.71587 -32.84821,-0.6066 -26.45507,-5.41813 -46.23072,-21.63286 -59.70353,-48.95301 -1.49323,-3.02795 -3.29596,-7.17003 -4.00607,-9.20461 -1.74948,-5.01257 -2.24652,-5.8786 -4.52493,-7.88414 -3.51441,-3.09351 -8.09224,-4.29099 -16.41948,-4.29506 l -5.01462,-0.002 -3.8476,1.9872 c -2.88868,1.49195 -4.6477,2.78486 -7.058,5.18776 -5.06494,5.04941 -6.59825,9.12836 -6.53609,17.38748 0.0885,11.75914 5.95953,27.0409 14.85644,38.66996 2.72995,3.5683 9.42427,10.45053 13.07681,13.4439 20.1806,16.5386 49.90846,25.98092 89.74115,28.50404 6.37138,0.40359 29.46559,-0.10817 35.14971,-0.7789 z"
   id="path901" /></svg>
