<?xml version="1.0" encoding="UTF-8" standalone="no"?>
<!-- Svg Vector Icons : http://www.onlinewebfonts.com/icon -->

<svg
   version="1.1"
   x="0px"
   y="0px"
   viewBox="0 0 1000 1000"
   enable-background="new 0 0 1000 1000"
   xml:space="preserve"
   id="svg63"
   sodipodi:docname="study.svg"
   inkscape:version="1.2.1 (9c6d41e4, 2022-07-14)"
   xmlns:inkscape="http://www.inkscape.org/namespaces/inkscape"
   xmlns:sodipodi="http://sodipodi.sourceforge.net/DTD/sodipodi-0.dtd"
   xmlns="http://www.w3.org/2000/svg"
   xmlns:svg="http://www.w3.org/2000/svg"><defs
   id="defs67" /><sodipodi:namedview
   id="namedview65"
   pagecolor="#ffffff"
   bordercolor="#000000"
   borderopacity="0.25"
   inkscape:showpageshadow="2"
   inkscape:pageopacity="0.0"
   inkscape:pagecheckerboard="0"
   inkscape:deskcolor="#d1d1d1"
   showgrid="false"
   inkscape:zoom="1.209"
   inkscape:cx="499.58644"
   inkscape:cy="500"
   inkscape:window-width="2554"
   inkscape:window-height="1387"
   inkscape:window-x="0"
   inkscape:window-y="25"
   inkscape:window-maximized="0"
   inkscape:current-layer="svg63" />
<metadata
   id="metadata53"> Svg Vector Icons : http://www.onlinewebfonts.com/icon </metadata>
<g
   id="g61"><path
     d="M408.9,595.5l-249.7-86.3v179.6c0,79,61.8,109.9,140.3,149.1c4.2,2,103.3,49.4,200.5,49.4c101.8,0,196.7-47.6,202-50.3c71.2-36,138.5-69.9,138.5-148.3V509.2l-251.4,87.1C537.9,619.2,463.9,620,408.9,595.5z M792.9,576.1v112.7c0,46.8-40.6,69.5-113.7,106.4c-0.9,0.5-88.7,44.5-179.1,44.5c-86.1,0-178.8-44.2-179.5-44.6c-78.8-39.3-113.6-58.8-113.6-106.3V576.1l184.4,63.7c63,28.3,155.9,27.6,215.4,0.8L792.9,576.1z"
     id="path55" /><path
     d="M946.6,283.5l-365.7-154c-21.8-10.8-50.6-16.8-80.9-16.8c-30.4,0-59.1,6-79.5,16.2L51.9,284.1C15.4,302.3,10,326.9,10,339.9c0,13,5.5,37.5,42,55.5l368.7,127.2c43.1,20,115.5,20,158.6,0l277-95.7V485c0,29.9,24.5,53.3,55.9,53.3c30.4,0,55.1-23.9,55.1-53.3V382.5c20-16,22.9-34,22.6-44.2C989.6,325.9,983.7,302.1,946.6,283.5z M931.7,349.3l-12,6.9V485c0,7.4-15.7,7.5-15.7,0V360L562.5,478l-2.5,1c-30.5,14.5-89.7,14.5-120.1,0L71.8,352.1c-11.7-6.1-14.2-11.4-14.2-12.3c0-0.9,2.7-6.6,14.2-12.4l368.5-155.2c30.2-15,87.9-15.6,120.8,0.6l365.6,153.9c12.4,6.2,15.5,11.9,15.7,13C942.2,340.5,940.1,344.5,931.7,349.3z"
     id="path57" /><path
     d="M912.2,612.4c-17.9,0-32.6,13.4-34.1,30.3l-15.3,59.5l-0.5,4.5c0,26.5,21.9,47.3,49.9,47.3c27.1,0,49.2-21.3,49.2-47.3l-15.8-63.9C944.3,625.8,929.8,612.4,912.2,612.4z M912.2,718.3c-7.3,0-13.1-4.2-14.1-9.9l13.7-53.3l13.6,53.3C924.6,713.9,919,718.3,912.2,718.3z"
     id="path59" /></g>
<path
   style="fill:#ff00ff;stroke-width:0.82713"
   d="m 897.58197,535.95655 c -16.02771,-4.19856 -28.69446,-14.3708 -35.64442,-28.62485 -4.72713,-9.69498 -5.00537,-12.35969 -5.01877,-48.06785 -0.01,-25.42713 -0.2364,-32.45954 -1.04616,-32.44038 -0.56865,0.0135 -63.93714,21.83346 -140.81886,48.48892 -76.88172,26.65546 -144.43755,50.07385 -150.12407,52.04087 -19.00133,6.57274 -38.78982,9.45402 -64.92969,9.45402 -26.13904,0 -45.92709,-2.88112 -64.92969,-9.45369 -5.68652,-1.96684 -94.37452,-32.63452 -197.08444,-68.15042 C 35.872843,389.31483 45.383011,392.87343 32.632628,382.36208 c -10.320619,-8.50826 -17.70164,-19.54415 -20.668892,-30.9035 -2.0342934,-7.78778 -1.335613,-20.79571 1.515391,-28.21334 5.304478,-13.80098 16.375461,-25.82106 32.42658,-35.20646 3.18445,-1.86201 87.303553,-37.69129 186.931353,-79.6206 99.62779,-41.92931 185.23573,-78.01349 190.23986,-80.18706 23.67929,-10.2852 47.55478,-14.91433 76.92308,-14.91433 27.65606,0 53.264,4.73612 74.203,13.72367 3.77065,1.61845 88.55548,37.36592 188.41073,79.43882 99.85525,42.0729 183.78826,77.64504 186.51778,79.0492 16.88842,8.688 29.38065,20.6779 35.58826,34.15721 3.84797,8.35554 4.8067,13.37309 4.32523,22.63679 -0.68793,13.23638 -5.92176,24.13639 -16.72184,34.82484 l -5.40835,5.35245 v 53.62406 c 0,59.84072 -0.024,60.14624 -5.63714,71.7339 -4.05344,8.36781 -14.5622,19.04734 -23.06386,23.43863 -12.1818,6.29215 -27.63573,8.06461 -40.63184,4.66019 z m 20.32539,-46.80949 1.86104,-1.17858 v -65.66657 -65.66657 l 5.58313,-3.0845 c 8.13135,-4.4923 15.37816,-9.79766 16.66344,-12.19912 0.99735,-1.86371 0.92481,-2.37019 -0.65831,-4.59345 -4.42035,-6.20779 -8.47395,-8.00616 -195.69909,-86.82064 C 645.11993,207.61521 560.6802,172.01714 558.01371,170.8308 c -28.32759,-12.60308 -80.82989,-13.67224 -110.2568,-2.24526 -2.20095,0.85467 -88.08172,36.98573 -190.84615,80.29125 -110.10899,46.40055 -188.67953,79.95539 -191.312774,81.70323 -4.412839,2.92908 -8.526026,7.38635 -8.526026,9.23926 0,1.574 5.611419,7.28893 9.762435,9.9425 2.597055,1.6602 63.943205,23.18627 185.026645,64.92498 99.62779,34.34272 185.60794,64.10944 191.067,66.14825 17.88591,6.67994 33.83792,9.18608 57.89909,9.09627 23.95941,-0.0894 39.96325,-2.74853 57.07196,-9.48275 4.54921,-1.79064 84.01572,-29.4208 176.59223,-61.40035 l 168.32092,-58.14465 0.41357,63.01126 c 0.34003,51.81033 0.61588,63.25491 1.55153,64.38198 2.46418,2.96833 9.10628,3.39846 13.13002,0.85029 z"
   id="path449" /><path
   style="fill:#ff00ff;stroke-width:0.82713"
   d="m 477.25393,886.15976 c -40.34378,-3.64754 -77.28509,-11.59869 -119.05584,-25.62524 -31.71276,-10.6491 -52.38091,-19.53316 -84.83167,-36.46428 -24.93831,-13.01152 -33.98467,-18.16132 -47.55997,-27.07438 -26.0149,-17.08047 -44.61585,-36.11441 -54.55905,-55.82912 -3.29297,-6.52906 -7.15217,-17.82309 -9.29058,-27.18907 -1.82612,-7.99817 -1.83245,-8.31687 -2.10509,-105.83044 -0.16065,-57.46176 0.033,-97.80811 0.46942,-97.80811 1.28248,0 242.35651,83.47894 253.54173,87.79625 28.38297,10.95535 54.13774,15.5959 86.54561,15.59398 28.21886,-0.002 50.07919,-3.34973 72.7925,-11.14868 7.05128,-2.42116 23.61456,-8.21141 36.80728,-12.86722 13.19272,-4.65582 70.41977,-24.55 127.17122,-44.20931 l 103.18445,-35.74418 -0.002,90.23995 c -0.002,57.72027 -0.32225,93.65004 -0.8892,99.70271 -3.68188,39.30681 -25.25617,70.35274 -68.58688,98.69818 -24.21335,15.83952 -74.23923,41.65162 -101.73698,52.49371 -45.06321,17.76798 -87.3997,28.78523 -129.85938,33.79339 -10.63926,1.25491 -53.25168,2.26595 -62.03474,1.47186 z m 55.00413,-47.89624 c 38.07116,-3.95511 78.10047,-14.25559 121.14588,-31.17366 13.84842,-5.44283 55.49903,-26.11418 73.64321,-36.54939 33.63259,-19.34302 51.04362,-34.59922 59.54799,-52.17819 6.4421,-13.31613 6.10412,-9.11764 6.40867,-79.61125 0.14987,-34.68775 0.12743,-63.06865 -0.0498,-63.06865 -0.80595,0 -188.8914,65.53921 -196.62829,68.51599 -31.19263,12.00145 -68.56601,17.33 -110.1801,15.70906 -30.17935,-1.17554 -60.8198,-7.15551 -84.36629,-16.46543 -6.87032,-2.71642 -193.8527,-67.75962 -194.79138,-67.75962 -0.14989,0 -0.14597,28.7531 0.009,63.89578 0.2574,58.47626 0.40666,64.31419 1.7598,68.82874 8.61497,28.7425 29.70882,45.98055 98.10875,80.17524 56.93888,28.46506 120.62779,47.01052 174.93796,50.93988 12.36807,0.89484 35.21219,0.32504 50.45492,-1.2585 z"
   id="path451" /><path
   style="fill:#ff00ff;stroke-width:0.82713"
   d="m 900.97394,752.26543 c -10.59196,-2.30152 -20.99203,-8.56736 -27.83501,-16.77005 -5.91779,-7.09367 -10.44249,-19.30278 -10.44249,-28.17727 0,-1.58544 3.49246,-16.49847 7.76101,-33.14007 4.26855,-16.64159 8.01619,-31.74628 8.32809,-33.56596 1.45717,-8.50149 7.23283,-17.1476 14.6625,-21.94962 17.15209,-11.08594 39.25788,-5.28969 48.23093,12.64637 1.59683,3.19188 2.89663,6.59088 2.88845,7.55333 -0.008,0.96246 3.765,16.95601 8.38487,35.54123 l 8.39976,33.79131 -1.27624,6.47806 c -0.70194,3.56293 -2.51833,9.01441 -4.03644,12.11439 -3.5393,7.22733 -13.11831,17.03843 -20.29582,20.78758 -10.41892,5.44229 -23.30818,7.18116 -34.76961,4.6907 z m 17.61878,-35.05809 c 4.00506,-1.81901 6.96559,-5.29311 6.96559,-8.17392 0,-1.66089 -4.98794,-21.95845 -12.51518,-50.92833 -0.45519,-1.75187 -1.08032,-2.93252 -1.38918,-2.62366 -0.30886,0.30886 -3.59442,12.35015 -7.30124,26.75843 -6.07679,23.62024 -6.63759,26.44093 -5.70171,28.67825 2.79881,6.69088 12.39428,9.7171 19.94172,6.28923 z"
   id="path453" /></svg>
