<?xml version="1.0" encoding="UTF-8" standalone="no"?>
<!-- Generator: Adobe Illustrator 19.0.0, SVG Export Plug-In . SVG Version: 6.00 Build 0)  -->

<svg
   version="1.1"
   id="Layer_1"
   x="0px"
   y="0px"
   viewBox="0 0 512 512"
   style="enable-background:new 0 0 512 512;"
   xml:space="preserve"
   sodipodi:docname="telegram.svg"
   inkscape:version="1.2.1 (9c6d41e4, 2022-07-14)"
   xmlns:inkscape="http://www.inkscape.org/namespaces/inkscape"
   xmlns:sodipodi="http://sodipodi.sourceforge.net/DTD/sodipodi-0.dtd"
   xmlns="http://www.w3.org/2000/svg"
   xmlns:svg="http://www.w3.org/2000/svg"><defs
   id="defs8753" /><sodipodi:namedview
   id="namedview8751"
   pagecolor="#ffffff"
   bordercolor="#000000"
   borderopacity="0.25"
   inkscape:showpageshadow="2"
   inkscape:pageopacity="0.0"
   inkscape:pagecheckerboard="0"
   inkscape:deskcolor="#d1d1d1"
   showgrid="false"
   inkscape:zoom="2.3613281"
   inkscape:cx="308.72457"
   inkscape:cy="340.27461"
   inkscape:window-width="1440"
   inkscape:window-height="847"
   inkscape:window-x="0"
   inkscape:window-y="25"
   inkscape:window-maximized="0"
   inkscape:current-layer="Layer_1" />
<g
   id="g8736">
	<g
   id="g8734">
		<g
   id="g8732">
			<path
   d="M385.268,121.919l-210.569,129.69c-11.916,7.356-17.555,21.885-13.716,35.323l22.768,80     c1.945,6.821,8.015,11.355,14.999,11.355c0.389,0,0.782-0.014,1.176-0.043c7.466-0.542,13.374-6.103,14.367-13.515l5.92-43.866     c0.798-5.902,3.642-11.392,8.001-15.45l173.765-161.524c5.251-4.869,5.945-12.842,1.618-18.545     C399.263,119.636,391.388,118.16,385.268,121.919z M214.32,290.478c-7.808,7.268-12.895,17.089-14.323,27.655l-2.871,21.278     l-16.527-58.072c-1.343-4.704,0.635-9.791,4.805-12.365l154.258-95.007L214.32,290.478z"
   id="path8728" />
			<path
   d="M503.67,37.382c-6.579-5.576-15.657-7.111-23.698-4.005L15.08,212.719C5.873,216.27-0.047,224.939,0,234.804     c0.048,9.874,6.055,18.495,15.316,21.965l108.59,40.529l42.359,136.225c2.326,7.489,8.197,13.308,15.703,15.566     c7.502,2.256,15.604,0.643,21.66-4.31l63.14-51.473c3.032-2.472,7.362-2.594,10.528-0.295l113.883,82.681     c4.097,2.978,8.932,4.511,13.823,4.511c2.865,0,5.749-0.526,8.517-1.596c7.486-2.895,12.93-9.312,14.56-17.163l83.429-401.309     C513.26,51.685,510.257,42.967,503.67,37.382z M491.536,55.99l-83.428,401.308c-0.302,1.45-1.346,2.053-1.942,2.284     c-0.6,0.232-1.785,0.489-2.997-0.393l-113.887-82.685c-5.091-3.696-11.077-5.531-17.052-5.531     c-6.518,0-13.027,2.185-18.347,6.519l-63.154,51.485c-1.124,0.92-2.291,0.756-2.885,0.577c-0.598-0.18-1.665-0.69-2.099-2.086     l-43.845-141.006c-0.937-3.013-3.217-5.423-6.173-6.527L22.462,237.662c-1.696-0.635-2.057-1.958-2.062-2.957     c-0.005-0.99,0.343-2.307,2.023-2.955L487.316,52.409c0.002-0.001,0.005-0.002,0.008-0.003c1.51-0.583,2.627,0.087,3.159,0.537     C491.017,53.398,491.867,54.398,491.536,55.99z"
   id="path8730" />
		</g>
	</g>
</g>


<path
   style="fill:#0000ff;stroke-width:0.42349"
   d="m 140.85663,350.96775 c -8.59208,-27.65923 -15.9288,-51.114 -16.30382,-52.12173 l -0.68184,-1.83223 -54.418529,-20.30174 C 39.52225,265.5461 14.024347,255.9184 12.790433,255.31717 9.991999,253.95362 5.8121254,250.13233 3.9613589,247.24554 -0.67779277,240.00945 -0.82767573,230.23683 3.5857625,222.756 5.3435086,219.7766 9.2366639,215.97977 12.137741,214.41562 15.442754,212.63368 481.02379,33.151433 484.04963,32.492819 c 3.43604,-0.747899 8.19268,-0.446648 11.61215,0.735433 9.55357,3.302565 15.91473,12.021382 15.91473,21.81323 0,3.197083 -4.41243,24.873948 -35.5732,174.760038 -19.56526,94.11063 -35.5732,171.18797 -35.5732,171.28298 0,0.095 -4.5975,0.17274 -10.21671,0.17274 h -10.2167 l 0.2368,-1.1646 c 0.13024,-0.64053 16.2573,-78.21895 35.83789,-172.39649 19.5806,-94.17755 35.60107,-171.868928 35.60107,-172.647515 0,-1.510052 -1.54493,-3.17105 -2.94948,-3.17105 -1.32786,0 -467.328802,179.985675 -467.866073,180.706045 -0.785792,1.05359 -0.660661,3.6886 0.211745,4.45895 0.40761,0.35992 26.37287,10.21601 57.70058,21.90241 31.327708,11.68641 57.736708,21.70116 58.686678,22.25501 0.94996,0.55384 2.21435,1.74312 2.80975,2.64283 0.71906,1.08657 6.85017,20.18496 18.2595,56.87831 9.44732,30.38336 17.54855,56.43354 18.00274,57.88929 l 0.8258,2.64681 h -10.43754 -10.43755 z"
   id="path862" /><path
   style="fill:#0000ff;stroke-width:0.42349"
   d="m 193.99214,377.29443 c -3.78591,-1.37586 -7.12584,-4.26787 -8.86261,-7.67402 -0.84986,-1.66674 -23.36597,-80.22305 -24.49439,-85.45829 -0.81676,-3.78934 -0.51308,-10.82056 0.62189,-14.39868 1.86561,-5.88153 4.90874,-10.67696 9.23669,-14.55536 3.01399,-2.70092 214.26285,-132.97549 217.84706,-134.34359 5.97531,-2.28081 13.17427,0.76464 16.40015,6.93792 0.98933,1.89324 1.15587,2.72396 1.16456,5.80884 0.0194,6.86352 8.69922,-1.8079 -89.27775,89.19072 -47.78628,44.38273 -88.04715,81.91103 -89.46858,83.39623 -2.65394,2.77296 -5.05346,6.836 -6.24396,10.57269 -0.37103,1.1646 -2.10255,12.71569 -3.84781,25.66909 -2.21847,16.46555 -3.43963,24.2637 -4.05869,25.91831 -1.2211,3.26366 -4.06611,6.30134 -7.4721,7.9781 -2.29184,1.12827 -3.357,1.38518 -6.21888,1.49995 -2.41176,0.0967 -4.01807,-0.0667 -5.32558,-0.54191 z m 5.06174,-50.51174 c 1.89292,-13.76818 2.74493,-17.10857 5.95622,-23.35175 2.51072,-4.88118 5.23679,-8.53988 9.35164,-12.551 1.70535,-1.66236 30.54281,-28.51042 64.08326,-59.66236 33.54045,-31.15193 61.05785,-56.84032 61.14979,-57.0853 0.22219,-0.59206 6.72226,-4.55716 -79.04269,48.2168 -52.2156,32.12996 -76.6099,47.36762 -77.67558,48.51929 -1.77159,1.91453 -2.89306,4.78538 -2.89306,7.40592 0,1.05698 3.40661,13.7891 8.27973,30.94524 9.29208,32.71344 8.60953,30.39962 8.88603,30.12312 0.11342,-0.11342 0.97051,-5.7654 1.90466,-12.55996 z"
   id="path864" /><path
   style="fill:#0000ff;stroke-width:0.42349"
   d="m 401.46899,479.7339 c -1.72435,-0.28865 -5.17014,-1.4556 -6.9876,-2.36643 -0.93168,-0.46692 -16.93962,-11.91601 -35.5732,-25.44242 -18.63358,-13.5264 -44.82773,-32.54243 -58.20921,-42.25784 -16.89891,-12.26916 -24.8811,-17.81867 -26.13437,-18.16956 -2.29363,-0.64218 -5.17237,-0.22383 -6.99771,1.01693 -0.77172,0.52457 -15.98179,12.83798 -33.80015,27.36313 -23.41311,19.08587 -33.11192,26.74443 -34.97504,27.61764 -2.82547,1.32425 -7.47544,2.44859 -10.1267,2.44859 -2.78738,0 -7.26003,-1.12961 -10.28525,-2.59764 -3.56844,-1.73163 -8.26183,-6.31265 -10.123,-9.88062 -1.04995,-2.0128 -11.56528,-34.64714 -11.56528,-35.89283 0,-0.17359 4.65614,-0.31561 10.34698,-0.31561 9.48882,0 10.36508,0.0615 10.56516,0.74111 2.42611,8.24078 8.10188,25.956 8.5313,26.62789 0.76877,1.20285 2.52322,1.59945 3.94278,0.89128 0.62685,-0.31271 11.99968,-9.42611 25.27295,-20.252 13.27327,-10.82589 27.71775,-22.6038 32.09885,-26.17314 9.12784,-7.43658 11.46239,-8.95414 16.17333,-10.51341 2.92751,-0.96897 4.10733,-1.12266 8.68156,-1.13087 4.69983,-0.008 5.67366,0.12201 8.68155,1.16295 1.86336,0.64484 4.56876,1.90946 6.01201,2.81025 2.37504,1.48237 20.748,14.7705 90.93837,65.77062 12.79467,9.29657 23.97914,17.37675 24.85439,17.95596 1.76303,1.16672 3.57818,1.08464 4.73408,-0.21406 0.38865,-0.43667 2.94299,-11.81321 6.53169,-29.09097 l 5.89344,-28.37386 10.27105,-0.11347 c 9.6547,-0.10667 10.25732,-0.0686 10.04243,0.63523 -0.12573,0.41179 -2.995,14.08866 -6.37615,30.39304 -3.38115,16.30439 -6.55818,30.78776 -7.06007,32.18528 -0.50189,1.39752 -1.52181,3.4938 -2.26648,4.6584 -1.70922,2.67305 -5.75483,6.42248 -8.57767,7.9497 -4.01298,2.1711 -10.25212,3.27016 -14.51404,2.55673 z"
   id="path866" /></svg>
