<?xml version="1.0" encoding="UTF-8" standalone="no"?>
<!-- Generator: Adobe Illustrator 19.0.0, SVG Export Plug-In . SVG Version: 6.00 Build 0)  -->

<svg
   version="1.1"
   id="Layer_1"
   x="0px"
   y="0px"
   viewBox="0 0 512 512"
   style="enable-background:new 0 0 512 512;"
   xml:space="preserve"
   sodipodi:docname="telegram.svg"
   inkscape:version="1.2.1 (9c6d41e4, 2022-07-14)"
   xmlns:inkscape="http://www.inkscape.org/namespaces/inkscape"
   xmlns:sodipodi="http://sodipodi.sourceforge.net/DTD/sodipodi-0.dtd"
   xmlns="http://www.w3.org/2000/svg"
   xmlns:svg="http://www.w3.org/2000/svg"><defs
   id="defs8753" /><sodipodi:namedview
   id="namedview8751"
   pagecolor="#ffffff"
   bordercolor="#000000"
   borderopacity="0.25"
   inkscape:showpageshadow="2"
   inkscape:pageopacity="0.0"
   inkscape:pagecheckerboard="0"
   inkscape:deskcolor="#d1d1d1"
   showgrid="false"
   inkscape:zoom="2.3613281"
   inkscape:cx="256"
   inkscape:cy="256.42349"
   inkscape:window-width="2557"
   inkscape:window-height="1387"
   inkscape:window-x="0"
   inkscape:window-y="25"
   inkscape:window-maximized="0"
   inkscape:current-layer="Layer_1" />
<g
   id="g8736">
	<g
   id="g8734">
		<g
   id="g8732">
			<path
   d="M385.268,121.919l-210.569,129.69c-11.916,7.356-17.555,21.885-13.716,35.323l22.768,80     c1.945,6.821,8.015,11.355,14.999,11.355c0.389,0,0.782-0.014,1.176-0.043c7.466-0.542,13.374-6.103,14.367-13.515l5.92-43.866     c0.798-5.902,3.642-11.392,8.001-15.45l173.765-161.524c5.251-4.869,5.945-12.842,1.618-18.545     C399.263,119.636,391.388,118.16,385.268,121.919z M214.32,290.478c-7.808,7.268-12.895,17.089-14.323,27.655l-2.871,21.278     l-16.527-58.072c-1.343-4.704,0.635-9.791,4.805-12.365l154.258-95.007L214.32,290.478z"
   id="path8728" />
			<path
   d="M503.67,37.382c-6.579-5.576-15.657-7.111-23.698-4.005L15.08,212.719C5.873,216.27-0.047,224.939,0,234.804     c0.048,9.874,6.055,18.495,15.316,21.965l108.59,40.529l42.359,136.225c2.326,7.489,8.197,13.308,15.703,15.566     c7.502,2.256,15.604,0.643,21.66-4.31l63.14-51.473c3.032-2.472,7.362-2.594,10.528-0.295l113.883,82.681     c4.097,2.978,8.932,4.511,13.823,4.511c2.865,0,5.749-0.526,8.517-1.596c7.486-2.895,12.93-9.312,14.56-17.163l83.429-401.309     C513.26,51.685,510.257,42.967,503.67,37.382z M491.536,55.99l-83.428,401.308c-0.302,1.45-1.346,2.053-1.942,2.284     c-0.6,0.232-1.785,0.489-2.997-0.393l-113.887-82.685c-5.091-3.696-11.077-5.531-17.052-5.531     c-6.518,0-13.027,2.185-18.347,6.519l-63.154,51.485c-1.124,0.92-2.291,0.756-2.885,0.577c-0.598-0.18-1.665-0.69-2.099-2.086     l-43.845-141.006c-0.937-3.013-3.217-5.423-6.173-6.527L22.462,237.662c-1.696-0.635-2.057-1.958-2.062-2.957     c-0.005-0.99,0.343-2.307,2.023-2.955L487.316,52.409c0.002-0.001,0.005-0.002,0.008-0.003c1.51-0.583,2.627,0.087,3.159,0.537     C491.017,53.398,491.867,54.398,491.536,55.99z"
   id="path8730" />
		</g>
	</g>
</g>


<path
   style="fill:#ee4bc8;fill-opacity:1;stroke-width:0.42349"
   d="m 195.22911,377.6066 c -1.16459,-0.30151 -2.7586,-0.88439 -3.54222,-1.29529 -2.03555,-1.06735 -5.03138,-3.93874 -6.20215,-5.94452 -1.29145,-2.21254 -24.58529,-83.96224 -25.21479,-88.49129 -1.47552,-10.61589 3.79097,-22.37339 12.90783,-28.8169 4.95995,-3.50554 213.31672,-131.57542 215.07714,-132.20066 9.44876,-3.35592 19.83928,5.64004 17.66518,15.29425 -1.09526,4.86353 1.51027,2.30025 -68.39818,67.28916 -36.33548,33.77852 -76.26005,70.89607 -88.72126,82.48345 -24.05021,22.36372 -25.30981,23.71372 -27.33723,29.2992 -1.05557,2.90805 -1.43652,5.35017 -5.44204,34.88687 -2.20941,16.29215 -2.37018,17.14809 -3.68394,19.61294 -3.31094,6.21197 -10.59623,9.56872 -17.10834,7.88279 z m 3.73542,-50.09262 c 0.92022,-6.89608 2.0702,-13.699 2.66662,-15.77483 1.41161,-4.91313 4.23493,-10.62134 7.294,-14.74711 2.82527,-3.81044 0.97327,-2.06232 78.62489,-74.21487 28.64913,-26.62028 52.1617,-48.59479 52.25014,-48.83224 0.0884,-0.23745 -0.007,-0.33148 -0.21174,-0.20896 -10.4811,6.26711 -155.67736,95.95315 -156.33213,96.56454 -1.68663,1.57491 -3.12794,5.09029 -3.15127,7.68598 -0.0164,1.82854 1.86469,8.9969 8.39843,32.00385 4.63078,16.30615 8.51489,29.64779 8.63135,29.64809 0.11646,3.1e-4 0.93983,-5.4557 1.82971,-12.12445 z"
   id="path9118" /><path
   style="fill:#ee4bc8;fill-opacity:1;stroke-width:0.42349"
   d="m 397.96369,478.74321 c -4.01805,-1.36877 -3.89063,-1.28466 -23.38635,-15.43852 -9.20033,-6.67942 -25.87527,-18.7862 -37.05542,-26.90393 -11.18015,-8.11773 -29.36935,-21.32459 -40.42046,-29.34858 -11.0511,-8.02398 -20.71644,-14.84959 -21.47854,-15.16802 -2.00138,-0.83623 -5.39363,-0.72757 -7.2527,0.23231 -0.86417,0.44619 -15.86402,12.477 -33.333,26.73512 -17.46898,14.25812 -32.71464,26.53757 -33.87924,27.28767 -3.50933,2.2603 -6.74057,3.26634 -11.2225,3.49412 -7.09346,0.36049 -12.42295,-1.71552 -17.61393,-6.8612 -2.0782,-2.06008 -3.40227,-3.82534 -4.29789,-5.73 -0.71191,-1.51397 -10.85634,-33.52986 -22.54319,-71.1464 -11.68685,-37.61654 -21.37762,-68.52226 -21.53504,-68.67937 -0.15741,-0.15712 -24.802665,-9.43434 -54.767225,-20.61605 -29.964563,-11.18171 -55.50104,-20.84679 -56.747728,-21.47796 -1.246688,-0.63116 -3.6197714,-2.50233 -5.2735191,-4.15815 -7.29726974,-7.30639 -8.9128616,-17.27913 -4.3485524,-26.84278 1.7125803,-3.58839 6.0290978,-7.99708 9.5818325,-9.78645 C 15.277025,212.88107 478.77861,33.97681 482.5384,32.86529 c 2.99857,-0.886471 8.92485,-0.88506 11.91575,0.0028 7.62817,2.264555 13.61137,7.949862 16.13232,15.329136 0.75886,2.2213 0.96594,3.748136 0.9587,7.068244 -0.008,3.961362 -2.69662,17.146168 -41.61467,204.12241 -22.88297,109.93813 -41.88647,201.03094 -42.23001,202.42846 -2.02953,8.25683 -8.42085,14.89666 -16.67396,17.32233 -3.59672,1.05707 -9.30627,0.8842 -13.06284,-0.3955 z m 9.21566,-19.58889 c 0.83246,-0.67407 5.48848,-22.65713 42.80724,-202.11084 23.03022,-110.74496 41.87868,-201.696642 41.88537,-202.114839 0.007,-0.418197 -0.47456,-1.24715 -1.06952,-1.842119 -0.86701,-0.86701 -1.39244,-1.046523 -2.64682,-0.904254 -1.38761,0.15738 -463.56811,178.242342 -466.430508,179.722542 -2.01765,1.04337 -2.016291,4.54897 0.0022,5.62922 0.409808,0.21932 26.370703,9.95883 57.690878,21.64336 31.32017,11.68452 57.53863,21.60886 58.26324,22.05408 0.7246,0.44522 1.83788,1.56045 2.47393,2.47828 0.85089,1.22783 7.02634,20.55955 23.37066,73.15983 16.63052,53.52138 22.43389,71.67733 23.08827,72.23216 2.21883,1.88124 1.40618,2.45933 34.44777,-24.50492 37.02572,-30.21558 35.01409,-28.63887 38.84209,-30.44422 4.41474,-2.08206 7.50927,-2.77407 12.40025,-2.77297 4.91641,10e-4 9.14991,1.00944 13.12821,3.12686 2.17602,1.15816 34.68484,24.61616 102.03702,73.62877 17.08526,12.43305 17.60482,12.72352 19.70974,11.01906 z"
   id="path9124" /><path
   style="fill:#ff00ff;stroke-width:0.42349"
   d="m 402.10422,479.36837 c -3.307,-0.42883 -6.70867,-1.72547 -9.84552,-3.75293 -1.38748,-0.89674 -25.08575,-18.005 -52.66282,-38.01828 -50.67208,-36.77386 -60.36739,-43.75246 -63.05659,-45.38756 -1.76677,-1.07423 -6.31721,-1.24894 -8.11392,-0.31151 -1.29663,0.67651 -5.1767,3.77722 -38.47003,30.74288 -13.39289,10.84746 -25.49413,20.60169 -26.89165,21.67607 -4.81298,3.7001 -8.57833,5.00637 -14.43093,5.00637 -4.79045,0 -8.38699,-1.01765 -11.90935,-3.36979 -3.03188,-2.02462 -6.91544,-6.01649 -8.07,-8.29508 -0.75745,-1.49487 -2.73227,-7.53971 -11.54625,-35.34257 -1.36603,-4.30902 -8.51122,-27.1775 -15.87819,-50.81886 -16.7861,-53.86824 -16.98469,-54.47668 -17.89717,-54.83175 -0.40222,-0.15651 -22.83751,-8.57894 -49.8562,-18.71651 C 46.456907,267.81128 21.408361,258.36451 17.812166,256.95604 l -6.538539,-2.56087 -3.4672125,-3.43249 C 3.9787182,247.17332 2.102513,244.01116 1.0610846,239.5941 -0.56779621,232.68543 1.5432569,224.8646 6.4747673,219.53798 10.735056,214.93636 6.3045402,216.88719 58.018197,196.84254 164.63258,155.5179 456.56158,42.923659 477.35747,35.107381 c 6.54631,-2.460489 6.71469,-2.498613 11.03438,-2.498613 5.17789,0 8.19768,0.851156 12.2019,3.439207 3.78681,2.44753 6.53836,5.537591 8.55511,9.607564 2.47212,4.988947 2.61221,8.472671 0.75279,18.720715 -2.21854,12.227281 -15.03124,74.197016 -55.03009,266.158076 -26.49496,127.15374 -27.49635,131.89599 -28.29192,133.98595 -1.02683,2.69738 -3.49176,6.33127 -5.77831,8.5186 -5.26931,5.0406 -11.74106,7.23148 -18.69711,6.32949 z m 5.48655,-20.83404 c 1.08878,-2.61438 7.04125,-30.60568 31.99274,-150.445 15.14021,-72.71658 41.39823,-199.21294 48.29359,-232.651169 l 4.31105,-20.905929 -0.82907,-1.115578 C 489.91066,51.467719 488.68037,51.690917 477.55486,55.921 430.86482,73.673263 67.20396,213.84621 28.008021,229.19868 c -7.16341,2.8058 -8.052206,3.4331 -8.088961,5.70906 -0.03658,2.2651 0.43472,2.46547 44.66324,18.98771 67.73831,25.30469 72.64823,27.20223 74.19129,28.67268 1.86705,1.77921 2.60155,4.01529 26.60648,80.99846 14.19675,45.52862 19.40416,61.87185 20.54397,64.47643 0.68124,1.55668 0.96363,1.79983 2.09034,1.79983 2.29116,0 3.74949,-1.08584 28.38926,-21.13802 40.0434,-32.58787 39.85838,-32.44143 42.98429,-34.02027 7.56286,-3.81988 17.05352,-4.04248 24.56245,-0.5761 2.68177,1.23799 21.05419,14.39362 84.78355,60.70949 35.45688,25.76862 34.46403,25.09272 36.86079,25.09272 1.20538,0 1.51047,-0.21039 1.99605,-1.37634 z"
   id="path521" /><path
   style="fill:#ff00ff;stroke-width:0.42349"
   d="m 194.59388,377.18239 c -2.8671,-0.94273 -4.14425,-1.78736 -6.60672,-4.3693 -2.14502,-2.24909 -2.50079,-2.90205 -3.72068,-6.8286 -2.49132,-8.01902 -10.50213,-35.71618 -15.64257,-54.08374 -8.27807,-29.57883 -8.27099,-29.54978 -8.26078,-33.87924 0.0156,-6.61239 2.49298,-13.37598 6.91979,-18.89189 3.89784,-4.8568 0.18786,-2.44333 67.7543,-44.07649 71.53894,-44.08093 149.87386,-92.08826 153.30356,-93.95163 1.71489,-0.9317 6.62434,-0.73321 9.07131,0.36677 5.2597,2.36435 8.48939,7.07415 8.44145,12.30999 -0.0329,3.58846 -0.89579,5.29637 -4.77446,9.44961 -5.21574,5.58497 -12.99101,12.86675 -112.04682,104.93537 -56.32436,52.35136 -62.99448,58.70988 -65.45989,62.40185 -2.86237,4.28645 -3.09685,5.50611 -8.23564,42.83773 -2.0661,15.00958 -2.61891,16.72032 -6.55093,20.27266 -3.80502,3.4376 -9.8556,4.93274 -14.19192,3.50691 z m 3.37219,-40.93094 c 1.35673,-10.87651 3.39808,-22.70396 4.47487,-25.92715 2.23079,-6.6775 5.44234,-12.18054 9.67049,-16.57057 2.68822,-2.79114 20.41571,-19.47858 42.82985,-40.31708 81.99478,-76.23084 85.4537,-79.4831 84.77444,-79.70952 -0.46502,-0.155 -43.41193,26.22499 -137.9225,84.71843 -9.78263,6.05455 -18.31012,11.49421 -18.94998,12.08812 -1.41179,1.31043 -2.85978,5.00243 -2.85978,7.29173 0,0.92281 0.84469,4.96529 1.8771,8.98328 1.9854,7.72697 14.55634,51.93078 14.9491,52.56629 0.37981,0.61455 0.8478,-0.64952 1.15641,-3.12353 z"
   id="path523" /></svg>
