<?xml version="1.0" encoding="UTF-8" standalone="no"?>
<!-- Svg Vector Icons : http://www.onlinewebfonts.com/icon -->

<svg
   version="1.1"
   x="0px"
   y="0px"
   viewBox="0 0 1000 1000"
   enable-background="new 0 0 1000 1000"
   xml:space="preserve"
   id="svg1032"
   sodipodi:docname="work.svg"
   inkscape:version="1.2.1 (9c6d41e4, 2022-07-14)"
   xmlns:inkscape="http://www.inkscape.org/namespaces/inkscape"
   xmlns:sodipodi="http://sodipodi.sourceforge.net/DTD/sodipodi-0.dtd"
   xmlns="http://www.w3.org/2000/svg"
   xmlns:svg="http://www.w3.org/2000/svg"><defs
   id="defs1036" /><sodipodi:namedview
   id="namedview1034"
   pagecolor="#ffffff"
   bordercolor="#000000"
   borderopacity="0.25"
   inkscape:showpageshadow="2"
   inkscape:pageopacity="0.0"
   inkscape:pagecheckerboard="0"
   inkscape:deskcolor="#d1d1d1"
   showgrid="false"
   inkscape:zoom="1.209"
   inkscape:cx="500"
   inkscape:cy="500"
   inkscape:window-width="2557"
   inkscape:window-height="1387"
   inkscape:window-x="0"
   inkscape:window-y="25"
   inkscape:window-maximized="0"
   inkscape:current-layer="svg1032" />
<metadata
   id="metadata1026"> Svg Vector Icons : http://www.onlinewebfonts.com/icon </metadata>
<g
   id="g1030"><path
     d="M908.3,244.3H681.1v-63.8c0-58.8-62.9-106.7-140.3-106.7h-85.2c-76.6,0-136.6,46.9-136.6,106.7v63.8H98.6c-49.6,0-88.6,35.2-88.6,80v69.1v53.3v48.1c0,7.8,4.3,15.1,11.2,18.8c1.8,0.9,13,6.8,31.4,15.6v349c0,23.1,16.3,47.8,40.8,47.8h809.5c25.1,0,44.5-25.6,44.5-47.8v-349c18.4-8.8,29.5-14.7,31.3-15.7c7-3.7,11.2-10.9,11.2-18.8v-48v-53.3v-69.1C990.1,278,955.6,244.3,908.3,244.3 M371.6,180.6c0-35.3,32-53.9,83.9-53.9h85.2c52.1,0,87.7,19.8,87.7,53.9v63.8H371.6L371.6,180.6L371.6,180.6z M894.7,863.9c0,1.5-1.9,4.3-3.4,5.4H106.7c-0.7-1.3-1.3-3.3-1.3-5.2V548.8c71.9,31.3,167.2,74.6,288.7,91v20.1c0,23.5,19.1,42.6,42.6,42.6h126.8c23.5,0,42.6-19.1,42.6-42.6v-20c121.5-16.5,216.8-59.7,288.7-91.1L894.7,863.9L894.7,863.9z M446.7,659.8V553.3h106.5v106.5H446.7L446.7,659.8z M937.3,471.6c-41.8,20.8-172.8,92.1-331.3,114.9v-33.3c0-23.5-19.1-42.6-42.6-42.6H436.6c-23.5,0-42.6,19.1-42.6,42.6v33.3c-158.4-22.7-289.5-94-331.2-114.9v-26.9v-51.2v-69.1c0-23.4,13.3-27.3,35.9-27.3h809.6c23.8,0,29.1,4.6,29.1,27.3v69.1v43.1V471.6L937.3,471.6z"
     id="path1028" /></g>
<path
   style="fill:#ff00ff;stroke-width:0.82713"
   d="M 83.343218,923.95211 C 72.962495,920.63366 64.157519,912.51166 58.762568,901.27808 52.522639,888.28499 52.936311,902.19595 52.936311,705.35333 V 528.91648 l -16.613865,-8.25477 c -13.063615,-6.49078 -17.319118,-9.01663 -19.914192,-11.82001 -6.066128,-6.55306 -5.655566,0.7844 -5.655566,-101.07498 0,-100.91521 -0.160678,-97.3835 5.045648,-110.90363 5.04716,-13.1068 16.948423,-27.66196 29.697241,-36.31952 10.618736,-7.21104 25.840636,-12.96369 39.230919,-14.8261 4.286176,-0.59615 43.768834,-0.88703 120.402954,-0.88703 h 114.02546 l 0.35331,-38.25476 c 0.37513,-40.61736 0.47819,-41.7881 4.79666,-54.489 11.70673,-34.43027 45.94476,-62.156169 90.11715,-72.976736 17.71989,-4.340706 23.55567,-4.668257 83.17154,-4.668257 33.49388,0 58.13452,0.345905 63.02629,0.884763 58.07345,6.397131 105.49583,40.62755 117.37442,84.72318 l 2.22815,8.2713 0.31124,38.23612 0.31123,38.23613 120.90924,0.22618 120.90922,0.22619 7.95608,2.19868 c 28.62332,7.91014 47.12547,25.79805 55.90033,54.0446 l 2.31257,7.44417 0.23085,94.91219 0.23094,94.9122 -1.77659,4.1297 c -0.97709,2.27133 -3.22631,5.43948 -4.99827,7.04033 -1.77196,1.60085 -10.47436,6.53129 -19.33862,10.95653 l -16.11696,8.0459 -0.0141,176.1885 c -0.0157,195.22166 0.36418,181.89277 -5.52812,193.86502 -3.6699,7.45658 -13.86882,18.27271 -20.57403,21.81903 -9.74607,5.15467 25.70289,4.76021 -423.39554,4.71141 -394.78964,-0.043 -409.632351,-0.0988 -414.208392,-1.5617 z M 893.66691,867.47518 c 1.15451,-1.6483 1.2876,-18.24236 1.2876,-160.55169 0,-126.64193 -0.20894,-158.62902 -1.03391,-158.29591 -0.56866,0.22961 -8.85029,3.84844 -18.40364,8.04185 -105.47477,46.2978 -184.04694,70.75265 -263.23408,81.92915 l -6.82382,0.96311 v 12.96514 c 0,19.3601 -2.84663,27.67424 -12.70665,37.11233 -6.54919,6.26894 -11.1428,8.89504 -19.13465,10.93901 -6.21202,1.58877 -9.14201,1.6545 -73.12972,1.64072 -73.21511,-0.0158 -72.98895,-0.002 -82.87842,-4.99433 -6.80165,-3.43347 -15.41682,-12.01299 -18.3692,-18.2932 -3.81559,-8.11641 -4.69948,-13.17832 -4.69948,-26.91325 0,-6.95569 -0.27915,-12.64866 -0.62034,-12.651 -2.53695,-0.0175 -35.15512,-5.60493 -48.59388,-8.32405 -65.93857,-13.34165 -127.90704,-34.11329 -216.21832,-72.47573 -12.09729,-5.25507 -22.46034,-9.73525 -23.029,-9.95595 -0.82493,-0.32016 -1.03391,31.78481 -1.03391,158.84207 0,87.58384 0.22592,159.8321 0.50206,160.55169 0.45684,1.1905 35.91501,1.30834 393.66691,1.30834 H 892.37932 Z M 553.34988,606.28619 V 552.52275 H 500 446.65012 v 53.76344 53.76344 H 500 553.34988 Z M 396.90186,539.09385 c 5.39558,-13.58184 16.01414,-23.14381 29.64347,-26.69379 7.18096,-1.87041 139.84162,-1.84091 147.03486,0.0327 14.84135,3.86568 26.74669,15.77103 30.61237,30.61237 0.96449,3.70291 1.2665,9.52738 1.2665,24.42505 v 19.56264 l 1.86104,-0.29503 c 72.08614,-11.42752 131.39612,-27.72504 201.19934,-55.28664 34.23201,-13.51642 56.69545,-23.59484 98.24888,-44.08027 l 31.25137,-15.4066 -0.26022,-79.86137 c -0.19992,-61.36155 -0.50099,-80.57394 -1.29967,-82.93743 -1.47204,-4.35607 -4.86071,-8.05979 -9.21993,-10.07713 l -3.74938,-1.73514 -417.94093,-0.21081 C 47.52405,296.91136 80.288039,296.5677 72.0729,301.68908 c -5.001273,3.11783 -8.163266,8.90826 -9.191839,16.83265 -0.45529,3.50767 -0.806163,37.62017 -0.820783,79.79812 l -0.02554,73.67135 31.224153,15.39804 c 39.561329,19.50947 60.849089,29.1445 93.479319,42.30954 65.54186,26.44361 138.01044,46.75802 200.35856,56.16458 l 7.03061,1.06072 0.44492,-21.54308 c 0.41083,-19.89209 0.58936,-21.90665 2.32956,-26.28712 z M 628.61869,209.43763 c 0,-29.11225 -0.22474,-36.25564 -1.26649,-40.25521 -5.08284,-19.51431 -23.58058,-33.31364 -53.43141,-39.85984 l -10.23179,-2.24381 -60.53673,-0.31251 c -51.02981,-0.26343 -62.07094,-0.11254 -70.30603,0.96085 -32.05312,4.17791 -51.52192,16.17829 -59.14787,36.45817 -1.82107,4.84281 -1.87257,5.87755 -2.13045,42.80397 l -0.26428,37.84119 h 128.65753 128.65752 z"
   id="path1038" /></svg>
