<svg xmlns="http://www.w3.org/2000/svg" viewBox="0 0 64 64"><defs><style>.cls-1{fill:#f0efe3;}.cls-2{fill:#bdab9d;}.cls-3{opacity:0.15;}.cls-4{fill:#5f4e56;}.cls-5{isolation:isolate;}</style></defs><title>briefcase</title><g id="Briefcase"><g id="Cream"><rect class="cls-1" x="2" y="17" width="60" height="40" rx="2" ry="2"/></g><g id="Brown"><polygon class="cls-2" points="4 19 4 34 28 34 28 33 36 33 36 34 60 34 60 19 4 19"/></g><g id="Details" class="cls-3"><path class="cls-4" d="M39,43a1,1,0,1,0,1,1A1,1,0,0,0,39,43Zm16,7H50a1,1,0,0,0,0,2h5a1,1,0,1,0,0-2ZM9,24a1,1,0,0,0-1-1H3a1,1,0,0,0,0,2H8A1,1,0,0,0,9,24Zm37,3H44a1,1,0,0,0,0,2h2a1,1,0,0,0,0-2Zm5,16a1,1,0,0,0-1-1H48a1,1,0,0,0,0,2h2A1,1,0,0,0,51,43ZM26,28a1,1,0,0,0-1-1H20a1,1,0,0,0,0,2h5A1,1,0,0,0,26,28Zm0,20H24a1,1,0,0,0,0,2h2a1,1,0,0,0,0-2ZM14,50H9a1,1,0,0,0,0,2h5a1,1,0,0,0,0-2Zm3-9H16a1,1,0,0,0,0,2h1a1,1,0,0,0,0-2ZM56,23H55a1,1,0,0,0,0,2h1a1,1,0,0,0,0-2Z"/></g><g id="Outline"><path class="cls-4" d="M60,15H46V9a4,4,0,0,0-4-4H22a4,4,0,0,0-4,4v6H4a4,4,0,0,0-4,4V55a4,4,0,0,0,4,4H60a4,4,0,0,0,4-4V19A4,4,0,0,0,60,15ZM22,9H42v6H22ZM60,55H4V36H26v1a2,2,0,0,0,2,2h8a2,2,0,0,0,2-2V36H60ZM28,37V33h8v4Zm32-3H38V33a2,2,0,0,0-2-2H28a2,2,0,0,0-2,2v1H4V19H60Z"/></g></g></svg>