<?xml version="1.0" encoding="utf-8"?>
<!-- Generator: Adobe Illustrator 24.1.1, SVG Export Plug-In . SVG Version: 6.00 Build 0)  -->
<svg version="1.1" id="Layer_1" xmlns="http://www.w3.org/2000/svg" xmlns:xlink="http://www.w3.org/1999/xlink" x="0px" y="0px"
	 viewBox="0 0 512 512" style="enable-background:new 0 0 512 512;" xml:space="preserve">
<g>
	<path d="M421.3,6.4H90.7C40.5,6.4,0,46.9,0,97.1v317.8c0,50.2,40.5,90.7,90.7,90.7h330.7c50.2,0,90.7-40.5,90.7-90.7V97.1
		C512,46.9,471.5,6.4,421.3,6.4z M490.4,406.6c0.3,42.8-34.4,77.6-77.2,77.6H98.8c-42.7,0-77.4-34.8-77.4-77.4V105.2
		c0-42.7,34.7-77.4,77.4-77.4H413c42.7,0,77.4,34.7,77.4,77.4V406.6z M202.4,240l59.8,114.7c1.1,1.7,0.4,3.4-1.3,3.4h-37.2
		c-2.3,0-3.4-0.6-4.4-2.7c-13.6-28.2-27.6-56.3-41.8-86.6h-0.4c-12.8,28.6-26.9,58.7-40.6,86.8c-1,1.7-2.1,2.3-3.8,2.3H97.5
		c-2.2,0-2.3-1.7-1.2-3l58.4-111.3L98.2,131c-1.3-1.7,0-3,1.2-3h36.7c2.2,0,3,0.4,3.8,2.3c13.5,28.2,27.1,57.2,39.9,85.6h0.4
		c12.4-28.2,26.1-57.4,39.2-85.3c1.1-1.7,1.7-2.8,3.8-2.8h34.3c1.7,0,2.4,1.3,1.3,3L202.4,240z M272.7,274.7
		c0-49.7,33-88.5,85.5-88.5c4.5,0,6.8,0,11.1,0.4v-56.5l2.2-2.2h33.7c1.7,0,2.2,0.7,2.2,1.7v195.9c0,5.7,0,13,1.1,20.8l-1.7,2.4
		c-17.9,8.5-36.7,12.3-54.6,12.3C305.7,361.4,272.7,332.8,272.7,274.7z M369.3,220.2c-2.9-1.2-7.2-2.2-12.4-2.2
		c-26.9,0-45.6,20.7-45.6,55.1c0,39.2,19.1,55,43.3,55c5.1,0,10.7-0.6,14.7-2.3V220.2z"/>
</g>
</svg>
